{
  "title" : "",
  "description" : "",
  "author" : "",
  "targetLoudness" : -18.0,
  "shouldApplyLoudnessNormalization" : true,
  "videoFormatFrameRate" : 60,
  "audioFormatSampleRate" : 44100,
  "width" : 1920.0,
  "height" : 1080.0,
  "version" : "3.0",
  "editRate" : 60,
  "authoringClientName" :  {
    "name" : "Camtasia",
    "platform" : "Windows",
    "version" : "19.0"
  },
  "sourceBin" : [
    {
      "id" : 1,
      "src" : "C:\\Users\\Lynn Dai\\Desktop\\B roll\\Living Office with Herman Miller(good for Ryan part).mp4",
      "rect" : [0, 0, 1920, 1080],
      "lastMod" : "20200414T163305",
      "sourceTracks" : [
        {
          "range" : [0, 2189865728],
          "type" : 0,
          "editRate" : 10000000,
          "trackRect" : [0, 0, 1920, 1080],
          "sampleRate" : "10000000/334319",
          "bitDepth" : 24,
          "numChannels" : 0,
          "integratedLUFS" : 100.0,
          "peakLevel" : -1.0,
          "metaData" : ""
        },
        {
          "range" : [0, 2189865728],
          "type" : 2,
          "editRate" : 10000000,
          "trackRect" : [0, 0, 0, 0],
          "sampleRate" : 44100,
          "bitDepth" : 16,
          "numChannels" : 2,
          "integratedLUFS" : 0.0,
          "peakLevel" : 1.95404190890258e-05,
          "metaData" : ""
        }
      ],
      "metadata" : {
        "timeAdded" : "20200414T231845.693947"
      }
    },
    {
      "id" : 2,
      "src" : "C:\\Users\\Lynn Dai\\Desktop\\B roll\\Herman Miller Design Yard & ppl working.mp4",
      "rect" : [0, 0, 1920, 1080],
      "lastMod" : "20200413T154026",
      "sourceTracks" : [
        {
          "range" : [0, 928581696],
          "type" : 0,
          "editRate" : 10000000,
          "trackRect" : [0, 0, 1920, 1080],
          "sampleRate" : "10000000/335097",
          "bitDepth" : 24,
          "numChannels" : 0,
          "integratedLUFS" : 100.0,
          "peakLevel" : -1.0,
          "metaData" : ""
        },
        {
          "range" : [0, 928581696],
          "type" : 2,
          "editRate" : 10000000,
          "trackRect" : [0, 0, 0, 0],
          "sampleRate" : 44100,
          "bitDepth" : 16,
          "numChannels" : 2,
          "integratedLUFS" : 0.0,
          "peakLevel" : 1.95404190890258e-05,
          "metaData" : ""
        }
      ],
      "metadata" : {
        "timeAdded" : "20200414T232236.120996"
      }
    },
    {
      "id" : 3,
      "src" : "C:\\Users\\Lynn Dai\\Desktop\\Ryan's voiceover audio.mp3",
      "rect" : [0, 0, 0, 0],
      "lastMod" : "20200415T002501",
      "sourceTracks" : [
        {
          "range" : [0, 1894661000],
          "type" : 2,
          "editRate" : 10000000,
          "trackRect" : [0, 0, 0, 0],
          "sampleRate" : 44100,
          "bitDepth" : 0,
          "numChannels" : 2,
          "integratedLUFS" : -28.8671876911271,
          "peakLevel" : 0.432625144720078,
          "metaData" : ""
        }
      ],
      "metadata" : {
        "timeAdded" : "20200415T002611.893384"
      }
    },
    {
      "id" : 4,
      "src" : "C:\\Users\\Lynn Dai\\Desktop\\B roll\\Ryan Anderson of Herman Miller at Techonomy 2012.mp4",
      "rect" : [0, 0, 1920, 1080],
      "lastMod" : "20200415T004104",
      "sourceTracks" : [
        {
          "range" : [0, 745875008],
          "type" : 0,
          "editRate" : 10000000,
          "trackRect" : [0, 0, 1920, 1080],
          "sampleRate" : "5000000/167387",
          "bitDepth" : 24,
          "numChannels" : 0,
          "integratedLUFS" : 100.0,
          "peakLevel" : -1.0,
          "metaData" : ""
        },
        {
          "range" : [0, 745875008],
          "type" : 2,
          "editRate" : 10000000,
          "trackRect" : [0, 0, 0, 0],
          "sampleRate" : 48000,
          "bitDepth" : 16,
          "numChannels" : 2,
          "integratedLUFS" : 0.0,
          "peakLevel" : 2.37678232224425e-05,
          "metaData" : ""
        }
      ],
      "metadata" : {
        "timeAdded" : "20200415T004523.765330"
      }
    },
    {
      "id" : 5,
      "src" : "C:\\Users\\Lynn Dai\\Desktop\\B roll\\Ryan PropTech NYC.mp4",
      "rect" : [0, 0, 1920, 1080],
      "lastMod" : "20200415T004248",
      "sourceTracks" : [
        {
          "range" : [0, 202694336],
          "type" : 0,
          "editRate" : 10000000,
          "trackRect" : [0, 0, 1920, 1080],
          "sampleRate" : "2000000/66451",
          "bitDepth" : 24,
          "numChannels" : 0,
          "integratedLUFS" : 100.0,
          "peakLevel" : -1.0,
          "metaData" : ""
        },
        {
          "range" : [0, 202694336],
          "type" : 2,
          "editRate" : 10000000,
          "trackRect" : [0, 0, 0, 0],
          "sampleRate" : 48000,
          "bitDepth" : 16,
          "numChannels" : 2,
          "integratedLUFS" : 0.0,
          "peakLevel" : 2.37678232224425e-05,
          "metaData" : ""
        }
      ],
      "metadata" : {
        "timeAdded" : "20200415T004524.058895"
      }
    },
    {
      "id" : 6,
      "src" : "C:\\Users\\Lynn Dai\\Desktop\\B roll\\108 Years of Herman Miller (in 108 Seconds) .mp4",
      "rect" : [0, 0, 1920, 1080],
      "lastMod" : "20200413T154320",
      "sourceTracks" : [
        {
          "range" : [0, 1262779008],
          "type" : 0,
          "editRate" : 10000000,
          "trackRect" : [0, 0, 1920, 1080],
          "sampleRate" : "10000000/334767",
          "bitDepth" : 24,
          "numChannels" : 0,
          "integratedLUFS" : 100.0,
          "peakLevel" : -1.0,
          "metaData" : ""
        },
        {
          "range" : [0, 1262779008],
          "type" : 2,
          "editRate" : 10000000,
          "trackRect" : [0, 0, 0, 0],
          "sampleRate" : 44100,
          "bitDepth" : 16,
          "numChannels" : 2,
          "integratedLUFS" : 0.0,
          "peakLevel" : 1.95404190890258e-05,
          "metaData" : ""
        }
      ],
      "metadata" : {
        "timeAdded" : "20200415T010447.964149"
      }
    },
    {
      "id" : 7,
      "src" : "C:\\Users\\Lynn Dai\\Desktop\\B roll\\Conference Tables Animation(great office transformation at the end).mp4",
      "rect" : [0, 0, 1920, 1080],
      "lastMod" : "20200414T165950",
      "sourceTracks" : [
        {
          "range" : [0, 890591680],
          "type" : 0,
          "editRate" : 10000000,
          "trackRect" : [0, 0, 1920, 1080],
          "sampleRate" : "5000000/167839",
          "bitDepth" : 24,
          "numChannels" : 0,
          "integratedLUFS" : 100.0,
          "peakLevel" : -1.0,
          "metaData" : ""
        },
        {
          "range" : [0, 890591680],
          "type" : 2,
          "editRate" : 10000000,
          "trackRect" : [0, 0, 0, 0],
          "sampleRate" : 44100,
          "bitDepth" : 16,
          "numChannels" : 2,
          "integratedLUFS" : 0.0,
          "peakLevel" : 1.95404190890258e-05,
          "metaData" : ""
        }
      ],
      "metadata" : {
        "timeAdded" : "20200415T021249.627918"
      }
    },
    {
      "id" : 8,
      "src" : "C:\\Users\\Lynn Dai\\Desktop\\background music tracks\\track 5.mp3",
      "rect" : [0, 0, 0, 0],
      "lastMod" : "20200414T172614",
      "sourceTracks" : [
        {
          "range" : [0, 1853883000],
          "type" : 2,
          "editRate" : 10000000,
          "trackRect" : [0, 0, 0, 0],
          "sampleRate" : 44100,
          "bitDepth" : 0,
          "numChannels" : 2,
          "integratedLUFS" : -14.9437520540395,
          "peakLevel" : 0.988162040710449,
          "metaData" : ""
        }
      ],
      "metadata" : {
        "timeAdded" : "20200416T010606.740307"
      }
    },
    {
      "id" : 9,
      "src" : "C:\\Users\\Lynn Dai\\Desktop\\B roll\\HM Live OS animation.mp4",
      "rect" : [0, 0, 1920, 1080],
      "lastMod" : "20200413T152507",
      "sourceTracks" : [
        {
          "range" : [0, 515388992],
          "type" : 0,
          "editRate" : 10000000,
          "trackRect" : [0, 0, 1920, 1080],
          "sampleRate" : "10000000/338393",
          "bitDepth" : 24,
          "numChannels" : 0,
          "integratedLUFS" : 100.0,
          "peakLevel" : -1.0,
          "metaData" : ""
        },
        {
          "range" : [0, 515388992],
          "type" : 2,
          "editRate" : 10000000,
          "trackRect" : [0, 0, 0, 0],
          "sampleRate" : 44100,
          "bitDepth" : 16,
          "numChannels" : 2,
          "integratedLUFS" : 0.0,
          "peakLevel" : 1.95404190890258e-05,
          "metaData" : ""
        }
      ],
      "metadata" : {
        "timeAdded" : "20200416T040544.722582"
      }
    },
    {
      "id" : 10,
      "src" : "C:\\Users\\Lynn Dai\\Desktop\\background music tracks\\HM youtube canvas office sound.mp3",
      "rect" : [0, 0, 0, 0],
      "lastMod" : "20200414T230211",
      "sourceTracks" : [
        {
          "range" : [0, 661680625],
          "type" : 2,
          "editRate" : 10000000,
          "trackRect" : [0, 0, 0, 0],
          "sampleRate" : 44100,
          "bitDepth" : 0,
          "numChannels" : 2,
          "integratedLUFS" : -24.9158614568146,
          "peakLevel" : 0.350602447986603,
          "metaData" : ""
        }
      ],
      "metadata" : {
        "timeAdded" : "20200417T064809.172511"
      }
    },
    {
      "id" : 11,
      "src" : "C:\\Users\\Lynn Dai\\Desktop\\Recording edited1.mp3",
      "rect" : [0, 0, 0, 0],
      "lastMod" : "20200417T212841",
      "sourceTracks" : [
        {
          "range" : [0, 187036734],
          "type" : 2,
          "editRate" : 10000000,
          "trackRect" : [0, 0, 0, 0],
          "sampleRate" : 44100,
          "bitDepth" : 0,
          "numChannels" : 2,
          "integratedLUFS" : -16.9511341674073,
          "peakLevel" : 0.475484669208527,
          "metaData" : ""
        }
      ],
      "metadata" : {
        "timeAdded" : "20200417T212941.667144"
      }
    },
    {
      "id" : 12,
      "src" : "C:\\Users\\Lynn Dai\\Desktop\\B roll\\Canvas Vista design layout views.mp4",
      "rect" : [0, 0, 1920, 1080],
      "lastMod" : "20200413T151602",
      "sourceTracks" : [
        {
          "range" : [0, 1078320000],
          "type" : 0,
          "editRate" : 10000000,
          "trackRect" : [0, 0, 1920, 1080],
          "sampleRate" : "80000/2683",
          "bitDepth" : 24,
          "numChannels" : 0,
          "integratedLUFS" : 100.0,
          "peakLevel" : -1.0,
          "metaData" : ""
        },
        {
          "range" : [0, 1078320000],
          "type" : 2,
          "editRate" : 10000000,
          "trackRect" : [0, 0, 0, 0],
          "sampleRate" : 44100,
          "bitDepth" : 16,
          "numChannels" : 2,
          "integratedLUFS" : 0.0,
          "peakLevel" : 1.95404190890258e-05,
          "metaData" : ""
        }
      ],
      "metadata" : {
        "timeAdded" : "20200417T214133.519689"
      }
    },
    {
      "id" : 13,
      "src" : "C:\\Users\\Lynn Dai\\Desktop\\B roll\\Usual workspace scenario.mp4",
      "rect" : [0, 0, 1920, 1080],
      "lastMod" : "20200413T153302",
      "sourceTracks" : [
        {
          "range" : [0, 2125207680],
          "type" : 0,
          "editRate" : 10000000,
          "trackRect" : [0, 0, 1920, 1080],
          "sampleRate" : "2500000/83351",
          "bitDepth" : 24,
          "numChannels" : 0,
          "integratedLUFS" : 100.0,
          "peakLevel" : -1.0,
          "metaData" : ""
        },
        {
          "range" : [0, 2125207680],
          "type" : 2,
          "editRate" : 10000000,
          "trackRect" : [0, 0, 0, 0],
          "sampleRate" : 44100,
          "bitDepth" : 16,
          "numChannels" : 2,
          "integratedLUFS" : -19.3771576298764,
          "peakLevel" : 0.364686667919159,
          "metaData" : ""
        }
      ],
      "metadata" : {
        "timeAdded" : "20200417T232903.378000"
      }
    },
    {
      "id" : 14,
      "src" : "C:\\Users\\Lynn Dai\\Desktop\\B roll\\employees talking chatting casually.mp4",
      "rect" : [0, 0, 1920, 1080],
      "lastMod" : "20200413T150613",
      "sourceTracks" : [
        {
          "range" : [0, 851892992],
          "type" : 0,
          "editRate" : 10000000,
          "trackRect" : [0, 0, 1920, 1080],
          "sampleRate" : "10000000/333547",
          "bitDepth" : 24,
          "numChannels" : 0,
          "integratedLUFS" : 100.0,
          "peakLevel" : -1.0,
          "metaData" : ""
        },
        {
          "range" : [0, 851892992],
          "type" : 2,
          "editRate" : 10000000,
          "trackRect" : [0, 0, 0, 0],
          "sampleRate" : 44100,
          "bitDepth" : 16,
          "numChannels" : 2,
          "integratedLUFS" : 0.0,
          "peakLevel" : 1.95404190890258e-05,
          "metaData" : ""
        }
      ],
      "metadata" : {
        "timeAdded" : "20200417T233948.379185"
      }
    },
    {
      "id" : 15,
      "src" : "C:\\Users\\Lynn Dai\\Desktop\\B roll\\cozy workspaces & casual meetings.mp4",
      "rect" : [0, 0, 1920, 1080],
      "lastMod" : "20200413T152239",
      "sourceTracks" : [
        {
          "range" : [0, 1385140992],
          "type" : 0,
          "editRate" : 10000000,
          "trackRect" : [0, 0, 1920, 1080],
          "sampleRate" : "2500000/83539",
          "bitDepth" : 24,
          "numChannels" : 0,
          "integratedLUFS" : 100.0,
          "peakLevel" : -1.0,
          "metaData" : ""
        },
        {
          "range" : [0, 1385140992],
          "type" : 2,
          "editRate" : 10000000,
          "trackRect" : [0, 0, 0, 0],
          "sampleRate" : 44100,
          "bitDepth" : 16,
          "numChannels" : 2,
          "integratedLUFS" : 0.0,
          "peakLevel" : 1.95404190890258e-05,
          "metaData" : ""
        }
      ],
      "metadata" : {
        "timeAdded" : "20200418T001413.621661"
      }
    },
    {
      "id" : 16,
      "src" : "C:\\Users\\Lynn Dai\\Desktop\\B roll\\(1) New York City (NYC), USA 🇺🇸 - by drone [4K] - YouTube - Google Chrome 2020-04-17 20-19-13.mp4",
      "rect" : [0, 0, 1920, 1080],
      "lastMod" : "20200418T002145",
      "sourceTracks" : [
        {
          "range" : [0, 1519774720],
          "type" : 0,
          "editRate" : 10000000,
          "trackRect" : [0, 0, 1920, 1080],
          "sampleRate" : "2000000/67171",
          "bitDepth" : 24,
          "numChannels" : 0,
          "integratedLUFS" : 100.0,
          "peakLevel" : -1.0,
          "metaData" : ""
        },
        {
          "range" : [0, 1519774720],
          "type" : 2,
          "editRate" : 10000000,
          "trackRect" : [0, 0, 0, 0],
          "sampleRate" : 48000,
          "bitDepth" : 16,
          "numChannels" : 2,
          "integratedLUFS" : 0.0,
          "peakLevel" : 2.37678232224425e-05,
          "metaData" : ""
        }
      ],
      "metadata" : {
        "timeAdded" : "20200418T002234.809809"
      }
    },
    {
      "id" : 17,
      "src" : "C:\\Users\\Lynn Dai\\Desktop\\B roll\\(1) San Francisco in 4K - YouTube - Google Chrome 2020-04-17 20-28-00.mp4",
      "rect" : [0, 0, 1920, 1080],
      "lastMod" : "20200418T002826",
      "sourceTracks" : [
        {
          "range" : [0, 265910672],
          "type" : 0,
          "editRate" : 10000000,
          "trackRect" : [0, 0, 1920, 1080],
          "sampleRate" : "78125/2666",
          "bitDepth" : 24,
          "numChannels" : 0,
          "integratedLUFS" : 100.0,
          "peakLevel" : -1.0,
          "metaData" : ""
        },
        {
          "range" : [0, 265910672],
          "type" : 2,
          "editRate" : 10000000,
          "trackRect" : [0, 0, 0, 0],
          "sampleRate" : 48000,
          "bitDepth" : 16,
          "numChannels" : 2,
          "integratedLUFS" : 0.0,
          "peakLevel" : 2.37678232224425e-05,
          "metaData" : ""
        }
      ],
      "metadata" : {
        "timeAdded" : "20200418T003544.362584"
      }
    },
    {
      "id" : 18,
      "src" : "C:\\Users\\Lynn Dai\\Desktop\\B roll\\(1) New York in 4K - YouTube - Google Chrome 2020-04-17 20-50-29.mp4",
      "rect" : [0, 0, 1920, 1080],
      "lastMod" : "20200418T005107",
      "sourceTracks" : [
        {
          "range" : [0, 387393984],
          "type" : 0,
          "editRate" : 10000000,
          "trackRect" : [0, 0, 1920, 1080],
          "sampleRate" : "10000000/334177",
          "bitDepth" : 24,
          "numChannels" : 0,
          "integratedLUFS" : 100.0,
          "peakLevel" : -1.0,
          "metaData" : ""
        },
        {
          "range" : [0, 387393984],
          "type" : 2,
          "editRate" : 10000000,
          "trackRect" : [0, 0, 0, 0],
          "sampleRate" : 48000,
          "bitDepth" : 16,
          "numChannels" : 2,
          "integratedLUFS" : 0.0,
          "peakLevel" : 2.37678232224425e-05,
          "metaData" : ""
        }
      ],
      "metadata" : {
        "timeAdded" : "20200418T005146.978202"
      }
    },
    {
      "id" : 19,
      "src" : "C:\\Users\\Lynn Dai\\Desktop\\B roll\\(1) London in 4K - YouTube - Google Chrome 2020-04-17 20-46-51.mp4",
      "rect" : [0, 0, 1920, 1080],
      "lastMod" : "20200418T004912",
      "sourceTracks" : [
        {
          "range" : [0, 1419764992],
          "type" : 0,
          "editRate" : 10000000,
          "trackRect" : [0, 0, 1920, 1080],
          "sampleRate" : "5000000/167859",
          "bitDepth" : 24,
          "numChannels" : 0,
          "integratedLUFS" : 100.0,
          "peakLevel" : -1.0,
          "metaData" : ""
        },
        {
          "range" : [0, 1419764992],
          "type" : 2,
          "editRate" : 10000000,
          "trackRect" : [0, 0, 0, 0],
          "sampleRate" : 48000,
          "bitDepth" : 16,
          "numChannels" : 2,
          "integratedLUFS" : 0.0,
          "peakLevel" : 2.37678232224425e-05,
          "metaData" : ""
        }
      ],
      "metadata" : {
        "timeAdded" : "20200418T005247.145755"
      }
    },
    {
      "id" : 20,
      "src" : "C:\\Users\\Lynn Dai\\Desktop\\B roll\\Live Platform - Office Analytics animation.mp4",
      "rect" : [0, 0, 1920, 1080],
      "lastMod" : "20200413T151053",
      "sourceTracks" : [
        {
          "range" : [0, 853478656],
          "type" : 0,
          "editRate" : 10000000,
          "trackRect" : [0, 0, 1920, 1080],
          "sampleRate" : "2500000/83403",
          "bitDepth" : 24,
          "numChannels" : 0,
          "integratedLUFS" : 100.0,
          "peakLevel" : -1.0,
          "metaData" : ""
        },
        {
          "range" : [0, 853478656],
          "type" : 2,
          "editRate" : 10000000,
          "trackRect" : [0, 0, 0, 0],
          "sampleRate" : 44100,
          "bitDepth" : 16,
          "numChannels" : 2,
          "integratedLUFS" : 0.0,
          "peakLevel" : 1.95404190890258e-05,
          "metaData" : ""
        }
      ],
      "metadata" : {
        "timeAdded" : "20200418T024437.854995"
      }
    },
    {
      "id" : 21,
      "src" : "C:\\Users\\Lynn Dai\\Desktop\\B roll\\ppl brainstorming ideas tgt & communicating.mp4",
      "rect" : [0, 0, 1920, 1080],
      "lastMod" : "20200413T154826",
      "sourceTracks" : [
        {
          "range" : [0, 798425024],
          "type" : 0,
          "editRate" : 10000000,
          "trackRect" : [0, 0, 1920, 1080],
          "sampleRate" : "10000000/336161",
          "bitDepth" : 24,
          "numChannels" : 0,
          "integratedLUFS" : 100.0,
          "peakLevel" : -1.0,
          "metaData" : ""
        },
        {
          "range" : [0, 798425024],
          "type" : 2,
          "editRate" : 10000000,
          "trackRect" : [0, 0, 0, 0],
          "sampleRate" : 44100,
          "bitDepth" : 16,
          "numChannels" : 2,
          "integratedLUFS" : 0.0,
          "peakLevel" : 1.95404190890258e-05,
          "metaData" : ""
        }
      ],
      "metadata" : {
        "timeAdded" : "20200418T030408.506905"
      }
    },
    {
      "id" : 22,
      "src" : "C:\\Users\\Lynn Dai\\Desktop\\B roll\\Hong Kong Living Office Showroom.mp4",
      "rect" : [0, 0, 1920, 1080],
      "lastMod" : "20200414T164256",
      "sourceTracks" : [
        {
          "range" : [0, 1990704384],
          "type" : 0,
          "editRate" : 10000000,
          "trackRect" : [0, 0, 1920, 1080],
          "sampleRate" : "10000000/334051",
          "bitDepth" : 24,
          "numChannels" : 0,
          "integratedLUFS" : 100.0,
          "peakLevel" : -1.0,
          "metaData" : ""
        },
        {
          "range" : [0, 1990704384],
          "type" : 2,
          "editRate" : 10000000,
          "trackRect" : [0, 0, 0, 0],
          "sampleRate" : 44100,
          "bitDepth" : 16,
          "numChannels" : 2,
          "integratedLUFS" : 0.0,
          "peakLevel" : 1.95404190890258e-05,
          "metaData" : ""
        }
      ],
      "metadata" : {
        "timeAdded" : "20200418T035936.940011"
      }
    },
    {
      "id" : 23,
      "src" : "C:\\Users\\Lynn Dai\\Desktop\\B roll\\small client meetings in dynamic workspaces.mp4",
      "rect" : [0, 0, 1920, 1080],
      "lastMod" : "20200413T151926",
      "sourceTracks" : [
        {
          "range" : [0, 624075328],
          "type" : 0,
          "editRate" : 10000000,
          "trackRect" : [0, 0, 1920, 1080],
          "sampleRate" : "2000000/67647",
          "bitDepth" : 24,
          "numChannels" : 0,
          "integratedLUFS" : 100.0,
          "peakLevel" : -1.0,
          "metaData" : ""
        },
        {
          "range" : [0, 624075328],
          "type" : 2,
          "editRate" : 10000000,
          "trackRect" : [0, 0, 0, 0],
          "sampleRate" : 44100,
          "bitDepth" : 16,
          "numChannels" : 2,
          "integratedLUFS" : 0.0,
          "peakLevel" : 1.95404190890258e-05,
          "metaData" : ""
        }
      ],
      "metadata" : {
        "timeAdded" : "20200418T044538.622641"
      }
    },
    {
      "id" : 24,
      "src" : "C:\\Users\\Lynn Dai\\Desktop\\B roll\\Herman Miller Layout Studio Animation.mp4",
      "rect" : [0, 0, 1920, 1080],
      "lastMod" : "20200414T162717",
      "sourceTracks" : [
        {
          "range" : [0, 972815680],
          "type" : 0,
          "editRate" : 10000000,
          "trackRect" : [0, 0, 1920, 1080],
          "sampleRate" : "5000000/167307",
          "bitDepth" : 24,
          "numChannels" : 0,
          "integratedLUFS" : 100.0,
          "peakLevel" : -1.0,
          "metaData" : ""
        },
        {
          "range" : [0, 972815680],
          "type" : 2,
          "editRate" : 10000000,
          "trackRect" : [0, 0, 0, 0],
          "sampleRate" : 44100,
          "bitDepth" : 16,
          "numChannels" : 2,
          "integratedLUFS" : 0.0,
          "peakLevel" : 1.95404190890258e-05,
          "metaData" : ""
        }
      ],
      "metadata" : {
        "timeAdded" : "20200418T052928.908377"
      }
    },
    {
      "id" : 25,
      "src" : "C:\\Users\\Lynn Dai\\Desktop\\Recording edited(2).mp3",
      "rect" : [0, 0, 0, 0],
      "lastMod" : "20200418T062058",
      "sourceTracks" : [
        {
          "range" : [0, 274808163],
          "type" : 2,
          "editRate" : 10000000,
          "trackRect" : [0, 0, 0, 0],
          "sampleRate" : 44100,
          "bitDepth" : 0,
          "numChannels" : 2,
          "integratedLUFS" : -17.4807595806636,
          "peakLevel" : 0.461814135313034,
          "metaData" : ""
        }
      ],
      "metadata" : {
        "timeAdded" : "20200418T062307.233834"
      }
    },
    {
      "id" : 26,
      "src" : "C:\\Users\\Lynn Dai\\Desktop\\background music tracks\\HM youtube cosm chair video sound.mp3",
      "rect" : [0, 0, 0, 0],
      "lastMod" : "20200414T225842",
      "sourceTracks" : [
        {
          "range" : [0, 854986875],
          "type" : 2,
          "editRate" : 10000000,
          "trackRect" : [0, 0, 0, 0],
          "sampleRate" : 44100,
          "bitDepth" : 0,
          "numChannels" : 2,
          "integratedLUFS" : -23.7190072717302,
          "peakLevel" : 0.470704317092896,
          "metaData" : ""
        }
      ],
      "metadata" : {
        "timeAdded" : "20200418T064503.544833"
      }
    },
    {
      "id" : 27,
      "src" : "C:\\Users\\Lynn Dai\\Desktop\\sentiment.mov",
      "rect" : [0, 0, 1920, 1080],
      "lastMod" : "20200419T181610",
      "sourceTracks" : [
        {
          "range" : [0, 104833336],
          "type" : 0,
          "editRate" : 10000000,
          "trackRect" : [0, 0, 1920, 1080],
          "sampleRate" : "10000000/166667",
          "bitDepth" : 24,
          "numChannels" : 0,
          "integratedLUFS" : 100.0,
          "peakLevel" : -1.0,
          "metaData" : ""
        }
      ],
      "metadata" : {
        "timeAdded" : "20200419T181952.022886"
      }
    },
    {
      "id" : 28,
      "src" : "C:\\Users\\Lynn Dai\\Desktop\\ios.mov",
      "rect" : [0, 0, 1920, 1080],
      "lastMod" : "20200419T185300",
      "sourceTracks" : [
        {
          "range" : [0, 119833336],
          "type" : 0,
          "editRate" : 10000000,
          "trackRect" : [0, 0, 1920, 1080],
          "sampleRate" : "10000000/166667",
          "bitDepth" : 24,
          "numChannels" : 0,
          "integratedLUFS" : 100.0,
          "peakLevel" : -1.0,
          "metaData" : ""
        }
      ],
      "metadata" : {
        "timeAdded" : "20200419T185325.291243"
      }
    },
    {
      "id" : 29,
      "src" : "C:\\Users\\Lynn Dai\\Desktop\\andriod.mov",
      "rect" : [0, 0, 1920, 1080],
      "lastMod" : "20200419T194340",
      "sourceTracks" : [
        {
          "range" : [0, 119833336],
          "type" : 0,
          "editRate" : 10000000,
          "trackRect" : [0, 0, 1920, 1080],
          "sampleRate" : "10000000/166667",
          "bitDepth" : 24,
          "numChannels" : 0,
          "integratedLUFS" : 100.0,
          "peakLevel" : -1.0,
          "metaData" : ""
        }
      ],
      "metadata" : {
        "timeAdded" : "20200419T202959.661450"
      }
    },
    {
      "id" : 30,
      "src" : "C:\\Users\\Lynn Dai\\Desktop\\kiosk.mov",
      "rect" : [0, 0, 1920, 1080],
      "lastMod" : "20200419T205026",
      "sourceTracks" : [
        {
          "range" : [0, 89833336],
          "type" : 0,
          "editRate" : 10000000,
          "trackRect" : [0, 0, 1920, 1080],
          "sampleRate" : "10000000/166667",
          "bitDepth" : 24,
          "numChannels" : 0,
          "integratedLUFS" : 100.0,
          "peakLevel" : -1.0,
          "metaData" : ""
        }
      ],
      "metadata" : {
        "timeAdded" : "20200419T205039.261088"
      }
    },
    {
      "id" : 31,
      "src" : "C:\\Users\\Lynn Dai\\Desktop\\background music tracks\\15.mp3",
      "rect" : [0, 0, 0, 0],
      "lastMod" : "20200414T211630",
      "sourceTracks" : [
        {
          "range" : [0, 1677321250],
          "type" : 2,
          "editRate" : 10000000,
          "trackRect" : [0, 0, 0, 0],
          "sampleRate" : 44100,
          "bitDepth" : 0,
          "numChannels" : 2,
          "integratedLUFS" : -13.9850702681909,
          "peakLevel" : 0.636137306690216,
          "metaData" : ""
        }
      ],
      "metadata" : {
        "timeAdded" : "20200419T211332.125499"
      }
    },
    {
      "id" : 32,
      "src" : "C:\\Users\\Lynn Dai\\Desktop\\Recording (3) edited.mp3",
      "rect" : [0, 0, 0, 0],
      "lastMod" : "20200419T212728",
      "sourceTracks" : [
        {
          "range" : [0, 92734693],
          "type" : 2,
          "editRate" : 10000000,
          "trackRect" : [0, 0, 0, 0],
          "sampleRate" : 44100,
          "bitDepth" : 0,
          "numChannels" : 2,
          "integratedLUFS" : -17.2056096385436,
          "peakLevel" : 0.471072494983673,
          "metaData" : ""
        }
      ],
      "metadata" : {
        "timeAdded" : "20200419T212757.963636"
      }
    },
    {
      "id" : 33,
      "src" : "C:\\Users\\Lynn Dai\\Desktop\\analyticsplatform-admin-add.mov",
      "rect" : [0, 0, 2560, 1600],
      "lastMod" : "20200416T005211",
      "sourceTracks" : [
        {
          "range" : [0, 961611648],
          "type" : 0,
          "editRate" : 10000000,
          "trackRect" : [0, 0, 2560, 1600],
          "sampleRate" : "2000000/33873",
          "bitDepth" : 24,
          "numChannels" : 0,
          "integratedLUFS" : 100.0,
          "peakLevel" : -1.0,
          "metaData" : ""
        }
      ],
      "metadata" : {
        "timeAdded" : "20200419T215504.355667"
      }
    },
    {
      "id" : 34,
      "src" : "C:\\Users\\Lynn Dai\\Desktop\\Recording (22) edited.mp3",
      "rect" : [0, 0, 0, 0],
      "lastMod" : "20200419T215229",
      "sourceTracks" : [
        {
          "range" : [0, 86465306],
          "type" : 2,
          "editRate" : 10000000,
          "trackRect" : [0, 0, 0, 0],
          "sampleRate" : 44100,
          "bitDepth" : 0,
          "numChannels" : 2,
          "integratedLUFS" : -18.3417000304134,
          "peakLevel" : 0.420466423034668,
          "metaData" : ""
        }
      ],
      "metadata" : {
        "timeAdded" : "20200419T215623.418958"
      }
    },
    {
      "id" : 35,
      "src" : "C:\\Users\\Lynn Dai\\Desktop\\Recording (20) edited.mp3",
      "rect" : [0, 0, 0, 0],
      "lastMod" : "20200419T215135",
      "sourceTracks" : [
        {
          "range" : [0, 299363265],
          "type" : 2,
          "editRate" : 10000000,
          "trackRect" : [0, 0, 0, 0],
          "sampleRate" : 44100,
          "bitDepth" : 0,
          "numChannels" : 2,
          "integratedLUFS" : -18.9970680044108,
          "peakLevel" : 0.457272946834564,
          "metaData" : ""
        }
      ],
      "metadata" : {
        "timeAdded" : "20200419T215623.685213"
      }
    },
    {
      "id" : 36,
      "src" : "C:\\Users\\Lynn Dai\\Desktop\\Recording (19) edited.mp3",
      "rect" : [0, 0, 0, 0],
      "lastMod" : "20200419T215026",
      "sourceTracks" : [
        {
          "range" : [0, 121469387],
          "type" : 2,
          "editRate" : 10000000,
          "trackRect" : [0, 0, 0, 0],
          "sampleRate" : 44100,
          "bitDepth" : 0,
          "numChannels" : 2,
          "integratedLUFS" : -18.6505559198375,
          "peakLevel" : 0.445221364498138,
          "metaData" : ""
        }
      ],
      "metadata" : {
        "timeAdded" : "20200419T215623.703211"
      }
    },
    {
      "id" : 37,
      "src" : "C:\\Users\\Lynn Dai\\Desktop\\Recording (18) edited.mp3",
      "rect" : [0, 0, 0, 0],
      "lastMod" : "20200419T214921",
      "sourceTracks" : [
        {
          "range" : [0, 160653061],
          "type" : 2,
          "editRate" : 10000000,
          "trackRect" : [0, 0, 0, 0],
          "sampleRate" : 44100,
          "bitDepth" : 0,
          "numChannels" : 2,
          "integratedLUFS" : -18.4775617733559,
          "peakLevel" : 0.44290354847908,
          "metaData" : ""
        }
      ],
      "metadata" : {
        "timeAdded" : "20200419T215623.721245"
      }
    },
    {
      "id" : 38,
      "src" : "C:\\Users\\Lynn Dai\\Desktop\\Recording (17) edited.mp3",
      "rect" : [0, 0, 0, 0],
      "lastMod" : "20200419T214819",
      "sourceTracks" : [
        {
          "range" : [0, 108408163],
          "type" : 2,
          "editRate" : 10000000,
          "trackRect" : [0, 0, 0, 0],
          "sampleRate" : 44100,
          "bitDepth" : 0,
          "numChannels" : 2,
          "integratedLUFS" : -18.1013183832672,
          "peakLevel" : 0.451100707054138,
          "metaData" : ""
        }
      ],
      "metadata" : {
        "timeAdded" : "20200419T215623.738216"
      }
    },
    {
      "id" : 39,
      "src" : "C:\\Users\\Lynn Dai\\Desktop\\Recording (16) edited.mp3",
      "rect" : [0, 0, 0, 0],
      "lastMod" : "20200419T214716",
      "sourceTracks" : [
        {
          "range" : [0, 273240816],
          "type" : 2,
          "editRate" : 10000000,
          "trackRect" : [0, 0, 0, 0],
          "sampleRate" : 44100,
          "bitDepth" : 0,
          "numChannels" : 2,
          "integratedLUFS" : -18.3168926790317,
          "peakLevel" : 0.445547848939896,
          "metaData" : ""
        }
      ],
      "metadata" : {
        "timeAdded" : "20200419T215623.762212"
      }
    },
    {
      "id" : 40,
      "src" : "C:\\Users\\Lynn Dai\\Desktop\\Recording (15) edited.mp3",
      "rect" : [0, 0, 0, 0],
      "lastMod" : "20200419T214555",
      "sourceTracks" : [
        {
          "range" : [0, 105534693],
          "type" : 2,
          "editRate" : 10000000,
          "trackRect" : [0, 0, 0, 0],
          "sampleRate" : 44100,
          "bitDepth" : 0,
          "numChannels" : 2,
          "integratedLUFS" : -18.0435596399023,
          "peakLevel" : 0.414578139781952,
          "metaData" : ""
        }
      ],
      "metadata" : {
        "timeAdded" : "20200419T215623.780214"
      }
    },
    {
      "id" : 41,
      "src" : "C:\\Users\\Lynn Dai\\Desktop\\Recording (14) edited.mp3",
      "rect" : [0, 0, 0, 0],
      "lastMod" : "20200419T214441",
      "sourceTracks" : [
        {
          "range" : [0, 176065306],
          "type" : 2,
          "editRate" : 10000000,
          "trackRect" : [0, 0, 0, 0],
          "sampleRate" : 44100,
          "bitDepth" : 0,
          "numChannels" : 2,
          "integratedLUFS" : -18.4060804263089,
          "peakLevel" : 0.448371559381485,
          "metaData" : ""
        }
      ],
      "metadata" : {
        "timeAdded" : "20200419T215623.805245"
      }
    },
    {
      "id" : 42,
      "src" : "C:\\Users\\Lynn Dai\\Desktop\\Recording (13) edited.mp3",
      "rect" : [0, 0, 0, 0],
      "lastMod" : "20200419T214337",
      "sourceTracks" : [
        {
          "range" : [0, 364146938],
          "type" : 2,
          "editRate" : 10000000,
          "trackRect" : [0, 0, 0, 0],
          "sampleRate" : 44100,
          "bitDepth" : 0,
          "numChannels" : 2,
          "integratedLUFS" : -17.6106671423327,
          "peakLevel" : 0.475395262241364,
          "metaData" : ""
        }
      ],
      "metadata" : {
        "timeAdded" : "20200419T215623.823209"
      }
    },
    {
      "id" : 43,
      "src" : "C:\\Users\\Lynn Dai\\Desktop\\Recording (12) edited.mp3",
      "rect" : [0, 0, 0, 0],
      "lastMod" : "20200419T214133",
      "sourceTracks" : [
        {
          "range" : [0, 222563265],
          "type" : 2,
          "editRate" : 10000000,
          "trackRect" : [0, 0, 0, 0],
          "sampleRate" : 44100,
          "bitDepth" : 0,
          "numChannels" : 2,
          "integratedLUFS" : -17.1161791782798,
          "peakLevel" : 0.482805579900742,
          "metaData" : ""
        }
      ],
      "metadata" : {
        "timeAdded" : "20200419T215623.849208"
      }
    },
    {
      "id" : 44,
      "src" : "C:\\Users\\Lynn Dai\\Desktop\\Recording (11) edited.mp3",
      "rect" : [0, 0, 0, 0],
      "lastMod" : "20200419T214015",
      "sourceTracks" : [
        {
          "range" : [0, 49893877],
          "type" : 2,
          "editRate" : 10000000,
          "trackRect" : [0, 0, 0, 0],
          "sampleRate" : 44100,
          "bitDepth" : 0,
          "numChannels" : 2,
          "integratedLUFS" : -17.2456049286944,
          "peakLevel" : 0.471326649188995,
          "metaData" : ""
        }
      ],
      "metadata" : {
        "timeAdded" : "20200419T215623.867247"
      }
    },
    {
      "id" : 45,
      "src" : "C:\\Users\\Lynn Dai\\Desktop\\Recording (10) edited.mp3",
      "rect" : [0, 0, 0, 0],
      "lastMod" : "20200419T213917",
      "sourceTracks" : [
        {
          "range" : [0, 149159183],
          "type" : 2,
          "editRate" : 10000000,
          "trackRect" : [0, 0, 0, 0],
          "sampleRate" : 44100,
          "bitDepth" : 0,
          "numChannels" : 2,
          "integratedLUFS" : -17.5824738670306,
          "peakLevel" : 0.453504890203476,
          "metaData" : ""
        }
      ],
      "metadata" : {
        "timeAdded" : "20200419T215623.893244"
      }
    },
    {
      "id" : 46,
      "src" : "C:\\Users\\Lynn Dai\\Desktop\\Recording (9) edited.mp3",
      "rect" : [0, 0, 0, 0],
      "lastMod" : "20200419T213737",
      "sourceTracks" : [
        {
          "range" : [0, 160653061],
          "type" : 2,
          "editRate" : 10000000,
          "trackRect" : [0, 0, 0, 0],
          "sampleRate" : 44100,
          "bitDepth" : 0,
          "numChannels" : 2,
          "integratedLUFS" : -17.4088418590061,
          "peakLevel" : 0.469366818666458,
          "metaData" : ""
        }
      ],
      "metadata" : {
        "timeAdded" : "20200419T215623.913233"
      }
    },
    {
      "id" : 47,
      "src" : "C:\\Users\\Lynn Dai\\Desktop\\Recording (8) edited.mp3",
      "rect" : [0, 0, 0, 0],
      "lastMod" : "20200419T213611",
      "sourceTracks" : [
        {
          "range" : [0, 155167346],
          "type" : 2,
          "editRate" : 10000000,
          "trackRect" : [0, 0, 0, 0],
          "sampleRate" : 44100,
          "bitDepth" : 0,
          "numChannels" : 2,
          "integratedLUFS" : -18.2464001548334,
          "peakLevel" : 0.457763105630875,
          "metaData" : ""
        }
      ],
      "metadata" : {
        "timeAdded" : "20200419T215623.940213"
      }
    },
    {
      "id" : 48,
      "src" : "C:\\Users\\Lynn Dai\\Desktop\\Recording (7) edited.mp3",
      "rect" : [0, 0, 0, 0],
      "lastMod" : "20200419T213446",
      "sourceTracks" : [
        {
          "range" : [0, 144718367],
          "type" : 2,
          "editRate" : 10000000,
          "trackRect" : [0, 0, 0, 0],
          "sampleRate" : 44100,
          "bitDepth" : 0,
          "numChannels" : 2,
          "integratedLUFS" : -17.4663658764206,
          "peakLevel" : 0.459008395671844,
          "metaData" : ""
        }
      ],
      "metadata" : {
        "timeAdded" : "20200419T215623.961245"
      }
    },
    {
      "id" : 49,
      "src" : "C:\\Users\\Lynn Dai\\Desktop\\Recording (6) edited.mp3",
      "rect" : [0, 0, 0, 0],
      "lastMod" : "20200419T213324",
      "sourceTracks" : [
        {
          "range" : [0, 164571428],
          "type" : 2,
          "editRate" : 10000000,
          "trackRect" : [0, 0, 0, 0],
          "sampleRate" : 44100,
          "bitDepth" : 0,
          "numChannels" : 2,
          "integratedLUFS" : -17.4094777190876,
          "peakLevel" : 0.467434853315353,
          "metaData" : ""
        }
      ],
      "metadata" : {
        "timeAdded" : "20200419T215623.983236"
      }
    },
    {
      "id" : 50,
      "src" : "C:\\Users\\Lynn Dai\\Desktop\\Recording (5) edited.mp3",
      "rect" : [0, 0, 0, 0],
      "lastMod" : "20200419T213204",
      "sourceTracks" : [
        {
          "range" : [0, 112587755],
          "type" : 2,
          "editRate" : 10000000,
          "trackRect" : [0, 0, 0, 0],
          "sampleRate" : 44100,
          "bitDepth" : 0,
          "numChannels" : 2,
          "integratedLUFS" : -17.5244891892714,
          "peakLevel" : 0.472724199295044,
          "metaData" : ""
        }
      ],
      "metadata" : {
        "timeAdded" : "20200419T215624.006239"
      }
    },
    {
      "id" : 51,
      "src" : "C:\\Users\\Lynn Dai\\Desktop\\Recording (4) edited.mp3",
      "rect" : [0, 0, 0, 0],
      "lastMod" : "20200419T213040",
      "sourceTracks" : [
        {
          "range" : [0, 103706122],
          "type" : 2,
          "editRate" : 10000000,
          "trackRect" : [0, 0, 0, 0],
          "sampleRate" : 44100,
          "bitDepth" : 0,
          "numChannels" : 2,
          "integratedLUFS" : -17.4008505501422,
          "peakLevel" : 0.452819108963013,
          "metaData" : ""
        }
      ],
      "metadata" : {
        "timeAdded" : "20200419T215624.033245"
      }
    },
    {
      "id" : 52,
      "src" : "C:\\Users\\Lynn Dai\\Desktop\\Recording (21) edited.mp3",
      "rect" : [0, 0, 0, 0],
      "lastMod" : "20200419T215818",
      "sourceTracks" : [
        {
          "range" : [0, 185991836],
          "type" : 2,
          "editRate" : 10000000,
          "trackRect" : [0, 0, 0, 0],
          "sampleRate" : 44100,
          "bitDepth" : 0,
          "numChannels" : 2,
          "integratedLUFS" : -20.5631880281988,
          "peakLevel" : 0.385267108678818,
          "metaData" : ""
        }
      ],
      "metadata" : {
        "timeAdded" : "20200419T215831.075023"
      }
    },
    {
      "id" : 53,
      "src" : "C:\\Users\\Lynn Dai\\Desktop\\analyticsplatform-login.mov",
      "rect" : [0, 0, 2560, 1600],
      "lastMod" : "20200416T005212",
      "sourceTracks" : [
        {
          "range" : [0, 906333312],
          "type" : 0,
          "editRate" : 10000000,
          "trackRect" : [0, 0, 2560, 1600],
          "sampleRate" : "1250000/20841",
          "bitDepth" : 24,
          "numChannels" : 0,
          "integratedLUFS" : 100.0,
          "peakLevel" : -1.0,
          "metaData" : ""
        }
      ],
      "metadata" : {
        "timeAdded" : "20200419T220244.483911"
      }
    },
    {
      "id" : 54,
      "src" : "C:\\Users\\Lynn Dai\\Desktop\\analyticsplatform-admin-edit.mov",
      "rect" : [0, 0, 2560, 1600],
      "lastMod" : "20200416T005211",
      "sourceTracks" : [
        {
          "range" : [0, 553651648],
          "type" : 0,
          "editRate" : 10000000,
          "trackRect" : [0, 0, 2560, 1600],
          "sampleRate" : "5000000/85021",
          "bitDepth" : 24,
          "numChannels" : 0,
          "integratedLUFS" : 100.0,
          "peakLevel" : -1.0,
          "metaData" : ""
        }
      ],
      "metadata" : {
        "timeAdded" : "20200419T223410.936771"
      }
    },
    {
      "id" : 55,
      "src" : "C:\\Users\\Lynn Dai\\Desktop\\website.mov",
      "rect" : [0, 0, 1920, 1080],
      "lastMod" : "20200419T225416",
      "sourceTracks" : [
        {
          "range" : [0, 179833328],
          "type" : 0,
          "editRate" : 10000000,
          "trackRect" : [0, 0, 1920, 1080],
          "sampleRate" : "10000000/166667",
          "bitDepth" : 24,
          "numChannels" : 0,
          "integratedLUFS" : 100.0,
          "peakLevel" : -1.0,
          "metaData" : ""
        }
      ],
      "metadata" : {
        "timeAdded" : "20200419T225442.872734"
      }
    },
    {
      "id" : 56,
      "src" : "C:\\ProgramData\\TechSmith\\Camtasia Studio 19\\Library 4.0\\Camtasia Libraries\\Camtasia 2019\\Intros\\spinningcomputer.asset\\Motion Graphics - Intro Clips - spinningcomputer-91.mp4",
      "rect" : [0, 0, 1920, 1080],
      "lastMod" : "20190205T155848",
      "sourceTracks" : [
        {
          "range" : [0, 229000000],
          "type" : 0,
          "editRate" : 10000000,
          "trackRect" : [0, 0, 1920, 1080],
          "sampleRate" : "10000000/333333",
          "bitDepth" : 24,
          "numChannels" : 0,
          "integratedLUFS" : 100.0,
          "peakLevel" : -1.0,
          "metaData" : ""
        }
      ],
      "metadata" : {
        "assetLibraryId" : "113ccc3d-11c8-4776-9fae-438b2a6334cd",
        "timeAdded" : "20200419T225944.528048"
      }
    },
    {
      "id" : 57,
      "src" : "C:\\Users\\Lynn Dai\\Desktop\\icon.PNG",
      "rect" : [0, 0, 1075, 2083],
      "lastMod" : "20200419T234249",
      "sourceTracks" : [
        {
          "range" : [0, 1],
          "type" : 1,
          "editRate" : 10000000,
          "trackRect" : [0, 0, 1075, 2083],
          "sampleRate" : 0,
          "bitDepth" : 32,
          "numChannels" : 0,
          "integratedLUFS" : 100.0,
          "peakLevel" : -1.0,
          "metaData" : ""
        }
      ],
      "metadata" : {
        "timeAdded" : "20200419T234333.888900"
      }
    },
    {
      "id" : 58,
      "src" : "C:\\Users\\Lynn Dai\\Desktop\\kiosk english.mp4",
      "rect" : [0, 0, 1920, 1052],
      "lastMod" : "20200419T235520",
      "sourceTracks" : [
        {
          "range" : [0, 336733344],
          "type" : 0,
          "editRate" : 10000000,
          "trackRect" : [0, 0, 1920, 1052],
          "sampleRate" : "10000000/332323",
          "bitDepth" : 24,
          "numChannels" : 0,
          "integratedLUFS" : 100.0,
          "peakLevel" : -1.0,
          "metaData" : ""
        },
        {
          "range" : [0, 336733344],
          "type" : 2,
          "editRate" : 10000000,
          "trackRect" : [0, 0, 0, 0],
          "sampleRate" : 48000,
          "bitDepth" : 16,
          "numChannels" : 2,
          "integratedLUFS" : 0.0,
          "peakLevel" : 2.37678232224425e-05,
          "metaData" : ""
        }
      ],
      "metadata" : {
        "timeAdded" : "20200419T235825.680857"
      }
    },
    {
      "id" : 59,
      "src" : "C:\\Users\\Lynn Dai\\Desktop\\spanish kiosk.mp4",
      "rect" : [0, 0, 1920, 1052],
      "lastMod" : "20200420T000748",
      "sourceTracks" : [
        {
          "range" : [0, 128363336],
          "type" : 0,
          "editRate" : 10000000,
          "trackRect" : [0, 0, 1920, 1052],
          "sampleRate" : "400000/13229",
          "bitDepth" : 24,
          "numChannels" : 0,
          "integratedLUFS" : 100.0,
          "peakLevel" : -1.0,
          "metaData" : ""
        },
        {
          "range" : [0, 128363336],
          "type" : 2,
          "editRate" : 10000000,
          "trackRect" : [0, 0, 0, 0],
          "sampleRate" : 48000,
          "bitDepth" : 16,
          "numChannels" : 2,
          "integratedLUFS" : 0.0,
          "peakLevel" : 2.37678232224425e-05,
          "metaData" : ""
        }
      ],
      "metadata" : {
        "timeAdded" : "20200420T000822.590049"
      }
    },
    {
      "id" : 60,
      "src" : "C:\\Users\\Lynn Dai\\Desktop\\kiosk guest mode.mp4",
      "rect" : [0, 0, 1920, 1052],
      "lastMod" : "20200420T001418",
      "sourceTracks" : [
        {
          "range" : [0, 543826688],
          "type" : 0,
          "editRate" : 10000000,
          "trackRect" : [0, 0, 1920, 1052],
          "sampleRate" : "10000000/332599",
          "bitDepth" : 24,
          "numChannels" : 0,
          "integratedLUFS" : 100.0,
          "peakLevel" : -1.0,
          "metaData" : ""
        },
        {
          "range" : [0, 543826688],
          "type" : 2,
          "editRate" : 10000000,
          "trackRect" : [0, 0, 0, 0],
          "sampleRate" : 48000,
          "bitDepth" : 16,
          "numChannels" : 2,
          "integratedLUFS" : 0.0,
          "peakLevel" : 2.37678232224425e-05,
          "metaData" : ""
        }
      ],
      "metadata" : {
        "timeAdded" : "20200420T001453.690787"
      }
    },
    {
      "id" : 61,
      "src" : "C:\\Users\\Lynn Dai\\Desktop\\background music tracks\\13.mp3",
      "rect" : [0, 0, 0, 0],
      "lastMod" : "20200414T210956",
      "sourceTracks" : [
        {
          "range" : [0, 1427068750],
          "type" : 2,
          "editRate" : 10000000,
          "trackRect" : [0, 0, 0, 0],
          "sampleRate" : 44100,
          "bitDepth" : 0,
          "numChannels" : 2,
          "integratedLUFS" : -16.4507384591257,
          "peakLevel" : 0.541248679161072,
          "metaData" : ""
        }
      ],
      "metadata" : {
        "timeAdded" : "20200420T002126.929177"
      }
    },
    {
      "id" : 62,
      "src" : "C:\\Users\\Lynn Dai\\Desktop\\web 2.mov",
      "rect" : [0, 0, 1920, 1080],
      "lastMod" : "20200420T002440",
      "sourceTracks" : [
        {
          "range" : [0, 60850000],
          "type" : 0,
          "editRate" : 10000000,
          "trackRect" : [0, 0, 1920, 1080],
          "sampleRate" : "10000000/169499",
          "bitDepth" : 24,
          "numChannels" : 0,
          "integratedLUFS" : 100.0,
          "peakLevel" : -1.0,
          "metaData" : ""
        }
      ],
      "metadata" : {
        "timeAdded" : "20200420T002523.074198"
      }
    },
    {
      "id" : 63,
      "src" : "C:\\Users\\Lynn Dai\\Desktop\\new client.png",
      "rect" : [0, 0, 1920, 1080],
      "lastMod" : "20200420T003659",
      "sourceTracks" : [
        {
          "range" : [0, 1],
          "type" : 1,
          "editRate" : 10000000,
          "trackRect" : [0, 0, 1920, 1080],
          "sampleRate" : 0,
          "bitDepth" : 32,
          "numChannels" : 0,
          "integratedLUFS" : 100.0,
          "peakLevel" : -1.0,
          "metaData" : ""
        }
      ],
      "metadata" : {
        "timeAdded" : "20200420T003755.899057"
      }
    },
    {
      "id" : 64,
      "src" : "C:\\Users\\Lynn Dai\\Desktop\\empty.png",
      "rect" : [0, 0, 1920, 1080],
      "lastMod" : "20200420T004006",
      "sourceTracks" : [
        {
          "range" : [0, 1],
          "type" : 1,
          "editRate" : 10000000,
          "trackRect" : [0, 0, 1920, 1080],
          "sampleRate" : 0,
          "bitDepth" : 32,
          "numChannels" : 0,
          "integratedLUFS" : 100.0,
          "peakLevel" : -1.0,
          "metaData" : ""
        }
      ],
      "metadata" : {
        "timeAdded" : "20200420T004019.382584"
      }
    },
    {
      "id" : 65,
      "src" : "C:\\Users\\Lynn Dai\\Desktop\\team.png",
      "rect" : [0, 0, 1920, 1080],
      "lastMod" : "20200420T003712",
      "sourceTracks" : [
        {
          "range" : [0, 1],
          "type" : 1,
          "editRate" : 10000000,
          "trackRect" : [0, 0, 1920, 1080],
          "sampleRate" : 0,
          "bitDepth" : 32,
          "numChannels" : 0,
          "integratedLUFS" : 100.0,
          "peakLevel" : -1.0,
          "metaData" : ""
        }
      ],
      "metadata" : {
        "timeAdded" : "20200420T004409.540432"
      }
    },
    {
      "id" : 66,
      "src" : "C:\\Users\\Lynn Dai\\Desktop\\feedback.png",
      "rect" : [0, 0, 1920, 1080],
      "lastMod" : "20200420T003723",
      "sourceTracks" : [
        {
          "range" : [0, 1],
          "type" : 1,
          "editRate" : 10000000,
          "trackRect" : [0, 0, 1920, 1080],
          "sampleRate" : 0,
          "bitDepth" : 32,
          "numChannels" : 0,
          "integratedLUFS" : 100.0,
          "peakLevel" : -1.0,
          "metaData" : ""
        }
      ],
      "metadata" : {
        "timeAdded" : "20200420T004627.496531"
      }
    },
    {
      "id" : 67,
      "src" : "C:\\Users\\Lynn Dai\\Desktop\\workspaces.png",
      "rect" : [0, 0, 1920, 1080],
      "lastMod" : "20200420T003734",
      "sourceTracks" : [
        {
          "range" : [0, 1],
          "type" : 1,
          "editRate" : 10000000,
          "trackRect" : [0, 0, 1920, 1080],
          "sampleRate" : 0,
          "bitDepth" : 32,
          "numChannels" : 0,
          "integratedLUFS" : 100.0,
          "peakLevel" : -1.0,
          "metaData" : ""
        }
      ],
      "metadata" : {
        "timeAdded" : "20200420T005619.258484"
      }
    },
    {
      "id" : 68,
      "src" : "C:\\Users\\Lynn Dai\\Desktop\\android 2.mov",
      "rect" : [0, 0, 1920, 1080],
      "lastMod" : "20200420T043958",
      "sourceTracks" : [
        {
          "range" : [0, 89833336],
          "type" : 0,
          "editRate" : 10000000,
          "trackRect" : [0, 0, 1920, 1080],
          "sampleRate" : "10000000/166667",
          "bitDepth" : 24,
          "numChannels" : 0,
          "integratedLUFS" : 100.0,
          "peakLevel" : -1.0,
          "metaData" : ""
        }
      ],
      "metadata" : {
        "timeAdded" : "20200420T044018.156452"
      }
    },
    {
      "id" : 69,
      "src" : "C:\\Users\\Lynn Dai\\Desktop\\systen-architecture-v2.png",
      "rect" : [0, 0, 1772, 882],
      "lastMod" : "20200419T153713",
      "sourceTracks" : [
        {
          "range" : [0, 1],
          "type" : 1,
          "editRate" : 10000000,
          "trackRect" : [0, 0, 1772, 882],
          "sampleRate" : 0,
          "bitDepth" : 32,
          "numChannels" : 0,
          "integratedLUFS" : 100.0,
          "peakLevel" : -1.0,
          "metaData" : ""
        }
      ],
      "metadata" : {
        "timeAdded" : "20200420T051354.261010"
      }
    },
    {
      "id" : 70,
      "src" : "C:\\Users\\Lynn Dai\\Desktop\\iOS-CreateAnAccount-2.MP4",
      "rect" : [0, 0, 396, 858],
      "lastMod" : "20200420T052107",
      "sourceTracks" : [
        {
          "range" : [0, 221833328],
          "type" : 0,
          "editRate" : 10000000,
          "trackRect" : [0, 0, 396, 858],
          "sampleRate" : "10000000/338161",
          "bitDepth" : 24,
          "numChannels" : 0,
          "integratedLUFS" : 100.0,
          "peakLevel" : -1.0,
          "metaData" : ""
        },
        {
          "range" : [0, 221833328],
          "type" : 2,
          "editRate" : 10000000,
          "trackRect" : [0, 0, 0, 0],
          "sampleRate" : 44100,
          "bitDepth" : 16,
          "numChannels" : 1,
          "integratedLUFS" : 0.0,
          "peakLevel" : 0.0,
          "metaData" : ""
        }
      ],
      "metadata" : {
        "timeAdded" : "20200420T052152.251727"
      }
    },
    {
      "id" : 71,
      "src" : "C:\\Users\\Lynn Dai\\Desktop\\iOS-Stats-4.MP4",
      "rect" : [0, 0, 396, 858],
      "lastMod" : "20200420T052058",
      "sourceTracks" : [
        {
          "range" : [0, 278500000],
          "type" : 0,
          "editRate" : 10000000,
          "trackRect" : [0, 0, 396, 858],
          "sampleRate" : "2000000/67597",
          "bitDepth" : 24,
          "numChannels" : 0,
          "integratedLUFS" : 100.0,
          "peakLevel" : -1.0,
          "metaData" : ""
        },
        {
          "range" : [0, 278500000],
          "type" : 2,
          "editRate" : 10000000,
          "trackRect" : [0, 0, 0, 0],
          "sampleRate" : 44100,
          "bitDepth" : 16,
          "numChannels" : 1,
          "integratedLUFS" : 0.0,
          "peakLevel" : 0.0,
          "metaData" : ""
        }
      ],
      "metadata" : {
        "timeAdded" : "20200420T052638.472528"
      }
    },
    {
      "id" : 72,
      "src" : "C:\\Users\\Lynn Dai\\Desktop\\iOS-RewardMessage-5.MP4",
      "rect" : [0, 0, 396, 858],
      "lastMod" : "20200420T052048",
      "sourceTracks" : [
        {
          "range" : [0, 98500000],
          "type" : 0,
          "editRate" : 10000000,
          "trackRect" : [0, 0, 396, 858],
          "sampleRate" : "1250000/42311",
          "bitDepth" : 24,
          "numChannels" : 0,
          "integratedLUFS" : 100.0,
          "peakLevel" : -1.0,
          "metaData" : ""
        },
        {
          "range" : [0, 98500000],
          "type" : 2,
          "editRate" : 10000000,
          "trackRect" : [0, 0, 0, 0],
          "sampleRate" : 44100,
          "bitDepth" : 16,
          "numChannels" : 1,
          "integratedLUFS" : 0.0,
          "peakLevel" : 0.0,
          "metaData" : ""
        }
      ],
      "metadata" : {
        "timeAdded" : "20200420T052639.075578"
      }
    },
    {
      "id" : 73,
      "src" : "C:\\Users\\Lynn Dai\\Desktop\\iOS-Submissions-noKeyboardEdit-3.mp4",
      "rect" : [0, 0, 1920, 1080],
      "lastMod" : "20200419T154848",
      "sourceTracks" : [
        {
          "range" : [0, 336669664],
          "type" : 2,
          "editRate" : 10000000,
          "trackRect" : [0, 0, 0, 0],
          "sampleRate" : 48000,
          "bitDepth" : 16,
          "numChannels" : 2,
          "integratedLUFS" : 0.0,
          "peakLevel" : 0.0,
          "metaData" : ""
        },
        {
          "range" : [0, 336669664],
          "type" : 0,
          "editRate" : 10000000,
          "trackRect" : [0, 0, 1920, 1080],
          "sampleRate" : "10000000/333667",
          "bitDepth" : 24,
          "numChannels" : 0,
          "integratedLUFS" : 100.0,
          "peakLevel" : -1.0,
          "metaData" : ""
        }
      ],
      "metadata" : {
        "timeAdded" : "20200420T053526.517071"
      }
    },
    {
      "id" : 74,
      "src" : "C:\\Users\\Lynn Dai\\Desktop\\iOS-Notification-6.MP4",
      "rect" : [0, 0, 396, 858],
      "lastMod" : "20200419T154748",
      "sourceTracks" : [
        {
          "range" : [0, 291333344],
          "type" : 0,
          "editRate" : 10000000,
          "trackRect" : [0, 0, 396, 858],
          "sampleRate" : "5000000/168791",
          "bitDepth" : 24,
          "numChannels" : 0,
          "integratedLUFS" : 100.0,
          "peakLevel" : -1.0,
          "metaData" : ""
        },
        {
          "range" : [0, 291333344],
          "type" : 2,
          "editRate" : 10000000,
          "trackRect" : [0, 0, 0, 0],
          "sampleRate" : 44100,
          "bitDepth" : 16,
          "numChannels" : 1,
          "integratedLUFS" : 0.0,
          "peakLevel" : 0.0,
          "metaData" : ""
        }
      ],
      "metadata" : {
        "timeAdded" : "20200420T055947.153069"
      }
    },
    {
      "id" : 75,
      "src" : "C:\\Users\\Lynn Dai\\Desktop\\analyticsplatofrm-overviewworkspace.mov",
      "rect" : [0, 0, 2560, 1600],
      "lastMod" : "20200416T005213",
      "sourceTracks" : [
        {
          "range" : [0, 1378000000],
          "type" : 0,
          "editRate" : 10000000,
          "trackRect" : [0, 0, 2560, 1600],
          "sampleRate" : "10000000/177047",
          "bitDepth" : 24,
          "numChannels" : 0,
          "integratedLUFS" : 100.0,
          "peakLevel" : -1.0,
          "metaData" : ""
        }
      ],
      "metadata" : {
        "timeAdded" : "20200420T061300.273072"
      }
    },
    {
      "id" : 76,
      "src" : "C:\\Users\\Lynn Dai\\Desktop\\background music tracks\\11.mp3",
      "rect" : [0, 0, 0, 0],
      "lastMod" : "20200414T210230",
      "sourceTracks" : [
        {
          "range" : [0, 1245517500],
          "type" : 2,
          "editRate" : 10000000,
          "trackRect" : [0, 0, 0, 0],
          "sampleRate" : 44100,
          "bitDepth" : 0,
          "numChannels" : 2,
          "integratedLUFS" : -15.6594913790056,
          "peakLevel" : 0.521778702735901,
          "metaData" : ""
        }
      ],
      "metadata" : {
        "timeAdded" : "20200420T064134.196237"
      }
    },
    {
      "id" : 77,
      "src" : "C:\\Users\\Lynn Dai\\Desktop\\background music tracks\\17.mp3",
      "rect" : [0, 0, 0, 0],
      "lastMod" : "20200414T212515",
      "sourceTracks" : [
        {
          "range" : [0, 1681501250],
          "type" : 2,
          "editRate" : 10000000,
          "trackRect" : [0, 0, 0, 0],
          "sampleRate" : 44100,
          "bitDepth" : 0,
          "numChannels" : 2,
          "integratedLUFS" : -15.7739229001938,
          "peakLevel" : 0.58273309469223,
          "metaData" : ""
        }
      ],
      "metadata" : {
        "timeAdded" : "20200420T065109.887533"
      }
    },
    {
      "id" : 78,
      "src" : "C:\\Users\\Lynn Dai\\Desktop\\(1) 4 - Free Looping World Globe in 4K Download With Alpha Channel - YouTube - Google Chrome 2020-04-20 03-32-29.mp4",
      "rect" : [0, 0, 1920, 1080],
      "lastMod" : "20200420T073241",
      "sourceTracks" : [
        {
          "range" : [0, 139336336],
          "type" : 0,
          "editRate" : 10000000,
          "trackRect" : [0, 0, 1920, 1080],
          "sampleRate" : "2000000/70207",
          "bitDepth" : 24,
          "numChannels" : 0,
          "integratedLUFS" : 100.0,
          "peakLevel" : -1.0,
          "metaData" : ""
        },
        {
          "range" : [0, 139336336],
          "type" : 2,
          "editRate" : 10000000,
          "trackRect" : [0, 0, 0, 0],
          "sampleRate" : 48000,
          "bitDepth" : 16,
          "numChannels" : 2,
          "integratedLUFS" : 0.0,
          "peakLevel" : 2.37678232224425e-05,
          "metaData" : ""
        }
      ],
      "metadata" : {
        "timeAdded" : "20200420T073320.471254"
      }
    },
    {
      "id" : 79,
      "src" : "C:\\Users\\Lynn Dai\\Desktop\\sponsor-logo.png",
      "rect" : [0, 0, 1760, 422],
      "lastMod" : "20200420T075317",
      "sourceTracks" : [
        {
          "range" : [0, 1],
          "type" : 1,
          "editRate" : 10000000,
          "trackRect" : [0, 0, 1760, 422],
          "sampleRate" : 0,
          "bitDepth" : 32,
          "numChannels" : 0,
          "integratedLUFS" : 100.0,
          "peakLevel" : -1.0,
          "metaData" : ""
        }
      ],
      "metadata" : {
        "timeAdded" : "20200420T075355.693987"
      }
    },
    {
      "id" : 80,
      "src" : "C:\\Users\\Lynn Dai\\Desktop\\Job search 2020\\Michigan_State_Athletics_logo.svg.png",
      "rect" : [0, 0, 1200, 1383],
      "lastMod" : "20200329T211647",
      "sourceTracks" : [
        {
          "range" : [0, 1],
          "type" : 1,
          "editRate" : 10000000,
          "trackRect" : [0, 0, 1200, 1383],
          "sampleRate" : 0,
          "bitDepth" : 32,
          "numChannels" : 0,
          "integratedLUFS" : 100.0,
          "peakLevel" : -1.0,
          "metaData" : ""
        }
      ],
      "metadata" : {
        "timeAdded" : "20200420T080506.684774"
      }
    },
    {
      "id" : 81,
      "src" : "C:\\Users\\Lynn Dai\\Desktop\\hm team photo.jpg",
      "rect" : [0, 0, 1353, 902],
      "lastMod" : "20200420T081322",
      "sourceTracks" : [
        {
          "range" : [0, 1],
          "type" : 1,
          "editRate" : 10000000,
          "trackRect" : [0, 0, 1353, 902],
          "sampleRate" : 0,
          "bitDepth" : 24,
          "numChannels" : 0,
          "integratedLUFS" : 100.0,
          "peakLevel" : -1.0,
          "metaData" : ""
        }
      ],
      "metadata" : {
        "timeAdded" : "20200420T081353.373140"
      }
    }
  ],
  "timeline" : {
    "id" : 82,
    "sceneTrack" : {
      "scenes" : [
        {
          "duration" : 700.783333333333,
          "title" : "",
          "type" : "",
          "csml" : {
            "tracks" : [
              {
                "trackIndex" : 0,
                "medias" : [
                  {
                    "id" : 83,
                    "_type" : "AMFile",
                    "src" : 10,
                    "trackNumber" : 0,
                    "attributes" : {
                      "ident" : "HM youtube canvas office sound",
                      "gain" : 1.0,
                      "mixToMono" : false
                    },
                      "channelNumber" : "0,1",
                    "parameters" : {
                      "volume" : 0.67032967032967
                    },
                    "effects" : [

                    ],
                    "start" : 0,
                    "duration" : 159,
                    "mediaStart" : 179,
                    "mediaDuration" : 159,
                    "scalar" : 1,
                    "metadata" : {
                      "clipSpeedAttribute" : false
                    },
                    "animationTracks" : {

                    }
                  },
                  {
                    "id" : 84,
                    "_type" : "AMFile",
                    "src" : 10,
                    "trackNumber" : 0,
                    "attributes" : {
                      "ident" : "HM youtube canvas office sound",
                      "gain" : 1.0,
                      "mixToMono" : false
                    },
                      "channelNumber" : "0,1",
                    "parameters" : {
                      "volume" : 0.384615384615385
                    },
                    "effects" : [

                    ],
                    "start" : 159,
                    "duration" : 2148,
                    "mediaStart" : 338,
                    "mediaDuration" : 2148,
                    "scalar" : 1,
                    "metadata" : {
                      "clipSpeedAttribute" : false
                    },
                    "animationTracks" : {

                    }
                  },
                  {
                    "id" : 85,
                    "_type" : "StitchedMedia",
                    "minMediaStart" : 0,
                    "attributes" : {
                      "ident" : "track 5",
                      "gain" : 1.0,
                      "mixToMono" : false
                    },
                    "parameters" : {
                      "volume" : 0.659340659340656,
                      "cursorOpacity" : 1.0,
                      "cursorScale" : 1.0
                    },
                    "medias" : [
                        {
                          "id" : 86,
                          "_type" : "AMFile",
                          "src" : 8,
                          "trackNumber" : 0,
                          "attributes" : {
                            "ident" : "track 5",
                            "gain" : 1.0,
                            "mixToMono" : false
                          },
                            "channelNumber" : "0,1",
                          "effects" : [

                          ],
                          "start" : 0,
                          "duration" : 1,
                          "mediaStart" : 0,
                          "mediaDuration" : 1,
                          "scalar" : 1,
                          "metadata" : {
                            "clipSpeedAttribute" : false
                          },
                          "animationTracks" : {

                          }
                        },
                        {
                          "id" : 87,
                          "_type" : "AMFile",
                          "src" : 8,
                          "trackNumber" : 0,
                          "attributes" : {
                            "ident" : "track 5",
                            "gain" : 1.0,
                            "mixToMono" : false
                          },
                            "channelNumber" : "0,1",
                          "effects" : [

                          ],
                          "start" : 1,
                          "duration" : 8307,
                          "mediaStart" : 217,
                          "mediaDuration" : 8307,
                          "scalar" : 1,
                          "metadata" : {
                            "clipSpeedAttribute" : false
                          },
                          "animationTracks" : {

                          }
                        },
                        {
                          "id" : 88,
                          "_type" : "AMFile",
                          "src" : 8,
                          "trackNumber" : 0,
                          "attributes" : {
                            "ident" : "track 5",
                            "gain" : 1.0,
                            "mixToMono" : false
                          },
                            "channelNumber" : "0,1",
                          "effects" : [

                          ],
                          "start" : 8308,
                          "duration" : 2558,
                          "mediaStart" : 8564,
                          "mediaDuration" : 2558,
                          "scalar" : 1,
                          "metadata" : {
                            "clipSpeedAttribute" : false
                          },
                          "animationTracks" : {

                          }
                        }
                    ],
                    "effects" : [

                    ],
                    "start" : 2307,
                    "duration" : 8294,
                    "mediaStart" : 0,
                    "mediaDuration" : 8294,
                    "scalar" : 1,
                    "metadata" : {
                      "clipSpeedAttribute" : false
                    },
                    "animationTracks" : {

                    }
                  },
                  {
                    "id" : 89,
                    "_type" : "AMFile",
                    "src" : 26,
                    "trackNumber" : 0,
                    "attributes" : {
                      "ident" : "HM youtube cosm chair video sound",
                      "gain" : 1.0,
                      "mixToMono" : false
                    },
                      "channelNumber" : "0,1",
                    "parameters" : {
                      "volume" : 1.81632653061224
                    },
                    "effects" : [

                    ],
                    "start" : 10601,
                    "duration" : 2184,
                    "mediaStart" : 1209,
                    "mediaDuration" : 2184,
                    "scalar" : 1,
                    "metadata" : {
                      "clipSpeedAttribute" : false
                    },
                    "animationTracks" : {

                    }
                  },
                  {
                    "id" : 90,
                    "_type" : "AMFile",
                    "src" : 31,
                    "trackNumber" : 0,
                    "attributes" : {
                      "ident" : "15",
                      "gain" : 1.0,
                      "mixToMono" : false
                    },
                      "channelNumber" : "0,1",
                    "parameters" : {
                      "volume" : 0.274725274725272
                    },
                    "effects" : [

                    ],
                    "start" : 12785,
                    "duration" : 9494,
                    "mediaStart" : 207,
                    "mediaDuration" : 9494,
                    "scalar" : 1,
                    "metadata" : {
                      "clipSpeedAttribute" : false
                    },
                    "animationTracks" : {

                    }
                  },
                  {
                    "id" : 91,
                    "_type" : "AMFile",
                    "src" : 61,
                    "trackNumber" : 0,
                    "attributes" : {
                      "ident" : "13",
                      "gain" : 1.0,
                      "mixToMono" : false
                    },
                      "channelNumber" : "0,1",
                    "parameters" : {
                      "volume" : 0.23076923076923
                    },
                    "effects" : [

                    ],
                    "start" : 22279,
                    "duration" : 8220,
                    "mediaStart" : 227,
                    "mediaDuration" : 8220,
                    "scalar" : 1,
                    "metadata" : {
                      "clipSpeedAttribute" : false
                    },
                    "animationTracks" : {

                    }
                  },
                  {
                    "id" : 92,
                    "_type" : "StitchedMedia",
                    "minMediaStart" : 0,
                    "attributes" : {
                      "ident" : "11",
                      "gain" : 1.0,
                      "mixToMono" : false
                    },
                    "parameters" : {
                      "volume" : 0.329670329670327,
                      "cursorOpacity" : 1.0,
                      "cursorScale" : 1.0
                    },
                    "medias" : [
                        {
                          "id" : 93,
                          "_type" : "AMFile",
                          "src" : 76,
                          "trackNumber" : 0,
                          "attributes" : {
                            "ident" : "11",
                            "gain" : 1.0,
                            "mixToMono" : false
                          },
                            "channelNumber" : "0,1",
                          "effects" : [

                          ],
                          "start" : 0,
                          "duration" : 6847,
                          "mediaStart" : 0,
                          "mediaDuration" : 6847,
                          "scalar" : 1,
                          "metadata" : {
                            "clipSpeedAttribute" : false
                          },
                          "animationTracks" : {

                          }
                        },
                        {
                          "id" : 94,
                          "_type" : "AMFile",
                          "src" : 76,
                          "trackNumber" : 0,
                          "attributes" : {
                            "ident" : "11",
                            "gain" : 1.0,
                            "mixToMono" : false
                          },
                            "channelNumber" : "0,1",
                          "effects" : [

                          ],
                          "start" : 6847,
                          "duration" : 6992,
                          "mediaStart" : 481,
                          "mediaDuration" : 6992,
                          "scalar" : 1,
                          "metadata" : {
                            "clipSpeedAttribute" : false
                          },
                          "animationTracks" : {

                          }
                        }
                    ],
                    "effects" : [

                    ],
                    "start" : 30499,
                    "duration" : 11548,
                    "mediaStart" : 231,
                    "mediaDuration" : 11548,
                    "scalar" : 1,
                    "metadata" : {
                      "clipSpeedAttribute" : false
                    },
                    "animationTracks" : {

                    }
                  }
                ]
              },
              {
                "trackIndex" : 1,
                "medias" : [
                  {
                    "id" : 95,
                    "_type" : "UnifiedMedia",
                    "video" : 
                        {
                          "id" : 96,
                          "_type" : "VMFile",
                          "src" : 1,
                          "trackNumber" : 0,
                          "attributes" : {
                            "ident" : "Living Office with Herman Miller(good for Ryan part)"
                          },
                          "effects" : [

                          ],
                          "start" : 0,
                          "duration" : 99,
                          "mediaStart" : 246,
                          "mediaDuration" : "912384/10759",
                          "scalar" : "10759/9216",
                          "animationTracks" : {

                          }
                        },
                    "audio" : 
                        {
                          "id" : 97,
                          "_type" : "AMFile",
                          "src" : 1,
                          "trackNumber" : 1,
                          "attributes" : {
                            "ident" : "",
                            "gain" : 1.0,
                            "mixToMono" : false
                          },
                            "channelNumber" : "0,1",
                          "effects" : [

                          ],
                          "start" : 0,
                          "duration" : 99,
                          "mediaStart" : 246,
                          "mediaDuration" : "912384/10759",
                          "scalar" : "10759/9216",
                          "animationTracks" : {

                          }
                        }
,
                    "start" : 0,
                    "duration" : 99,
                    "mediaStart" : 0,
                    "mediaDuration" : 13138,
                    "scalar" : "10759/9216",
                    "metadata" : {
                      "clipSpeedAttribute" : true,
                      "default-translation0" : 0.0
                    }
                  },
                  {
                    "id" : 98,
                    "_type" : "UnifiedMedia",
                    "video" : 
                        {
                          "id" : 99,
                          "_type" : "VMFile",
                          "src" : 1,
                          "trackNumber" : 0,
                          "attributes" : {
                            "ident" : "Living Office with Herman Miller(good for Ryan part)"
                          },
                          "effects" : [

                          ],
                          "start" : 99,
                          "duration" : 60,
                          "mediaStart" : 13000,
                          "mediaDuration" : "1560/29",
                          "scalar" : "29/26",
                          "animationTracks" : {

                          }
                        },
                    "audio" : 
                        {
                          "id" : 100,
                          "_type" : "AMFile",
                          "src" : 1,
                          "trackNumber" : 1,
                          "attributes" : {
                            "ident" : "",
                            "gain" : 1.0,
                            "mixToMono" : false
                          },
                            "channelNumber" : "0,1",
                          "parameters" : {
                            "volume" : 0.0549450549450549
                          },
                          "effects" : [

                          ],
                          "start" : 99,
                          "duration" : 60,
                          "mediaStart" : 13000,
                          "mediaDuration" : "1560/29",
                          "scalar" : "29/26",
                          "animationTracks" : {

                          }
                        }
,
                    "start" : 99,
                    "duration" : 60,
                    "mediaStart" : 0,
                    "mediaDuration" : 13138,
                    "scalar" : "29/26",
                    "metadata" : {
                      "clipSpeedAttribute" : true,
                      "default-scale0" : 1.0,
                      "default-scale1" : 1.0,
                      "default-translation0" : 0.0,
                      "default-translation1" : 0.0
                    }
                  },
                  {
                    "id" : 101,
                    "_type" : "UnifiedMedia",
                    "video" : 
                        {
                          "id" : 102,
                          "_type" : "VMFile",
                          "src" : 6,
                          "trackNumber" : 0,
                          "attributes" : {
                            "ident" : "108 Years of Herman Miller (in 108 Seconds) "
                          },
                          "effects" : [

                          ],
                          "start" : 159,
                          "duration" : 298,
                          "mediaStart" : 656,
                          "mediaDuration" : 164,
                          "scalar" : "149/82",
                          "animationTracks" : {

                          }
                        },
                    "audio" : 
                        {
                          "id" : 103,
                          "_type" : "AMFile",
                          "src" : 6,
                          "trackNumber" : 1,
                          "attributes" : {
                            "ident" : "",
                            "gain" : 1.0,
                            "mixToMono" : false
                          },
                            "channelNumber" : "0,1",
                          "effects" : [

                          ],
                          "start" : 159,
                          "duration" : 298,
                          "mediaStart" : 656,
                          "mediaDuration" : 164,
                          "scalar" : "149/82",
                          "animationTracks" : {

                          }
                        }
,
                    "start" : 159,
                    "duration" : 298,
                    "mediaStart" : 0,
                    "mediaDuration" : 7576,
                    "scalar" : "149/82",
                    "metadata" : {
                      "clipSpeedAttribute" : true
                    }
                  },
                  {
                    "id" : 104,
                    "_type" : "UnifiedMedia",
                    "video" : 
                        {
                          "id" : 105,
                          "_type" : "VMFile",
                          "src" : 6,
                          "trackNumber" : 0,
                          "attributes" : {
                            "ident" : "108 Years of Herman Miller (in 108 Seconds) "
                          },
                          "effects" : [

                          ],
                          "start" : 457,
                          "duration" : 242,
                          "mediaStart" : 3198,
                          "mediaDuration" : 242,
                          "scalar" : 1,
                          "animationTracks" : {

                          }
                        },
                    "audio" : 
                        {
                          "id" : 106,
                          "_type" : "AMFile",
                          "src" : 6,
                          "trackNumber" : 1,
                          "attributes" : {
                            "ident" : "",
                            "gain" : 1.0,
                            "mixToMono" : false
                          },
                            "channelNumber" : "0,1",
                          "effects" : [

                          ],
                          "start" : 457,
                          "duration" : 242,
                          "mediaStart" : 3198,
                          "mediaDuration" : 242,
                          "scalar" : 1,
                          "animationTracks" : {

                          }
                        }
,
                    "start" : 457,
                    "duration" : 242,
                    "mediaStart" : 0,
                    "mediaDuration" : 7576,
                    "scalar" : 1,
                    "metadata" : {
                      "clipSpeedAttribute" : false
                    }
                  },
                  {
                    "id" : 107,
                    "_type" : "UnifiedMedia",
                    "video" : 
                        {
                          "id" : 108,
                          "_type" : "VMFile",
                          "src" : 6,
                          "trackNumber" : 0,
                          "attributes" : {
                            "ident" : "108 Years of Herman Miller (in 108 Seconds) "
                          },
                          "effects" : [

                          ],
                          "start" : 699,
                          "duration" : 298,
                          "mediaStart" : 6658,
                          "mediaDuration" : 268,
                          "scalar" : "149/134",
                          "animationTracks" : {

                          }
                        },
                    "audio" : 
                        {
                          "id" : 109,
                          "_type" : "AMFile",
                          "src" : 6,
                          "trackNumber" : 1,
                          "attributes" : {
                            "ident" : "",
                            "gain" : 1.0,
                            "mixToMono" : false
                          },
                            "channelNumber" : "0,1",
                          "effects" : [

                          ],
                          "start" : 699,
                          "duration" : 298,
                          "mediaStart" : 6658,
                          "mediaDuration" : 268,
                          "scalar" : "149/134",
                          "animationTracks" : {

                          }
                        }
,
                    "start" : 699,
                    "duration" : 298,
                    "mediaStart" : 0,
                    "mediaDuration" : 7576,
                    "scalar" : "149/134",
                    "metadata" : {
                      "clipSpeedAttribute" : true
                    }
                  },
                  {
                    "id" : 110,
                    "_type" : "UnifiedMedia",
                    "video" : 
                        {
                          "id" : 111,
                          "_type" : "VMFile",
                          "src" : 6,
                          "trackNumber" : 0,
                          "attributes" : {
                            "ident" : "108 Years of Herman Miller (in 108 Seconds) "
                          },
                          "effects" : [

                          ],
                          "start" : 997,
                          "duration" : 433,
                          "mediaStart" : "1926688/433",
                          "mediaDuration" : 346,
                          "scalar" : "433/346",
                          "animationTracks" : {

                          }
                        },
                    "audio" : 
                        {
                          "id" : 112,
                          "_type" : "AMFile",
                          "src" : 6,
                          "trackNumber" : 1,
                          "attributes" : {
                            "ident" : "",
                            "gain" : 1.0,
                            "mixToMono" : false
                          },
                            "channelNumber" : "0,1",
                          "effects" : [

                          ],
                          "start" : 997,
                          "duration" : 433,
                          "mediaStart" : "1926688/433",
                          "mediaDuration" : 346,
                          "scalar" : "433/346",
                          "animationTracks" : {

                          }
                        }
,
                    "start" : 997,
                    "duration" : 433,
                    "mediaStart" : 0,
                    "mediaDuration" : 7576,
                    "scalar" : "433/346",
                    "metadata" : {
                      "clipSpeedAttribute" : true,
                      "default-scale0" : 1.0,
                      "default-scale1" : 1.0,
                      "default-translation0" : 0.0,
                      "default-translation1" : 0.0
                    }
                  },
                  {
                    "id" : 113,
                    "_type" : "UnifiedMedia",
                    "video" : 
                        {
                          "id" : 114,
                          "_type" : "VMFile",
                          "src" : 4,
                          "trackNumber" : 0,
                          "attributes" : {
                            "ident" : "Ryan Anderson of Herman Miller at Techonomy 2012"
                          },
                          "effects" : [

                          ],
                          "start" : 1430,
                          "duration" : 189,
                          "mediaStart" : 490,
                          "mediaDuration" : 189,
                          "scalar" : 1,
                          "animationTracks" : {

                          }
                        },
                    "audio" : 
                        {
                          "id" : 115,
                          "_type" : "AMFile",
                          "src" : 4,
                          "trackNumber" : 1,
                          "attributes" : {
                            "ident" : "",
                            "gain" : 1.0,
                            "mixToMono" : false
                          },
                            "channelNumber" : "0,1",
                          "effects" : [

                          ],
                          "start" : 1430,
                          "duration" : 189,
                          "mediaStart" : 490,
                          "mediaDuration" : 189,
                          "scalar" : 1,
                          "animationTracks" : {

                          }
                        }
,
                    "start" : 1430,
                    "duration" : 189,
                    "mediaStart" : 0,
                    "mediaDuration" : 4474,
                    "scalar" : 1,
                    "metadata" : {
                      "clipSpeedAttribute" : false,
                      "default-scale0" : 1.0,
                      "default-scale1" : 1.0,
                      "default-translation0" : 0.0,
                      "default-translation1" : 0.0
                    }
                  },
                  {
                    "id" : 116,
                    "_type" : "UnifiedMedia",
                    "video" : 
                        {
                          "id" : 117,
                          "_type" : "VMFile",
                          "src" : 5,
                          "trackNumber" : 0,
                          "attributes" : {
                            "ident" : "Ryan PropTech NYC"
                          },
                          "effects" : [

                          ],
                          "start" : 1619,
                          "duration" : 183,
                          "mediaStart" : 352,
                          "mediaDuration" : 183,
                          "scalar" : 1,
                          "animationTracks" : {

                          }
                        },
                    "audio" : 
                        {
                          "id" : 118,
                          "_type" : "AMFile",
                          "src" : 5,
                          "trackNumber" : 1,
                          "attributes" : {
                            "ident" : "",
                            "gain" : 1.0,
                            "mixToMono" : false
                          },
                            "channelNumber" : "0,1",
                          "effects" : [

                          ],
                          "start" : 1619,
                          "duration" : 183,
                          "mediaStart" : 352,
                          "mediaDuration" : 183,
                          "scalar" : 1,
                          "animationTracks" : {

                          }
                        }
,
                    "start" : 1619,
                    "duration" : 183,
                    "mediaStart" : 0,
                    "mediaDuration" : 1216,
                    "scalar" : 1,
                    "metadata" : {
                      "clipSpeedAttribute" : false
                    }
                  },
                  {
                    "id" : 119,
                    "_type" : "UnifiedMedia",
                    "video" : 
                        {
                          "id" : 120,
                          "_type" : "VMFile",
                          "src" : 12,
                          "trackNumber" : 0,
                          "attributes" : {
                            "ident" : "Canvas Vista design layout views"
                          },
                          "effects" : [

                          ],
                          "start" : 1802,
                          "duration" : 322,
                          "mediaStart" : 1328,
                          "mediaDuration" : 322,
                          "scalar" : 1,
                          "animationTracks" : {

                          }
                        },
                    "audio" : 
                        {
                          "id" : 121,
                          "_type" : "AMFile",
                          "src" : 12,
                          "trackNumber" : 1,
                          "attributes" : {
                            "ident" : "",
                            "gain" : 1.0,
                            "mixToMono" : false
                          },
                            "channelNumber" : "0,1",
                          "effects" : [

                          ],
                          "start" : 1802,
                          "duration" : 322,
                          "mediaStart" : 1328,
                          "mediaDuration" : 322,
                          "scalar" : 1,
                          "animationTracks" : {

                          }
                        }
,
                    "start" : 1802,
                    "duration" : 322,
                    "mediaStart" : 0,
                    "mediaDuration" : 6469,
                    "scalar" : 1,
                    "metadata" : {
                      "clipSpeedAttribute" : false
                    }
                  },
                  {
                    "id" : 122,
                    "_type" : "UnifiedMedia",
                    "video" : 
                        {
                          "id" : 123,
                          "_type" : "VMFile",
                          "src" : 9,
                          "trackNumber" : 0,
                          "attributes" : {
                            "ident" : "HM Live OS animation"
                          },
                          "effects" : [

                          ],
                          "start" : 2124,
                          "duration" : 173,
                          "mediaStart" : 2639,
                          "mediaDuration" : 173,
                          "scalar" : 1,
                          "animationTracks" : {

                          }
                        },
                    "audio" : 
                        {
                          "id" : 124,
                          "_type" : "AMFile",
                          "src" : 9,
                          "trackNumber" : 1,
                          "attributes" : {
                            "ident" : "",
                            "gain" : 1.0,
                            "mixToMono" : false
                          },
                            "channelNumber" : "0,1",
                          "effects" : [

                          ],
                          "start" : 2124,
                          "duration" : 173,
                          "mediaStart" : 2639,
                          "mediaDuration" : 173,
                          "scalar" : 1,
                          "animationTracks" : {

                          }
                        }
,
                    "start" : 2124,
                    "duration" : 173,
                    "mediaStart" : 0,
                    "mediaDuration" : 3091,
                    "scalar" : 1,
                    "metadata" : {
                      "clipSpeedAttribute" : false,
                      "default-scale0" : 1.0,
                      "default-scale1" : 1.0
                    }
                  },
                  {
                    "id" : 125,
                    "_type" : "StitchedMedia",
                    "minMediaStart" : 0,
                    "attributes" : {
                      "ident" : "Usual workspace scenario",
                      "gain" : 1.0,
                      "mixToMono" : false
                    },
                    "parameters" : {
                      "volume" : 1.0,
                      "cursorOpacity" : 1.0,
                      "cursorScale" : 1.0
                    },
                    "medias" : [
                        {
                          "id" : 126,
                          "_type" : "UnifiedMedia",
                          "video" : 
                              {
                                "id" : 127,
                                "_type" : "VMFile",
                                "src" : 13,
                                "trackNumber" : 0,
                                "attributes" : {
                                  "ident" : "Usual workspace scenario"
                                },
                                "effects" : [

                                ],
                                "start" : 0,
                                "duration" : 8267,
                                "mediaStart" : 0,
                                "mediaDuration" : 8267,
                                "scalar" : 1,
                                "animationTracks" : {

                                }
                              },
                          "audio" : 
                              {
                                "id" : 128,
                                "_type" : "AMFile",
                                "src" : 13,
                                "trackNumber" : 1,
                                "attributes" : {
                                  "ident" : "",
                                  "gain" : 1.0,
                                  "mixToMono" : false
                                },
                                  "channelNumber" : "0,1",
                                "effects" : [

                                ],
                                "start" : 0,
                                "duration" : 8267,
                                "mediaStart" : 0,
                                "mediaDuration" : 8267,
                                "scalar" : 1,
                                "animationTracks" : {

                                }
                              }
,
                          "start" : 0,
                          "duration" : 8267,
                          "mediaStart" : 0,
                          "mediaDuration" : 12751,
                          "scalar" : 1,
                          "metadata" : {
                            "clipSpeedAttribute" : false
                          }
                        },
                        {
                          "id" : 129,
                          "_type" : "UnifiedMedia",
                          "video" : 
                              {
                                "id" : 130,
                                "_type" : "VMFile",
                                "src" : 13,
                                "trackNumber" : 0,
                                "attributes" : {
                                  "ident" : "Usual workspace scenario"
                                },
                                "effects" : [

                                ],
                                "start" : 8267,
                                "duration" : 3949,
                                "mediaStart" : 8802,
                                "mediaDuration" : 3949,
                                "scalar" : 1,
                                "animationTracks" : {

                                }
                              },
                          "audio" : 
                              {
                                "id" : 131,
                                "_type" : "AMFile",
                                "src" : 13,
                                "trackNumber" : 1,
                                "attributes" : {
                                  "ident" : "",
                                  "gain" : 1.0,
                                  "mixToMono" : false
                                },
                                  "channelNumber" : "0,1",
                                "effects" : [

                                ],
                                "start" : 8267,
                                "duration" : 3949,
                                "mediaStart" : 8802,
                                "mediaDuration" : 3949,
                                "scalar" : 1,
                                "animationTracks" : {

                                }
                              }
,
                          "start" : 8267,
                          "duration" : 3949,
                          "mediaStart" : 0,
                          "mediaDuration" : 12751,
                          "scalar" : 1,
                          "metadata" : {
                            "clipSpeedAttribute" : false
                          }
                        }
                    ],
                    "effects" : [

                    ],
                    "start" : 2297,
                    "duration" : 327,
                    "mediaStart" : 7939,
                    "mediaDuration" : 327,
                    "scalar" : 1,
                    "metadata" : {
                      "clipSpeedAttribute" : false
                    },
                    "animationTracks" : {

                    }
                  },
                  {
                    "id" : 132,
                    "_type" : "UnifiedMedia",
                    "video" : 
                        {
                          "id" : 133,
                          "_type" : "VMFile",
                          "src" : 14,
                          "trackNumber" : 0,
                          "attributes" : {
                            "ident" : "employees talking chatting casually"
                          },
                          "effects" : [

                          ],
                          "start" : 2624,
                          "duration" : 334,
                          "mediaStart" : 1620,
                          "mediaDuration" : 334,
                          "scalar" : 1,
                          "animationTracks" : {

                          }
                        },
                    "audio" : 
                        {
                          "id" : 134,
                          "_type" : "AMFile",
                          "src" : 14,
                          "trackNumber" : 1,
                          "attributes" : {
                            "ident" : "",
                            "gain" : 1.0,
                            "mixToMono" : false
                          },
                            "channelNumber" : "0,1",
                          "effects" : [

                          ],
                          "start" : 2624,
                          "duration" : 334,
                          "mediaStart" : 1620,
                          "mediaDuration" : 334,
                          "scalar" : 1,
                          "animationTracks" : {

                          }
                        }
,
                    "start" : 2624,
                    "duration" : 334,
                    "mediaStart" : 0,
                    "mediaDuration" : 5110,
                    "scalar" : 1,
                    "metadata" : {
                      "clipSpeedAttribute" : false
                    }
                  },
                  {
                    "id" : 135,
                    "_type" : "UnifiedMedia",
                    "video" : 
                        {
                          "id" : 136,
                          "_type" : "VMFile",
                          "src" : 15,
                          "trackNumber" : 0,
                          "attributes" : {
                            "ident" : "cozy workspaces & casual meetings"
                          },
                          "effects" : [

                          ],
                          "start" : 2958,
                          "duration" : 272,
                          "mediaStart" : 1830,
                          "mediaDuration" : 272,
                          "scalar" : 1,
                          "animationTracks" : {

                          }
                        },
                    "audio" : 
                        {
                          "id" : 137,
                          "_type" : "AMFile",
                          "src" : 15,
                          "trackNumber" : 1,
                          "attributes" : {
                            "ident" : "",
                            "gain" : 1.0,
                            "mixToMono" : false
                          },
                            "channelNumber" : "0,1",
                          "effects" : [

                          ],
                          "start" : 2958,
                          "duration" : 272,
                          "mediaStart" : 1830,
                          "mediaDuration" : 272,
                          "scalar" : 1,
                          "animationTracks" : {

                          }
                        }
,
                    "start" : 2958,
                    "duration" : 272,
                    "mediaStart" : 0,
                    "mediaDuration" : 8311,
                    "scalar" : 1,
                    "metadata" : {
                      "clipSpeedAttribute" : false
                    }
                  },
                  {
                    "id" : 138,
                    "_type" : "UnifiedMedia",
                    "video" : 
                        {
                          "id" : 139,
                          "_type" : "VMFile",
                          "src" : 16,
                          "trackNumber" : 0,
                          "attributes" : {
                            "ident" : "(1) New York City (NYC), USA 🇺🇸 - by drone [4K] - YouTube - Google Chrome 2020-04-17 20-19-13"
                          },
                          "parameters" : {
                            "translation0" : 9.03099817151087e-12,
                            "translation1" : -80.0000000000258,
                            "scale0" : 1.2495,
                            "scale1" : 1.2495
                          },
                          "effects" : [

                          ],
                          "start" : 3230,
                          "duration" : 307,
                          "mediaStart" : 6192,
                          "mediaDuration" : 307,
                          "scalar" : 1,
                          "animationTracks" : {

                          }
                        },
                    "audio" : 
                        {
                          "id" : 140,
                          "_type" : "AMFile",
                          "src" : 16,
                          "trackNumber" : 1,
                          "attributes" : {
                            "ident" : "",
                            "gain" : 1.0,
                            "mixToMono" : false
                          },
                            "channelNumber" : "0,1",
                          "effects" : [

                          ],
                          "start" : 3230,
                          "duration" : 307,
                          "mediaStart" : 6192,
                          "mediaDuration" : 307,
                          "scalar" : 1,
                          "animationTracks" : {

                          }
                        }
,
                    "start" : 3230,
                    "duration" : 307,
                    "mediaStart" : 0,
                    "mediaDuration" : 9118,
                    "scalar" : 1,
                    "metadata" : {
                      "clipSpeedAttribute" : false,
                      "default-scale0" : 1.0,
                      "default-scale1" : 1.0,
                      "default-translation0" : 0.0,
                      "default-translation1" : 0.0
                    }
                  },
                  {
                    "id" : 141,
                    "_type" : "UnifiedMedia",
                    "video" : 
                        {
                          "id" : 142,
                          "_type" : "VMFile",
                          "src" : 2,
                          "trackNumber" : 0,
                          "attributes" : {
                            "ident" : "Herman Miller Design Yard & ppl working"
                          },
                          "parameters" : {
                            "translation0" : -1.1447554015831e-10,
                            "translation1" : -8.91091644916742e-11,
                            "scale0" : 1.11643333333342,
                            "scale1" : 1.11643333333342
                          },
                          "effects" : [

                          ],
                          "start" : 3537,
                          "duration" : 211,
                          "mediaStart" : 2026,
                          "mediaDuration" : 211,
                          "scalar" : 1,
                          "animationTracks" : {

                          }
                        },
                    "audio" : 
                        {
                          "id" : 143,
                          "_type" : "AMFile",
                          "src" : 2,
                          "trackNumber" : 1,
                          "attributes" : {
                            "ident" : "",
                            "gain" : 1.0,
                            "mixToMono" : false
                          },
                            "channelNumber" : "0,1",
                          "effects" : [

                          ],
                          "start" : 3537,
                          "duration" : 211,
                          "mediaStart" : 2026,
                          "mediaDuration" : 211,
                          "scalar" : 1,
                          "animationTracks" : {

                          }
                        }
,
                    "start" : 3537,
                    "duration" : 211,
                    "mediaStart" : 0,
                    "mediaDuration" : 5571,
                    "scalar" : 1,
                    "metadata" : {
                      "clipSpeedAttribute" : false,
                      "default-scale0" : 1.0,
                      "default-scale1" : 1.0,
                      "default-translation0" : 0.0,
                      "default-translation1" : 0.0
                    }
                  },
                  {
                    "id" : 144,
                    "_type" : "UnifiedMedia",
                    "video" : 
                        {
                          "id" : 145,
                          "_type" : "VMFile",
                          "src" : 17,
                          "trackNumber" : 0,
                          "attributes" : {
                            "ident" : "(1) San Francisco in 4K - YouTube - Google Chrome 2020-04-17 20-28-00"
                          },
                          "parameters" : {
                            "translation0" : -162.04533333297,
                            "translation1" : 1.73727698893344e-11,
                            "scale0" : 1.23286666666666,
                            "scale1" : 1.23286666666666
                          },
                          "effects" : [

                          ],
                          "start" : 3748,
                          "duration" : 46,
                          "mediaStart" : 303,
                          "mediaDuration" : 46,
                          "scalar" : 1,
                          "animationTracks" : {

                          }
                        },
                    "audio" : 
                        {
                          "id" : 146,
                          "_type" : "AMFile",
                          "src" : 17,
                          "trackNumber" : 1,
                          "attributes" : {
                            "ident" : "",
                            "gain" : 1.0,
                            "mixToMono" : false
                          },
                            "channelNumber" : "0,1",
                          "effects" : [

                          ],
                          "start" : 3748,
                          "duration" : 46,
                          "mediaStart" : 303,
                          "mediaDuration" : 46,
                          "scalar" : 1,
                          "animationTracks" : {

                          }
                        }
,
                    "start" : 3748,
                    "duration" : 46,
                    "mediaStart" : 0,
                    "mediaDuration" : 1594,
                    "scalar" : 1,
                    "metadata" : {
                      "clipSpeedAttribute" : false,
                      "default-scale0" : 1.0,
                      "default-scale1" : 1.0,
                      "default-translation0" : 0.0,
                      "default-translation1" : 0.0
                    }
                  },
                  {
                    "id" : 147,
                    "_type" : "UnifiedMedia",
                    "video" : 
                        {
                          "id" : 148,
                          "_type" : "VMFile",
                          "src" : 18,
                          "trackNumber" : 0,
                          "attributes" : {
                            "ident" : "(1) New York in 4K - YouTube - Google Chrome 2020-04-17 20-50-29"
                          },
                          "parameters" : {
                            "translation0" : -93.3333333335587,
                            "translation1" : -95.0000000000187,
                            "scale0" : 1.2994,
                            "scale1" : 1.2994
                          },
                          "effects" : [

                          ],
                          "start" : 3794,
                          "duration" : 52,
                          "mediaStart" : 251,
                          "mediaDuration" : 52,
                          "scalar" : 1,
                          "animationTracks" : {

                          }
                        },
                    "audio" : 
                        {
                          "id" : 149,
                          "_type" : "AMFile",
                          "src" : 18,
                          "trackNumber" : 1,
                          "attributes" : {
                            "ident" : "",
                            "gain" : 1.0,
                            "mixToMono" : false
                          },
                            "channelNumber" : "0,1",
                          "effects" : [

                          ],
                          "start" : 3794,
                          "duration" : 52,
                          "mediaStart" : 251,
                          "mediaDuration" : 52,
                          "scalar" : 1,
                          "animationTracks" : {

                          }
                        }
,
                    "start" : 3794,
                    "duration" : 52,
                    "mediaStart" : 0,
                    "mediaDuration" : 2323,
                    "scalar" : 1,
                    "metadata" : {
                      "clipSpeedAttribute" : false,
                      "default-scale0" : 1.0,
                      "default-scale1" : 1.0,
                      "default-translation0" : 0.0,
                      "default-translation1" : 0.0
                    }
                  },
                  {
                    "id" : 150,
                    "_type" : "UnifiedMedia",
                    "video" : 
                        {
                          "id" : 151,
                          "_type" : "VMFile",
                          "src" : 19,
                          "trackNumber" : 0,
                          "attributes" : {
                            "ident" : "(1) London in 4K - YouTube - Google Chrome 2020-04-17 20-46-51"
                          },
                          "parameters" : {
                            "translation0" : -120.000000000237,
                            "translation1" : 26.6666666667115,
                            "scale0" : 1.2994,
                            "scale1" : 1.2994
                          },
                          "effects" : [

                          ],
                          "start" : 3846,
                          "duration" : 62,
                          "mediaStart" : 7703,
                          "mediaDuration" : 62,
                          "scalar" : 1,
                          "animationTracks" : {

                          }
                        },
                    "audio" : 
                        {
                          "id" : 152,
                          "_type" : "AMFile",
                          "src" : 19,
                          "trackNumber" : 1,
                          "attributes" : {
                            "ident" : "",
                            "gain" : 1.0,
                            "mixToMono" : false
                          },
                            "channelNumber" : "0,1",
                          "effects" : [

                          ],
                          "start" : 3846,
                          "duration" : 62,
                          "mediaStart" : 7703,
                          "mediaDuration" : 62,
                          "scalar" : 1,
                          "animationTracks" : {

                          }
                        }
,
                    "start" : 3846,
                    "duration" : 62,
                    "mediaStart" : 0,
                    "mediaDuration" : 8518,
                    "scalar" : 1,
                    "metadata" : {
                      "clipSpeedAttribute" : false,
                      "default-scale0" : 1.0,
                      "default-scale1" : 1.0,
                      "default-translation0" : 0.0,
                      "default-translation1" : 0.0
                    }
                  },
                  {
                    "id" : 153,
                    "_type" : "UnifiedMedia",
                    "video" : 
                        {
                          "id" : 154,
                          "_type" : "VMFile",
                          "src" : 2,
                          "trackNumber" : 0,
                          "attributes" : {
                            "ident" : "Herman Miller Design Yard & ppl working"
                          },
                          "parameters" : {
                            "translation0" : -1.1447554015831e-10,
                            "translation1" : -8.91091644916742e-11,
                            "scale0" : 1.11643333333342,
                            "scale1" : 1.11643333333342
                          },
                          "effects" : [

                          ],
                          "start" : 3908,
                          "duration" : 222,
                          "mediaStart" : 2026,
                          "mediaDuration" : 222,
                          "scalar" : 1,
                          "animationTracks" : {

                          }
                        },
                    "audio" : 
                        {
                          "id" : 155,
                          "_type" : "AMFile",
                          "src" : 2,
                          "trackNumber" : 1,
                          "attributes" : {
                            "ident" : "",
                            "gain" : 1.0,
                            "mixToMono" : false
                          },
                            "channelNumber" : "0,1",
                          "effects" : [

                          ],
                          "start" : 3908,
                          "duration" : 222,
                          "mediaStart" : 2026,
                          "mediaDuration" : 222,
                          "scalar" : 1,
                          "animationTracks" : {

                          }
                        }
,
                    "start" : 3908,
                    "duration" : 222,
                    "mediaStart" : 0,
                    "mediaDuration" : 5571,
                    "scalar" : 1,
                    "metadata" : {
                      "clipSpeedAttribute" : false,
                      "default-scale0" : 1.0,
                      "default-scale1" : 1.0,
                      "default-translation0" : 0.0,
                      "default-translation1" : 0.0
                    }
                  },
                  {
                    "id" : 156,
                    "_type" : "UnifiedMedia",
                    "video" : 
                        {
                          "id" : 157,
                          "_type" : "VMFile",
                          "src" : 7,
                          "trackNumber" : 0,
                          "attributes" : {
                            "ident" : "Conference Tables Animation(great office transformation at the end)"
                          },
                          "effects" : [

                          ],
                          "start" : 4130,
                          "duration" : 409,
                          "mediaStart" : 4046,
                          "mediaDuration" : 409,
                          "scalar" : 1,
                          "animationTracks" : {

                          }
                        },
                    "audio" : 
                        {
                          "id" : 158,
                          "_type" : "AMFile",
                          "src" : 7,
                          "trackNumber" : 1,
                          "attributes" : {
                            "ident" : "",
                            "gain" : 1.0,
                            "mixToMono" : false
                          },
                            "channelNumber" : "0,1",
                          "effects" : [

                          ],
                          "start" : 4130,
                          "duration" : 409,
                          "mediaStart" : 4046,
                          "mediaDuration" : 409,
                          "scalar" : 1,
                          "animationTracks" : {

                          }
                        }
,
                    "start" : 4130,
                    "duration" : 409,
                    "mediaStart" : 0,
                    "mediaDuration" : 5344,
                    "scalar" : 1,
                    "metadata" : {
                      "clipSpeedAttribute" : false
                    }
                  },
                  {
                    "id" : 159,
                    "_type" : "UnifiedMedia",
                    "video" : 
                        {
                          "id" : 160,
                          "_type" : "VMFile",
                          "src" : 20,
                          "trackNumber" : 0,
                          "attributes" : {
                            "ident" : "Live Platform - Office Analytics animation"
                          },
                          "effects" : [

                          ],
                          "start" : 4539,
                          "duration" : 278,
                          "mediaStart" : 2772,
                          "mediaDuration" : 278,
                          "scalar" : 1,
                          "animationTracks" : {

                          }
                        },
                    "audio" : 
                        {
                          "id" : 161,
                          "_type" : "AMFile",
                          "src" : 20,
                          "trackNumber" : 1,
                          "attributes" : {
                            "ident" : "",
                            "gain" : 1.0,
                            "mixToMono" : false
                          },
                            "channelNumber" : "0,1",
                          "effects" : [

                          ],
                          "start" : 4539,
                          "duration" : 278,
                          "mediaStart" : 2772,
                          "mediaDuration" : 278,
                          "scalar" : 1,
                          "animationTracks" : {

                          }
                        }
,
                    "start" : 4539,
                    "duration" : 278,
                    "mediaStart" : 0,
                    "mediaDuration" : 5121,
                    "scalar" : 1,
                    "metadata" : {
                      "clipSpeedAttribute" : false
                    }
                  },
                  {
                    "id" : 162,
                    "_type" : "UnifiedMedia",
                    "video" : 
                        {
                          "id" : 163,
                          "_type" : "VMFile",
                          "src" : 21,
                          "trackNumber" : 0,
                          "attributes" : {
                            "ident" : "ppl brainstorming ideas tgt & communicating"
                          },
                          "effects" : [

                          ],
                          "start" : 4817,
                          "duration" : 270,
                          "mediaStart" : 3657,
                          "mediaDuration" : 270,
                          "scalar" : 1,
                          "animationTracks" : {

                          }
                        },
                    "audio" : 
                        {
                          "id" : 164,
                          "_type" : "AMFile",
                          "src" : 21,
                          "trackNumber" : 1,
                          "attributes" : {
                            "ident" : "",
                            "gain" : 1.0,
                            "mixToMono" : false
                          },
                            "channelNumber" : "0,1",
                          "effects" : [

                          ],
                          "start" : 4817,
                          "duration" : 270,
                          "mediaStart" : 3657,
                          "mediaDuration" : 270,
                          "scalar" : 1,
                          "animationTracks" : {

                          }
                        }
,
                    "start" : 4817,
                    "duration" : 270,
                    "mediaStart" : 0,
                    "mediaDuration" : 4791,
                    "scalar" : 1,
                    "metadata" : {
                      "clipSpeedAttribute" : false
                    }
                  },
                  {
                    "id" : 165,
                    "_type" : "StitchedMedia",
                    "minMediaStart" : 0,
                    "attributes" : {
                      "ident" : "Usual workspace scenario",
                      "gain" : 1.0,
                      "mixToMono" : false
                    },
                    "parameters" : {
                      "volume" : 1.0,
                      "cursorOpacity" : 1.0,
                      "cursorScale" : 1.0
                    },
                    "medias" : [
                        {
                          "id" : 166,
                          "_type" : "UnifiedMedia",
                          "video" : 
                              {
                                "id" : 167,
                                "_type" : "VMFile",
                                "src" : 13,
                                "trackNumber" : 0,
                                "attributes" : {
                                  "ident" : "Usual workspace scenario"
                                },
                                "effects" : [

                                ],
                                "start" : 0,
                                "duration" : 6386,
                                "mediaStart" : 0,
                                "mediaDuration" : 6386,
                                "scalar" : 1,
                                "animationTracks" : {

                                }
                              },
                          "audio" : 
                              {
                                "id" : 168,
                                "_type" : "AMFile",
                                "src" : 13,
                                "trackNumber" : 1,
                                "attributes" : {
                                  "ident" : "",
                                  "gain" : 1.0,
                                  "mixToMono" : false
                                },
                                  "channelNumber" : "0,1",
                                "effects" : [

                                ],
                                "start" : 0,
                                "duration" : 6386,
                                "mediaStart" : 0,
                                "mediaDuration" : 6386,
                                "scalar" : 1,
                                "animationTracks" : {

                                }
                              }
,
                          "start" : 0,
                          "duration" : 6386,
                          "mediaStart" : 0,
                          "mediaDuration" : 12751,
                          "scalar" : 1,
                          "metadata" : {
                            "clipSpeedAttribute" : false
                          }
                        },
                        {
                          "id" : 169,
                          "_type" : "UnifiedMedia",
                          "video" : 
                              {
                                "id" : 170,
                                "_type" : "VMFile",
                                "src" : 13,
                                "trackNumber" : 0,
                                "attributes" : {
                                  "ident" : "Usual workspace scenario"
                                },
                                "effects" : [

                                ],
                                "start" : 6386,
                                "duration" : 4106,
                                "mediaStart" : 8645,
                                "mediaDuration" : 4106,
                                "scalar" : 1,
                                "animationTracks" : {

                                }
                              },
                          "audio" : 
                              {
                                "id" : 171,
                                "_type" : "AMFile",
                                "src" : 13,
                                "trackNumber" : 1,
                                "attributes" : {
                                  "ident" : "",
                                  "gain" : 1.0,
                                  "mixToMono" : false
                                },
                                  "channelNumber" : "0,1",
                                "effects" : [

                                ],
                                "start" : 6386,
                                "duration" : 4106,
                                "mediaStart" : 8645,
                                "mediaDuration" : 4106,
                                "scalar" : 1,
                                "animationTracks" : {

                                }
                              }
,
                          "start" : 6386,
                          "duration" : 4106,
                          "mediaStart" : 0,
                          "mediaDuration" : 12751,
                          "scalar" : 1,
                          "metadata" : {
                            "clipSpeedAttribute" : false
                          }
                        }
                    ],
                    "effects" : [

                    ],
                    "start" : 5087,
                    "duration" : 132,
                    "mediaStart" : "397996/65",
                    "mediaDuration" : "17094/65",
                    "scalar" : "130/259",
                    "metadata" : {
                      "clipSpeedAttribute" : true
                    },
                    "animationTracks" : {

                    }
                  },
                  {
                    "id" : 172,
                    "_type" : "UnifiedMedia",
                    "video" : 
                        {
                          "id" : 173,
                          "_type" : "VMFile",
                          "src" : 14,
                          "trackNumber" : 0,
                          "attributes" : {
                            "ident" : "employees talking chatting casually"
                          },
                          "effects" : [

                          ],
                          "start" : 5219,
                          "duration" : 70,
                          "mediaStart" : 2687,
                          "mediaDuration" : 70,
                          "scalar" : 1,
                          "animationTracks" : {

                          }
                        },
                    "audio" : 
                        {
                          "id" : 174,
                          "_type" : "AMFile",
                          "src" : 14,
                          "trackNumber" : 1,
                          "attributes" : {
                            "ident" : "",
                            "gain" : 1.0,
                            "mixToMono" : false
                          },
                            "channelNumber" : "0,1",
                          "effects" : [

                          ],
                          "start" : 5219,
                          "duration" : 70,
                          "mediaStart" : 2687,
                          "mediaDuration" : 70,
                          "scalar" : 1,
                          "animationTracks" : {

                          }
                        }
,
                    "start" : 5219,
                    "duration" : 70,
                    "mediaStart" : 0,
                    "mediaDuration" : 5110,
                    "scalar" : 1,
                    "metadata" : {
                      "clipSpeedAttribute" : false
                    }
                  },
                  {
                    "id" : 175,
                    "_type" : "UnifiedMedia",
                    "video" : 
                        {
                          "id" : 176,
                          "_type" : "VMFile",
                          "src" : 15,
                          "trackNumber" : 0,
                          "attributes" : {
                            "ident" : "cozy workspaces & casual meetings"
                          },
                          "effects" : [

                          ],
                          "start" : 5289,
                          "duration" : 323,
                          "mediaStart" : 1477,
                          "mediaDuration" : 323,
                          "scalar" : 1,
                          "animationTracks" : {

                          }
                        },
                    "audio" : 
                        {
                          "id" : 177,
                          "_type" : "AMFile",
                          "src" : 15,
                          "trackNumber" : 1,
                          "attributes" : {
                            "ident" : "",
                            "gain" : 1.0,
                            "mixToMono" : false
                          },
                            "channelNumber" : "0,1",
                          "effects" : [

                          ],
                          "start" : 5289,
                          "duration" : 323,
                          "mediaStart" : 1477,
                          "mediaDuration" : 323,
                          "scalar" : 1,
                          "animationTracks" : {

                          }
                        }
,
                    "start" : 5289,
                    "duration" : 323,
                    "mediaStart" : 0,
                    "mediaDuration" : 8311,
                    "scalar" : 1,
                    "metadata" : {
                      "clipSpeedAttribute" : false
                    }
                  },
                  {
                    "id" : 178,
                    "_type" : "UnifiedMedia",
                    "video" : 
                        {
                          "id" : 179,
                          "_type" : "VMFile",
                          "src" : 13,
                          "trackNumber" : 0,
                          "attributes" : {
                            "ident" : "Usual workspace scenario"
                          },
                          "effects" : [

                          ],
                          "start" : 5612,
                          "duration" : 431,
                          "mediaStart" : 8795,
                          "mediaDuration" : 431,
                          "scalar" : 1,
                          "animationTracks" : {

                          }
                        },
                    "audio" : 
                        {
                          "id" : 180,
                          "_type" : "AMFile",
                          "src" : 13,
                          "trackNumber" : 1,
                          "attributes" : {
                            "ident" : "",
                            "gain" : 1.0,
                            "mixToMono" : false
                          },
                            "channelNumber" : "0,1",
                          "effects" : [

                          ],
                          "start" : 5612,
                          "duration" : 431,
                          "mediaStart" : 8795,
                          "mediaDuration" : 431,
                          "scalar" : 1,
                          "animationTracks" : {

                          }
                        }
,
                    "start" : 5612,
                    "duration" : 431,
                    "mediaStart" : 0,
                    "mediaDuration" : 12751,
                    "scalar" : 1,
                    "metadata" : {
                      "clipSpeedAttribute" : false
                    }
                  },
                  {
                    "id" : 181,
                    "_type" : "UnifiedMedia",
                    "video" : 
                        {
                          "id" : 182,
                          "_type" : "VMFile",
                          "src" : 12,
                          "trackNumber" : 0,
                          "attributes" : {
                            "ident" : "Canvas Vista design layout views"
                          },
                          "effects" : [

                          ],
                          "start" : 6043,
                          "duration" : 319,
                          "mediaStart" : 4952,
                          "mediaDuration" : "957/2",
                          "scalar" : "2/3",
                          "animationTracks" : {

                          }
                        },
                    "audio" : 
                        {
                          "id" : 183,
                          "_type" : "AMFile",
                          "src" : 12,
                          "trackNumber" : 1,
                          "attributes" : {
                            "ident" : "",
                            "gain" : 1.0,
                            "mixToMono" : false
                          },
                            "channelNumber" : "0,1",
                          "effects" : [

                          ],
                          "start" : 6043,
                          "duration" : 319,
                          "mediaStart" : 4952,
                          "mediaDuration" : "957/2",
                          "scalar" : "2/3",
                          "animationTracks" : {

                          }
                        }
,
                    "start" : 6043,
                    "duration" : 319,
                    "mediaStart" : 0,
                    "mediaDuration" : 6469,
                    "scalar" : "2/3",
                    "metadata" : {
                      "clipSpeedAttribute" : true
                    }
                  },
                  {
                    "id" : 184,
                    "_type" : "StitchedMedia",
                    "minMediaStart" : 0,
                    "attributes" : {
                      "ident" : "Hong Kong Living Office Showroom",
                      "gain" : 1.0,
                      "mixToMono" : false
                    },
                    "parameters" : {
                      "volume" : 1.0,
                      "cursorOpacity" : 1.0,
                      "cursorScale" : 1.0
                    },
                    "medias" : [
                        {
                          "id" : 185,
                          "_type" : "UnifiedMedia",
                          "video" : 
                              {
                                "id" : 186,
                                "_type" : "VMFile",
                                "src" : 22,
                                "trackNumber" : 0,
                                "attributes" : {
                                  "ident" : "Hong Kong Living Office Showroom"
                                },
                                "effects" : [

                                ],
                                "start" : 0,
                                "duration" : 7328,
                                "mediaStart" : 0,
                                "mediaDuration" : 7328,
                                "scalar" : 1,
                                "animationTracks" : {

                                }
                              },
                          "audio" : 
                              {
                                "id" : 187,
                                "_type" : "AMFile",
                                "src" : 22,
                                "trackNumber" : 1,
                                "attributes" : {
                                  "ident" : "",
                                  "gain" : 1.0,
                                  "mixToMono" : false
                                },
                                  "channelNumber" : "0,1",
                                "effects" : [

                                ],
                                "start" : 0,
                                "duration" : 7328,
                                "mediaStart" : 0,
                                "mediaDuration" : 7328,
                                "scalar" : 1,
                                "animationTracks" : {

                                }
                              }
,
                          "start" : 0,
                          "duration" : 7328,
                          "mediaStart" : 0,
                          "mediaDuration" : 11944,
                          "scalar" : 1,
                          "metadata" : {
                            "clipSpeedAttribute" : false
                          }
                        },
                        {
                          "id" : 188,
                          "_type" : "UnifiedMedia",
                          "video" : 
                              {
                                "id" : 189,
                                "_type" : "VMFile",
                                "src" : 22,
                                "trackNumber" : 0,
                                "attributes" : {
                                  "ident" : "Hong Kong Living Office Showroom"
                                },
                                "effects" : [

                                ],
                                "start" : 7328,
                                "duration" : 1873,
                                "mediaStart" : 10071,
                                "mediaDuration" : 1873,
                                "scalar" : 1,
                                "animationTracks" : {

                                }
                              },
                          "audio" : 
                              {
                                "id" : 190,
                                "_type" : "AMFile",
                                "src" : 22,
                                "trackNumber" : 1,
                                "attributes" : {
                                  "ident" : "",
                                  "gain" : 1.0,
                                  "mixToMono" : false
                                },
                                  "channelNumber" : "0,1",
                                "effects" : [

                                ],
                                "start" : 7328,
                                "duration" : 1873,
                                "mediaStart" : 10071,
                                "mediaDuration" : 1873,
                                "scalar" : 1,
                                "animationTracks" : {

                                }
                              }
,
                          "start" : 7328,
                          "duration" : 1873,
                          "mediaStart" : 0,
                          "mediaDuration" : 11944,
                          "scalar" : 1,
                          "metadata" : {
                            "clipSpeedAttribute" : false
                          }
                        }
                    ],
                    "effects" : [

                    ],
                    "start" : 6362,
                    "duration" : 283,
                    "mediaStart" : 7041,
                    "mediaDuration" : 283,
                    "scalar" : 1,
                    "metadata" : {
                      "clipSpeedAttribute" : false
                    },
                    "animationTracks" : {

                    }
                  },
                  {
                    "id" : 191,
                    "_type" : "UnifiedMedia",
                    "video" : 
                        {
                          "id" : 192,
                          "_type" : "VMFile",
                          "src" : 22,
                          "trackNumber" : 0,
                          "attributes" : {
                            "ident" : "Hong Kong Living Office Showroom"
                          },
                          "effects" : [

                          ],
                          "start" : 6645,
                          "duration" : 336,
                          "mediaStart" : 1271,
                          "mediaDuration" : 336,
                          "scalar" : 1,
                          "animationTracks" : {

                          }
                        },
                    "audio" : 
                        {
                          "id" : 193,
                          "_type" : "AMFile",
                          "src" : 22,
                          "trackNumber" : 1,
                          "attributes" : {
                            "ident" : "",
                            "gain" : 1.0,
                            "mixToMono" : false
                          },
                            "channelNumber" : "0,1",
                          "effects" : [

                          ],
                          "start" : 6645,
                          "duration" : 336,
                          "mediaStart" : 1271,
                          "mediaDuration" : 336,
                          "scalar" : 1,
                          "animationTracks" : {

                          }
                        }
,
                    "start" : 6645,
                    "duration" : 336,
                    "mediaStart" : 0,
                    "mediaDuration" : 11944,
                    "scalar" : 1,
                    "metadata" : {
                      "clipSpeedAttribute" : false
                    }
                  },
                  {
                    "id" : 194,
                    "_type" : "UnifiedMedia",
                    "video" : 
                        {
                          "id" : 195,
                          "_type" : "VMFile",
                          "src" : 1,
                          "trackNumber" : 0,
                          "attributes" : {
                            "ident" : "Living Office with Herman Miller(good for Ryan part)"
                          },
                          "parameters" : {
                            "translation0" : -32.744000000137,
                            "translation1" : -80.837999999932,
                            "scale0" : 1.14970000000001,
                            "scale1" : 1.14970000000001
                          },
                          "effects" : [

                          ],
                          "start" : 6981,
                          "duration" : 546,
                          "mediaStart" : "28269118/6171",
                          "mediaDuration" : "1684592/2057",
                          "scalar" : "6171/9256",
                          "animationTracks" : {

                          }
                        },
                    "audio" : 
                        {
                          "id" : 196,
                          "_type" : "AMFile",
                          "src" : 1,
                          "trackNumber" : 1,
                          "attributes" : {
                            "ident" : "",
                            "gain" : 1.0,
                            "mixToMono" : false
                          },
                            "channelNumber" : "0,1",
                          "effects" : [

                          ],
                          "start" : 6981,
                          "duration" : 546,
                          "mediaStart" : "28269118/6171",
                          "mediaDuration" : "1684592/2057",
                          "scalar" : "6171/9256",
                          "animationTracks" : {

                          }
                        }
,
                    "start" : 6981,
                    "duration" : 546,
                    "mediaStart" : 0,
                    "mediaDuration" : 13138,
                    "scalar" : "6171/9256",
                    "metadata" : {
                      "clipSpeedAttribute" : true,
                      "default-scale0" : 1.0,
                      "default-scale1" : 1.0,
                      "default-translation0" : 0.0,
                      "default-translation1" : 0.0
                    }
                  },
                  {
                    "id" : 197,
                    "_type" : "UnifiedMedia",
                    "video" : 
                        {
                          "id" : 198,
                          "_type" : "VMFile",
                          "src" : 23,
                          "trackNumber" : 0,
                          "attributes" : {
                            "ident" : "small client meetings in dynamic workspaces"
                          },
                          "effects" : [

                          ],
                          "start" : 7527,
                          "duration" : 522,
                          "mediaStart" : 3029,
                          "mediaDuration" : 522,
                          "scalar" : 1,
                          "animationTracks" : {

                          }
                        },
                    "audio" : 
                        {
                          "id" : 199,
                          "_type" : "AMFile",
                          "src" : 23,
                          "trackNumber" : 1,
                          "attributes" : {
                            "ident" : "",
                            "gain" : 1.0,
                            "mixToMono" : false
                          },
                            "channelNumber" : "0,1",
                          "effects" : [

                          ],
                          "start" : 7527,
                          "duration" : 522,
                          "mediaStart" : 3029,
                          "mediaDuration" : 522,
                          "scalar" : 1,
                          "animationTracks" : {

                          }
                        }
,
                    "start" : 7527,
                    "duration" : 522,
                    "mediaStart" : 0,
                    "mediaDuration" : 3744,
                    "scalar" : 1,
                    "metadata" : {
                      "clipSpeedAttribute" : false
                    }
                  },
                  {
                    "id" : 200,
                    "_type" : "UnifiedMedia",
                    "video" : 
                        {
                          "id" : 201,
                          "_type" : "VMFile",
                          "src" : 1,
                          "trackNumber" : 0,
                          "attributes" : {
                            "ident" : "Living Office with Herman Miller(good for Ryan part)"
                          },
                          "effects" : [

                          ],
                          "start" : 8049,
                          "duration" : 408,
                          "mediaStart" : 912,
                          "mediaDuration" : 408,
                          "scalar" : 1,
                          "animationTracks" : {

                          }
                        },
                    "audio" : 
                        {
                          "id" : 202,
                          "_type" : "AMFile",
                          "src" : 1,
                          "trackNumber" : 1,
                          "attributes" : {
                            "ident" : "",
                            "gain" : 1.0,
                            "mixToMono" : false
                          },
                            "channelNumber" : "0,1",
                          "effects" : [

                          ],
                          "start" : 8049,
                          "duration" : 408,
                          "mediaStart" : 912,
                          "mediaDuration" : 408,
                          "scalar" : 1,
                          "animationTracks" : {

                          }
                        }
,
                    "start" : 8049,
                    "duration" : 408,
                    "mediaStart" : 0,
                    "mediaDuration" : 13138,
                    "scalar" : 1,
                    "metadata" : {
                      "clipSpeedAttribute" : false
                    }
                  },
                  {
                    "id" : 203,
                    "_type" : "UnifiedMedia",
                    "video" : 
                        {
                          "id" : 204,
                          "_type" : "VMFile",
                          "src" : 1,
                          "trackNumber" : 0,
                          "attributes" : {
                            "ident" : "Living Office with Herman Miller(good for Ryan part)"
                          },
                          "effects" : [

                          ],
                          "start" : 8457,
                          "duration" : 327,
                          "mediaStart" : 1363,
                          "mediaDuration" : 653,
                          "scalar" : "327/653",
                          "animationTracks" : {

                          }
                        },
                    "audio" : 
                        {
                          "id" : 205,
                          "_type" : "AMFile",
                          "src" : 1,
                          "trackNumber" : 1,
                          "attributes" : {
                            "ident" : "",
                            "gain" : 1.0,
                            "mixToMono" : false
                          },
                            "channelNumber" : "0,1",
                          "effects" : [

                          ],
                          "start" : 8457,
                          "duration" : 327,
                          "mediaStart" : 1363,
                          "mediaDuration" : 653,
                          "scalar" : "327/653",
                          "animationTracks" : {

                          }
                        }
,
                    "start" : 8457,
                    "duration" : 327,
                    "mediaStart" : 0,
                    "mediaDuration" : 13138,
                    "scalar" : "327/653",
                    "metadata" : {
                      "clipSpeedAttribute" : true
                    }
                  },
                  {
                    "id" : 206,
                    "_type" : "UnifiedMedia",
                    "video" : 
                        {
                          "id" : 207,
                          "_type" : "VMFile",
                          "src" : 22,
                          "trackNumber" : 0,
                          "attributes" : {
                            "ident" : "Hong Kong Living Office Showroom"
                          },
                          "effects" : [

                          ],
                          "start" : 8784,
                          "duration" : 153,
                          "mediaStart" : 6077,
                          "mediaDuration" : 153,
                          "scalar" : 1,
                          "animationTracks" : {

                          }
                        },
                    "audio" : 
                        {
                          "id" : 208,
                          "_type" : "AMFile",
                          "src" : 22,
                          "trackNumber" : 1,
                          "attributes" : {
                            "ident" : "",
                            "gain" : 1.0,
                            "mixToMono" : false
                          },
                            "channelNumber" : "0,1",
                          "effects" : [

                          ],
                          "start" : 8784,
                          "duration" : 153,
                          "mediaStart" : 6077,
                          "mediaDuration" : 153,
                          "scalar" : 1,
                          "animationTracks" : {

                          }
                        }
,
                    "start" : 8784,
                    "duration" : 153,
                    "mediaStart" : 0,
                    "mediaDuration" : 11944,
                    "scalar" : 1,
                    "metadata" : {
                      "clipSpeedAttribute" : false
                    }
                  },
                  {
                    "id" : 209,
                    "_type" : "UnifiedMedia",
                    "video" : 
                        {
                          "id" : 210,
                          "_type" : "VMFile",
                          "src" : 22,
                          "trackNumber" : 0,
                          "attributes" : {
                            "ident" : "Hong Kong Living Office Showroom"
                          },
                          "effects" : [

                          ],
                          "start" : 8937,
                          "duration" : 127,
                          "mediaStart" : 7371,
                          "mediaDuration" : 127,
                          "scalar" : 1,
                          "animationTracks" : {

                          }
                        },
                    "audio" : 
                        {
                          "id" : 211,
                          "_type" : "AMFile",
                          "src" : 22,
                          "trackNumber" : 1,
                          "attributes" : {
                            "ident" : "",
                            "gain" : 1.0,
                            "mixToMono" : false
                          },
                            "channelNumber" : "0,1",
                          "effects" : [

                          ],
                          "start" : 8937,
                          "duration" : 127,
                          "mediaStart" : 7371,
                          "mediaDuration" : 127,
                          "scalar" : 1,
                          "animationTracks" : {

                          }
                        }
,
                    "start" : 8937,
                    "duration" : 127,
                    "mediaStart" : 0,
                    "mediaDuration" : 11944,
                    "scalar" : 1,
                    "metadata" : {
                      "clipSpeedAttribute" : false
                    }
                  },
                  {
                    "id" : 212,
                    "_type" : "UnifiedMedia",
                    "video" : 
                        {
                          "id" : 213,
                          "_type" : "VMFile",
                          "src" : 22,
                          "trackNumber" : 0,
                          "attributes" : {
                            "ident" : "Hong Kong Living Office Showroom"
                          },
                          "effects" : [

                          ],
                          "start" : 9064,
                          "duration" : 238,
                          "mediaStart" : 8067,
                          "mediaDuration" : 238,
                          "scalar" : 1,
                          "animationTracks" : {

                          }
                        },
                    "audio" : 
                        {
                          "id" : 214,
                          "_type" : "AMFile",
                          "src" : 22,
                          "trackNumber" : 1,
                          "attributes" : {
                            "ident" : "",
                            "gain" : 1.0,
                            "mixToMono" : false
                          },
                            "channelNumber" : "0,1",
                          "effects" : [

                          ],
                          "start" : 9064,
                          "duration" : 238,
                          "mediaStart" : 8067,
                          "mediaDuration" : 238,
                          "scalar" : 1,
                          "animationTracks" : {

                          }
                        }
,
                    "start" : 9064,
                    "duration" : 238,
                    "mediaStart" : 0,
                    "mediaDuration" : 11944,
                    "scalar" : 1,
                    "metadata" : {
                      "clipSpeedAttribute" : false
                    }
                  },
                  {
                    "id" : 215,
                    "_type" : "UnifiedMedia",
                    "video" : 
                        {
                          "id" : 216,
                          "_type" : "VMFile",
                          "src" : 20,
                          "trackNumber" : 0,
                          "attributes" : {
                            "ident" : "Live Platform - Office Analytics animation"
                          },
                          "effects" : [

                          ],
                          "start" : 9302,
                          "duration" : 277,
                          "mediaStart" : 3085,
                          "mediaDuration" : 277,
                          "scalar" : 1,
                          "animationTracks" : {

                          }
                        },
                    "audio" : 
                        {
                          "id" : 217,
                          "_type" : "AMFile",
                          "src" : 20,
                          "trackNumber" : 1,
                          "attributes" : {
                            "ident" : "",
                            "gain" : 1.0,
                            "mixToMono" : false
                          },
                            "channelNumber" : "0,1",
                          "effects" : [

                          ],
                          "start" : 9302,
                          "duration" : 277,
                          "mediaStart" : 3085,
                          "mediaDuration" : 277,
                          "scalar" : 1,
                          "animationTracks" : {

                          }
                        }
,
                    "start" : 9302,
                    "duration" : 277,
                    "mediaStart" : 0,
                    "mediaDuration" : 5121,
                    "scalar" : 1,
                    "metadata" : {
                      "clipSpeedAttribute" : false
                    }
                  },
                  {
                    "id" : 218,
                    "_type" : "UnifiedMedia",
                    "video" : 
                        {
                          "id" : 219,
                          "_type" : "VMFile",
                          "src" : 9,
                          "trackNumber" : 0,
                          "attributes" : {
                            "ident" : "HM Live OS animation"
                          },
                          "parameters" : {
                            "translation0" : 3.24916982208379e-10,
                            "translation1" : 1.02133412838157e-10,
                            "scale1" : 0.999999999999999
                          },
                          "effects" : [

                          ],
                          "start" : 9579,
                          "duration" : 541,
                          "mediaStart" : "81663115/114403",
                          "mediaDuration" : "74296222/114403",
                          "scalar" : "61892023/74296222",
                          "animationTracks" : {

                          }
                        },
                    "audio" : 
                        {
                          "id" : 220,
                          "_type" : "AMFile",
                          "src" : 9,
                          "trackNumber" : 1,
                          "attributes" : {
                            "ident" : "",
                            "gain" : 1.0,
                            "mixToMono" : false
                          },
                            "channelNumber" : "0,1",
                          "effects" : [

                          ],
                          "start" : 9579,
                          "duration" : 541,
                          "mediaStart" : "81663115/114403",
                          "mediaDuration" : "74296222/114403",
                          "scalar" : "61892023/74296222",
                          "animationTracks" : {

                          }
                        }
,
                    "start" : 9579,
                    "duration" : 541,
                    "mediaStart" : 0,
                    "mediaDuration" : 3091,
                    "scalar" : "61892023/74296222",
                    "metadata" : {
                      "clipSpeedAttribute" : true,
                      "default-scale0" : 1.0,
                      "default-scale1" : 1.0,
                      "default-translation0" : 0.0,
                      "default-translation1" : 0.0
                    }
                  },
                  {
                    "id" : 221,
                    "_type" : "UnifiedMedia",
                    "video" : 
                        {
                          "id" : 222,
                          "_type" : "VMFile",
                          "src" : 22,
                          "trackNumber" : 0,
                          "attributes" : {
                            "ident" : "Hong Kong Living Office Showroom"
                          },
                          "parameters" : {
                            "translation0" : -2.23764118345571e-10,
                            "translation1" : 1.43849376854632e-10
                          },
                          "effects" : [

                          ],
                          "start" : 10120,
                          "duration" : 127,
                          "mediaStart" : 7371,
                          "mediaDuration" : 127,
                          "scalar" : 1,
                          "animationTracks" : {

                          }
                        },
                    "audio" : 
                        {
                          "id" : 223,
                          "_type" : "AMFile",
                          "src" : 22,
                          "trackNumber" : 1,
                          "attributes" : {
                            "ident" : "",
                            "gain" : 1.0,
                            "mixToMono" : false
                          },
                            "channelNumber" : "0,1",
                          "effects" : [

                          ],
                          "start" : 10120,
                          "duration" : 127,
                          "mediaStart" : 7371,
                          "mediaDuration" : 127,
                          "scalar" : 1,
                          "animationTracks" : {

                          }
                        }
,
                    "start" : 10120,
                    "duration" : 127,
                    "mediaStart" : 0,
                    "mediaDuration" : 11944,
                    "scalar" : 1,
                    "metadata" : {
                      "clipSpeedAttribute" : false,
                      "default-translation0" : 0.0,
                      "default-translation1" : 0.0
                    }
                  },
                  {
                    "id" : 224,
                    "_type" : "UnifiedMedia",
                    "video" : 
                        {
                          "id" : 225,
                          "_type" : "VMFile",
                          "src" : 22,
                          "trackNumber" : 0,
                          "attributes" : {
                            "ident" : "Hong Kong Living Office Showroom"
                          },
                          "effects" : [

                          ],
                          "start" : 10247,
                          "duration" : 139,
                          "mediaStart" : 6077,
                          "mediaDuration" : 153,
                          "scalar" : "139/153",
                          "animationTracks" : {

                          }
                        },
                    "audio" : 
                        {
                          "id" : 226,
                          "_type" : "AMFile",
                          "src" : 22,
                          "trackNumber" : 1,
                          "attributes" : {
                            "ident" : "",
                            "gain" : 1.0,
                            "mixToMono" : false
                          },
                            "channelNumber" : "0,1",
                          "effects" : [

                          ],
                          "start" : 10247,
                          "duration" : 139,
                          "mediaStart" : 6077,
                          "mediaDuration" : 153,
                          "scalar" : "139/153",
                          "animationTracks" : {

                          }
                        }
,
                    "start" : 10247,
                    "duration" : 139,
                    "mediaStart" : 0,
                    "mediaDuration" : 11944,
                    "scalar" : "139/153",
                    "metadata" : {
                      "clipSpeedAttribute" : true
                    }
                  },
                  {
                    "id" : 227,
                    "_type" : "UnifiedMedia",
                    "video" : 
                        {
                          "id" : 228,
                          "_type" : "VMFile",
                          "src" : 24,
                          "trackNumber" : 0,
                          "attributes" : {
                            "ident" : "Herman Miller Layout Studio Animation"
                          },
                          "effects" : [

                          ],
                          "start" : 10386,
                          "duration" : 269,
                          "mediaStart" : 5062,
                          "mediaDuration" : 269,
                          "scalar" : 1,
                          "animationTracks" : {

                          }
                        },
                    "audio" : 
                        {
                          "id" : 229,
                          "_type" : "AMFile",
                          "src" : 24,
                          "trackNumber" : 1,
                          "attributes" : {
                            "ident" : "",
                            "gain" : 1.0,
                            "mixToMono" : false
                          },
                            "channelNumber" : "0,1",
                          "effects" : [

                          ],
                          "start" : 10386,
                          "duration" : 269,
                          "mediaStart" : 5062,
                          "mediaDuration" : 269,
                          "scalar" : 1,
                          "animationTracks" : {

                          }
                        }
,
                    "start" : 10386,
                    "duration" : 269,
                    "mediaStart" : 0,
                    "mediaDuration" : 5836,
                    "scalar" : 1,
                    "metadata" : {
                      "clipSpeedAttribute" : false
                    }
                  },
                  {
                    "id" : 230,
                    "_type" : "VMFile",
                    "src" : 27,
                    "trackNumber" : 0,
                    "attributes" : {
                      "ident" : "sentiment"
                    },
                    "effects" : [

                    ],
                    "start" : 10655,
                    "duration" : 313,
                    "mediaStart" : 0,
                    "mediaDuration" : 560,
                    "scalar" : "313/560",
                    "metadata" : {
                      "clipSpeedAttribute" : true
                    },
                    "animationTracks" : {

                    }
                  },
                  {
                    "id" : 231,
                    "_type" : "VMFile",
                    "src" : 28,
                    "trackNumber" : 0,
                    "attributes" : {
                      "ident" : "ios"
                    },
                    "effects" : [

                    ],
                    "start" : 10969,
                    "duration" : 359,
                    "mediaStart" : 0,
                    "mediaDuration" : 521,
                    "scalar" : "359/521",
                    "metadata" : {
                      "clipSpeedAttribute" : true
                    },
                    "animationTracks" : {

                    }
                  },
                  {
                    "id" : 232,
                    "_type" : "VMFile",
                    "src" : 29,
                    "trackNumber" : 0,
                    "attributes" : {
                      "ident" : "andriod"
                    },
                    "effects" : [

                    ],
                    "start" : 11328,
                    "duration" : 286,
                    "mediaStart" : 0,
                    "mediaDuration" : "147908/287",
                    "scalar" : "41041/73954",
                    "metadata" : {
                      "clipSpeedAttribute" : true
                    },
                    "animationTracks" : {

                    }
                  },
                  {
                    "id" : 233,
                    "_type" : "VMFile",
                    "src" : 55,
                    "trackNumber" : 0,
                    "attributes" : {
                      "ident" : "website"
                    },
                    "effects" : [

                    ],
                    "start" : 11615,
                    "duration" : 268,
                    "mediaStart" : 0,
                    "mediaDuration" : 536,
                    "scalar" : "1/2",
                    "metadata" : {
                      "clipSpeedAttribute" : true
                    },
                    "animationTracks" : {

                    }
                  },
                  {
                    "id" : 234,
                    "_type" : "VMFile",
                    "src" : 30,
                    "trackNumber" : 0,
                    "attributes" : {
                      "ident" : "kiosk"
                    },
                    "effects" : [

                    ],
                    "start" : 11883,
                    "duration" : 297,
                    "mediaStart" : 0,
                    "mediaDuration" : "106524/299",
                    "scalar" : "897/1076",
                    "metadata" : {
                      "clipSpeedAttribute" : true
                    },
                    "animationTracks" : {

                    }
                  },
                  {
                    "id" : 235,
                    "_type" : "VMFile",
                    "src" : 62,
                    "trackNumber" : 0,
                    "attributes" : {
                      "ident" : "web 2"
                    },
                    "effects" : [

                    ],
                    "start" : 12180,
                    "duration" : 245,
                    "mediaStart" : 0,
                    "mediaDuration" : "11147500/59049",
                    "scalar" : "59049/45500",
                    "metadata" : {
                      "clipSpeedAttribute" : true
                    },
                    "animationTracks" : {

                    }
                  },
                  {
                    "id" : 236,
                    "_type" : "VMFile",
                    "src" : 27,
                    "trackNumber" : 0,
                    "attributes" : {
                      "ident" : "sentiment"
                    },
                    "parameters" : {
                      "translation0" : 168.235294117664,
                      "translation1" : -221.176470588317,
                      "scale0" : 1.43246666666666,
                      "scale1" : 1.43246666666666
                    },
                    "effects" : [

                    ],
                    "start" : 12425,
                    "duration" : 346,
                    "mediaStart" : 0,
                    "mediaDuration" : "325304/523",
                    "scalar" : "90479/162652",
                    "metadata" : {
                      "clipSpeedAttribute" : true,
                      "default-scale0" : 1.0,
                      "default-scale1" : 1.0,
                      "default-translation0" : 0.0,
                      "default-translation1" : 0.0
                    },
                    "animationTracks" : {

                    }
                  },
                  {
                    "id" : 237,
                    "_type" : "IMFile",
                    "src" : 64,
                    "trackNumber" : 0,
                    "trimStartSum" : 0,
                    "attributes" : {
                      "ident" : "empty"
                    },
                    "parameters" : {
                      "translation0" : {
                        "type" : "double",
                        "defaultValue" : 334.666666666734,
                        "keyframes" : [
                          {
                            "endTime" : 300,
                            "time" : 65,
                            "value" : 640.826724733397,
                            "duration" : 235
                          }
                        ]
                      },
                      "translation1" : {
                        "type" : "double",
                        "defaultValue" : 1.68629554764266e-11,
                        "keyframes" : [
                          {
                            "endTime" : 300,
                            "time" : 65,
                            "value" : -398.666622467138,
                            "duration" : 235
                          }
                        ]
                      },
                      "scale0" : {
                        "type" : "double",
                        "defaultValue" : 1.0,
                        "keyframes" : [
                          {
                            "endTime" : 300,
                            "time" : 65,
                            "value" : 1.62000010558695,
                            "duration" : 235
                          }
                        ]
                      },
                      "scale1" : {
                        "type" : "double",
                        "defaultValue" : 1.0,
                        "keyframes" : [
                          {
                            "endTime" : 300,
                            "time" : 65,
                            "value" : 1.61999984038911,
                            "duration" : 235
                          }
                        ]
                      }
                    },
                    "effects" : [

                    ],
                    "start" : 12771,
                    "duration" : 200,
                    "mediaStart" : 0,
                    "mediaDuration" : 1,
                    "scalar" : "2/3",
                    "metadata" : {
                      "clipSpeedAttribute" : true,
                      "default-scale0" : 1.0,
                      "default-scale1" : 1.0,
                      "default-translation0" : 0.0,
                      "default-translation1" : 0.0
                    },
                    "animationTracks" : {
                      "visual" : [
                        {
                          "endTime" : 300,
                          "duration" : 235,
                          "range" : [ 65, 235]
                        }
                      ]
                    }
                  },
                  {
                    "id" : 238,
                    "_type" : "IMFile",
                    "src" : 63,
                    "trackNumber" : 0,
                    "trimStartSum" : 0,
                    "attributes" : {
                      "ident" : "new client"
                    },
                    "parameters" : {
                      "translation0" : 641.333333333198,
                      "translation1" : -396.166666666629,
                      "scale0" : 1.62,
                      "scale1" : 1.62
                    },
                    "effects" : [

                    ],
                    "start" : 12971,
                    "duration" : 143,
                    "mediaStart" : 0,
                    "mediaDuration" : 1,
                    "scalar" : "143/300",
                    "metadata" : {
                      "clipSpeedAttribute" : true,
                      "default-scale0" : 1.0,
                      "default-scale1" : 1.0,
                      "default-translation0" : 0.0,
                      "default-translation1" : 0.0
                    },
                    "animationTracks" : {

                    }
                  },
                  {
                    "id" : 239,
                    "_type" : "IMFile",
                    "src" : 65,
                    "trackNumber" : 0,
                    "trimStartSum" : 0,
                    "attributes" : {
                      "ident" : "team"
                    },
                    "parameters" : {
                      "translation0" : 642.666666666852,
                      "translation1" : -394.666666666613,
                      "scale0" : 1.62,
                      "scale1" : 1.62
                    },
                    "effects" : [

                    ],
                    "start" : 13117,
                    "duration" : 100,
                    "mediaStart" : 0,
                    "mediaDuration" : 1,
                    "scalar" : "1/3",
                    "metadata" : {
                      "clipSpeedAttribute" : true,
                      "default-scale0" : 1.0,
                      "default-scale1" : 1.0,
                      "default-translation0" : 0.0,
                      "default-translation1" : 0.0
                    },
                    "animationTracks" : {

                    }
                  },
                  {
                    "id" : 240,
                    "_type" : "IMFile",
                    "src" : 66,
                    "trackNumber" : 0,
                    "trimStartSum" : 0,
                    "attributes" : {
                      "ident" : "feedback"
                    },
                    "parameters" : {
                      "translation0" : 670.666666666933,
                      "translation1" : 33.333333333379,
                      "scale0" : 1.62,
                      "scale1" : 1.62
                    },
                    "effects" : [

                    ],
                    "start" : 13217,
                    "duration" : 75,
                    "mediaStart" : 0,
                    "mediaDuration" : 1,
                    "scalar" : "1/4",
                    "metadata" : {
                      "clipSpeedAttribute" : true,
                      "default-scale0" : 1.0,
                      "default-scale1" : 1.0,
                      "default-translation0" : 0.0,
                      "default-translation1" : 0.0
                    },
                    "animationTracks" : {

                    }
                  },
                  {
                    "id" : 241,
                    "_type" : "IMFile",
                    "src" : 67,
                    "trackNumber" : 0,
                    "trimStartSum" : 0,
                    "attributes" : {
                      "ident" : "workspaces"
                    },
                    "parameters" : {
                      "translation0" : 670.666666667057,
                      "translation1" : 64.0000000001617,
                      "scale0" : 1.62,
                      "scale1" : 1.62
                    },
                    "effects" : [

                    ],
                    "start" : 13292,
                    "duration" : 75,
                    "mediaStart" : 0,
                    "mediaDuration" : 1,
                    "scalar" : "1/4",
                    "metadata" : {
                      "clipSpeedAttribute" : true,
                      "default-scale0" : 1.0,
                      "default-scale1" : 1.0,
                      "default-translation0" : 0.0,
                      "default-translation1" : 0.0
                    },
                    "animationTracks" : {

                    }
                  },
                  {
                    "id" : 242,
                    "_type" : "IMFile",
                    "src" : 64,
                    "trackNumber" : 0,
                    "trimStartSum" : 0,
                    "attributes" : {
                      "ident" : "empty"
                    },
                    "parameters" : {
                      "translation0" : {
                        "type" : "double",
                        "defaultValue" : 636.000000000244,
                        "keyframes" : [
                          {
                            "endTime" : 300,
                            "time" : "-18000/143",
                            "value" : 615.216276533526,
                            "duration" : "60900/143"
                          }
                        ]
                      },
                      "translation1" : {
                        "type" : "double",
                        "defaultValue" : -432.000000000069,
                        "keyframes" : [
                          {
                            "endTime" : 300,
                            "time" : "-18000/143",
                            "value" : -566.467552471055,
                            "duration" : "60900/143"
                          }
                        ]
                      },
                      "scale0" : {
                        "type" : "double",
                        "defaultValue" : 1.62,
                        "keyframes" : [
                          {
                            "endTime" : 300,
                            "time" : "-18000/143",
                            "value" : 2.51811407438836,
                            "duration" : "60900/143"
                          }
                        ]
                      },
                      "scale1" : {
                        "type" : "double",
                        "defaultValue" : 1.62,
                        "keyframes" : [
                          {
                            "endTime" : 300,
                            "time" : "-18000/143",
                            "value" : 2.5181141887086,
                            "duration" : "60900/143"
                          }
                        ]
                      }
                    },
                    "effects" : [

                    ],
                    "start" : 13367,
                    "duration" : 143,
                    "mediaStart" : 0,
                    "mediaDuration" : 1,
                    "scalar" : "143/300",
                    "metadata" : {
                      "clipSpeedAttribute" : true,
                      "default-scale0" : 1.0,
                      "default-scale1" : 1.0,
                      "default-translation0" : 0.0,
                      "default-translation1" : 0.0
                    },
                    "animationTracks" : {
                      "visual" : [
                        {
                          "endTime" : 300,
                          "duration" : "60900/143",
                          "range" : [ "-18000/143", "60900/143"]
                        }
                      ]
                    }
                  },
                  {
                    "id" : 243,
                    "_type" : "VMFile",
                    "src" : 30,
                    "trackNumber" : 0,
                    "attributes" : {
                      "ident" : "kiosk"
                    },
                    "effects" : [

                    ],
                    "start" : 13510,
                    "duration" : 108,
                    "mediaStart" : 0,
                    "mediaDuration" : "196101/506",
                    "scalar" : "2024/7263",
                    "metadata" : {
                      "clipSpeedAttribute" : true
                    },
                    "animationTracks" : {

                    }
                  },
                  {
                    "id" : 244,
                    "_type" : "VMFile",
                    "src" : 28,
                    "trackNumber" : 0,
                    "attributes" : {
                      "ident" : "ios"
                    },
                    "effects" : [

                    ],
                    "start" : 13618,
                    "duration" : 144,
                    "mediaStart" : 0,
                    "mediaDuration" : 718,
                    "scalar" : "72/359",
                    "metadata" : {
                      "clipSpeedAttribute" : true
                    },
                    "animationTracks" : {

                    }
                  },
                  {
                    "id" : 245,
                    "_type" : "VMFile",
                    "src" : 27,
                    "trackNumber" : 0,
                    "attributes" : {
                      "ident" : "sentiment"
                    },
                    "parameters" : {
                      "translation0" : 168.235294117664,
                      "translation1" : -221.176470588317,
                      "scale0" : 1.43246666666666,
                      "scale1" : 1.43246666666666
                    },
                    "effects" : [

                    ],
                    "start" : 13762,
                    "duration" : 182,
                    "mediaStart" : "17891720/108261",
                    "mediaDuration" : "1236155200/6603921",
                    "scalar" : "85850973/88296800",
                    "metadata" : {
                      "clipSpeedAttribute" : true,
                      "default-scale0" : 1.0,
                      "default-scale1" : 1.0,
                      "default-translation0" : 0.0,
                      "default-translation1" : 0.0
                    },
                    "animationTracks" : {

                    }
                  },
                  {
                    "id" : 246,
                    "_type" : "VMFile",
                    "src" : 55,
                    "trackNumber" : 0,
                    "attributes" : {
                      "ident" : "website"
                    },
                    "effects" : [

                    ],
                    "start" : 13945,
                    "duration" : 534,
                    "mediaStart" : 0,
                    "mediaDuration" : "17889/31",
                    "scalar" : "62/67",
                    "metadata" : {
                      "clipSpeedAttribute" : true
                    },
                    "animationTracks" : {

                    }
                  },
                  {
                    "id" : 247,
                    "_type" : "StitchedMedia",
                    "minMediaStart" : 0,
                    "attributes" : {
                      "ident" : "analyticsplatform-login",
                      "gain" : 1.0,
                      "mixToMono" : false
                    },
                    "parameters" : {
                      "scale0" : 0.675,
                      "scale1" : 0.675,
                      "cursorOpacity" : 1.0,
                      "cursorScale" : 1.0
                    },
                    "medias" : [
                        {
                          "id" : 248,
                          "_type" : "VMFile",
                          "src" : 53,
                          "trackNumber" : 0,
                          "attributes" : {
                            "ident" : "analyticsplatform-login"
                          },
                          "effects" : [

                          ],
                          "start" : 0,
                          "duration" : 617,
                          "mediaStart" : 0,
                          "mediaDuration" : 617,
                          "scalar" : 1,
                          "metadata" : {
                            "clipSpeedAttribute" : false
                          },
                          "animationTracks" : {

                          }
                        },
                        {
                          "id" : 249,
                          "_type" : "VMFile",
                          "src" : 53,
                          "trackNumber" : 0,
                          "attributes" : {
                            "ident" : "analyticsplatform-login"
                          },
                          "effects" : [

                          ],
                          "start" : 617,
                          "duration" : 478,
                          "mediaStart" : 901,
                          "mediaDuration" : 478,
                          "scalar" : 1,
                          "metadata" : {
                            "clipSpeedAttribute" : false
                          },
                          "animationTracks" : {

                          }
                        },
                        {
                          "id" : 250,
                          "_type" : "VMFile",
                          "src" : 53,
                          "trackNumber" : 0,
                          "attributes" : {
                            "ident" : "analyticsplatform-login"
                          },
                          "effects" : [

                          ],
                          "start" : 1095,
                          "duration" : 4040,
                          "mediaStart" : 1397,
                          "mediaDuration" : 4040,
                          "scalar" : 1,
                          "metadata" : {
                            "clipSpeedAttribute" : false
                          },
                          "animationTracks" : {

                          }
                        }
                    ],
                    "effects" : [

                    ],
                    "start" : 14479,
                    "duration" : 718,
                    "mediaStart" : 0,
                    "mediaDuration" : "809186/865",
                    "scalar" : "865/1127",
                    "metadata" : {
                      "clipSpeedAttribute" : true
                    },
                    "animationTracks" : {

                    }
                  },
                  {
                    "id" : 251,
                    "_type" : "VMFile",
                    "src" : 53,
                    "trackNumber" : 0,
                    "attributes" : {
                      "ident" : "analyticsplatform-login"
                    },
                    "parameters" : {
                      "scale0" : 0.675,
                      "scale1" : 0.675
                    },
                    "effects" : [

                    ],
                    "start" : 15197,
                    "duration" : 1051,
                    "mediaStart" : 1140,
                    "mediaDuration" : "5031787/1228",
                    "scalar" : "1290628/5031787",
                    "metadata" : {
                      "clipSpeedAttribute" : true
                    },
                    "animationTracks" : {

                    }
                  },
                  {
                    "id" : 252,
                    "_type" : "VMFile",
                    "src" : 33,
                    "trackNumber" : 0,
                    "attributes" : {
                      "ident" : "analyticsplatform-admin-add"
                    },
                    "parameters" : {
                      "scale0" : 0.675,
                      "scale1" : 0.675
                    },
                    "effects" : [

                    ],
                    "start" : 16248,
                    "duration" : 1807,
                    "mediaStart" : 0,
                    "mediaDuration" : 1265,
                    "scalar" : "1807/1265",
                    "metadata" : {
                      "clipSpeedAttribute" : true
                    },
                    "animationTracks" : {

                    }
                  },
                  {
                    "id" : 253,
                    "_type" : "VMFile",
                    "src" : 33,
                    "trackNumber" : 0,
                    "attributes" : {
                      "ident" : "analyticsplatform-admin-add"
                    },
                    "parameters" : {
                      "scale0" : 0.675,
                      "scale1" : 0.675
                    },
                    "effects" : [

                    ],
                    "start" : 18055,
                    "duration" : 688,
                    "mediaStart" : 1265,
                    "mediaDuration" : 688,
                    "scalar" : 1,
                    "metadata" : {
                      "clipSpeedAttribute" : false
                    },
                    "animationTracks" : {

                    }
                  },
                  {
                    "id" : 254,
                    "_type" : "VMFile",
                    "src" : 33,
                    "trackNumber" : 0,
                    "attributes" : {
                      "ident" : "analyticsplatform-admin-add"
                    },
                    "parameters" : {
                      "scale0" : 0.675,
                      "scale1" : 0.675
                    },
                    "effects" : [

                    ],
                    "start" : 18743,
                    "duration" : 712,
                    "mediaStart" : 1953,
                    "mediaDuration" : "679426/227",
                    "scalar" : "908/3817",
                    "metadata" : {
                      "clipSpeedAttribute" : true
                    },
                    "animationTracks" : {

                    }
                  },
                  {
                    "id" : 255,
                    "_type" : "VMFile",
                    "src" : 33,
                    "trackNumber" : 0,
                    "attributes" : {
                      "ident" : "analyticsplatform-admin-add"
                    },
                    "parameters" : {
                      "scale0" : 0.675,
                      "scale1" : 0.675
                    },
                    "effects" : [

                    ],
                    "start" : 19455,
                    "duration" : 926,
                    "mediaStart" : "1122757/227",
                    "mediaDuration" : "187033/227",
                    "scalar" : "210202/187033",
                    "metadata" : {
                      "clipSpeedAttribute" : true
                    },
                    "animationTracks" : {

                    }
                  },
                  {
                    "id" : 256,
                    "_type" : "VMFile",
                    "src" : 54,
                    "trackNumber" : 0,
                    "attributes" : {
                      "ident" : "analyticsplatform-admin-edit"
                    },
                    "parameters" : {
                      "scale0" : 0.675,
                      "scale1" : 0.675
                    },
                    "effects" : [

                    ],
                    "start" : 20381,
                    "duration" : 434,
                    "mediaStart" : 0,
                    "mediaDuration" : "4277504/3321",
                    "scalar" : "3321/9856",
                    "metadata" : {
                      "clipSpeedAttribute" : true
                    },
                    "animationTracks" : {

                    }
                  },
                  {
                    "id" : 257,
                    "_type" : "VMFile",
                    "src" : 54,
                    "trackNumber" : 0,
                    "attributes" : {
                      "ident" : "analyticsplatform-admin-edit"
                    },
                    "parameters" : {
                      "scale0" : 0.675,
                      "scale1" : 0.675
                    },
                    "effects" : [

                    ],
                    "start" : 20815,
                    "duration" : 958,
                    "mediaStart" : "4277504/3321",
                    "mediaDuration" : "4070528/3321",
                    "scalar" : "1590759/2035264",
                    "metadata" : {
                      "clipSpeedAttribute" : true
                    },
                    "animationTracks" : {

                    }
                  },
                  {
                    "id" : 258,
                    "_type" : "VMFile",
                    "src" : 68,
                    "trackNumber" : 0,
                    "attributes" : {
                      "ident" : "android 2"
                    },
                    "effects" : [

                    ],
                    "start" : 21774,
                    "duration" : 254,
                    "mediaStart" : 0,
                    "mediaDuration" : "81776/215",
                    "scalar" : "27305/40888",
                    "metadata" : {
                      "clipSpeedAttribute" : true
                    },
                    "animationTracks" : {

                    }
                  },
                  {
                    "id" : 259,
                    "_type" : "VMFile",
                    "src" : 30,
                    "trackNumber" : 0,
                    "attributes" : {
                      "ident" : "kiosk"
                    },
                    "effects" : [

                    ],
                    "start" : 22028,
                    "duration" : 215,
                    "mediaStart" : 0,
                    "mediaDuration" : "15602/43",
                    "scalar" : "9245/15602",
                    "metadata" : {
                      "clipSpeedAttribute" : true
                    },
                    "animationTracks" : {

                    }
                  },
                  {
                    "id" : 260,
                    "_type" : "UnifiedMedia",
                    "video" : 
                        {
                          "id" : 261,
                          "_type" : "VMFile",
                          "src" : 58,
                          "trackNumber" : 0,
                          "attributes" : {
                            "ident" : "kiosk english"
                          },
                          "parameters" : {
                            "translation0" : 3.04728686728595e-10,
                            "translation1" : -18.6666666665946,
                            "scale0" : 1.88,
                            "scale1" : 1.88
                          },
                          "effects" : [

                          ],
                          "start" : 22243,
                          "duration" : 280,
                          "mediaStart" : 543,
                          "mediaDuration" : 280,
                          "scalar" : 1,
                          "animationTracks" : {

                          }
                        },
                    "audio" : 
                        {
                          "id" : 262,
                          "_type" : "AMFile",
                          "src" : 58,
                          "trackNumber" : 1,
                          "attributes" : {
                            "ident" : "",
                            "gain" : 1.0,
                            "mixToMono" : false
                          },
                            "channelNumber" : "0,1",
                          "effects" : [

                          ],
                          "start" : 22243,
                          "duration" : 280,
                          "mediaStart" : 543,
                          "mediaDuration" : 280,
                          "scalar" : 1,
                          "animationTracks" : {

                          }
                        }
,
                    "start" : 22243,
                    "duration" : 280,
                    "mediaStart" : 0,
                    "mediaDuration" : 2020,
                    "scalar" : 1,
                    "metadata" : {
                      "clipSpeedAttribute" : false,
                      "default-scale0" : 1.0,
                      "default-scale1" : 1.0,
                      "default-translation0" : 0.0,
                      "default-translation1" : 0.0
                    }
                  },
                  {
                    "id" : 263,
                    "_type" : "UnifiedMedia",
                    "video" : 
                        {
                          "id" : 264,
                          "_type" : "VMFile",
                          "src" : 58,
                          "trackNumber" : 0,
                          "attributes" : {
                            "ident" : "kiosk english"
                          },
                          "parameters" : {
                            "translation0" : 3.04728686728595e-10,
                            "translation1" : -18.6666666665946,
                            "scale0" : 1.88,
                            "scale1" : 1.88
                          },
                          "effects" : [

                          ],
                          "start" : 22523,
                          "duration" : 103,
                          "mediaStart" : 823,
                          "mediaDuration" : 309,
                          "scalar" : "1/3",
                          "animationTracks" : {

                          }
                        },
                    "audio" : 
                        {
                          "id" : 265,
                          "_type" : "AMFile",
                          "src" : 58,
                          "trackNumber" : 1,
                          "attributes" : {
                            "ident" : "",
                            "gain" : 1.0,
                            "mixToMono" : false
                          },
                            "channelNumber" : "0,1",
                          "effects" : [

                          ],
                          "start" : 22523,
                          "duration" : 103,
                          "mediaStart" : 823,
                          "mediaDuration" : 309,
                          "scalar" : "1/3",
                          "animationTracks" : {

                          }
                        }
,
                    "start" : 22523,
                    "duration" : 103,
                    "mediaStart" : 0,
                    "mediaDuration" : 2020,
                    "scalar" : "1/3",
                    "metadata" : {
                      "clipSpeedAttribute" : true,
                      "default-scale0" : 1.0,
                      "default-scale1" : 1.0,
                      "default-translation0" : 0.0,
                      "default-translation1" : 0.0
                    }
                  },
                  {
                    "id" : 266,
                    "_type" : "UnifiedMedia",
                    "video" : 
                        {
                          "id" : 267,
                          "_type" : "VMFile",
                          "src" : 58,
                          "trackNumber" : 0,
                          "attributes" : {
                            "ident" : "kiosk english"
                          },
                          "parameters" : {
                            "translation0" : 3.04728686728595e-10,
                            "translation1" : -18.6666666665946,
                            "scale0" : 1.88,
                            "scale1" : 1.88
                          },
                          "effects" : [

                          ],
                          "start" : 22626,
                          "duration" : 327,
                          "mediaStart" : 1132,
                          "mediaDuration" : 491,
                          "scalar" : "327/491",
                          "animationTracks" : {

                          }
                        },
                    "audio" : 
                        {
                          "id" : 268,
                          "_type" : "AMFile",
                          "src" : 58,
                          "trackNumber" : 1,
                          "attributes" : {
                            "ident" : "",
                            "gain" : 1.0,
                            "mixToMono" : false
                          },
                            "channelNumber" : "0,1",
                          "effects" : [

                          ],
                          "start" : 22626,
                          "duration" : 327,
                          "mediaStart" : 1132,
                          "mediaDuration" : 491,
                          "scalar" : "327/491",
                          "animationTracks" : {

                          }
                        }
,
                    "start" : 22626,
                    "duration" : 327,
                    "mediaStart" : 0,
                    "mediaDuration" : 2020,
                    "scalar" : "327/491",
                    "metadata" : {
                      "clipSpeedAttribute" : true,
                      "default-scale0" : 1.0,
                      "default-scale1" : 1.0,
                      "default-translation0" : 0.0,
                      "default-translation1" : 0.0
                    }
                  },
                  {
                    "id" : 269,
                    "_type" : "UnifiedMedia",
                    "video" : 
                        {
                          "id" : 270,
                          "_type" : "VMFile",
                          "src" : 58,
                          "trackNumber" : 0,
                          "attributes" : {
                            "ident" : "kiosk english"
                          },
                          "parameters" : {
                            "translation0" : 3.04728686728595e-10,
                            "translation1" : -18.6666666665946,
                            "scale0" : 1.88,
                            "scale1" : 1.88
                          },
                          "effects" : [

                          ],
                          "start" : 22953,
                          "duration" : 332,
                          "mediaStart" : 1623,
                          "mediaDuration" : 299,
                          "scalar" : "332/299",
                          "animationTracks" : {

                          }
                        },
                    "audio" : 
                        {
                          "id" : 271,
                          "_type" : "AMFile",
                          "src" : 58,
                          "trackNumber" : 1,
                          "attributes" : {
                            "ident" : "",
                            "gain" : 1.0,
                            "mixToMono" : false
                          },
                            "channelNumber" : "0,1",
                          "effects" : [

                          ],
                          "start" : 22953,
                          "duration" : 332,
                          "mediaStart" : 1623,
                          "mediaDuration" : 299,
                          "scalar" : "332/299",
                          "animationTracks" : {

                          }
                        }
,
                    "start" : 22953,
                    "duration" : 332,
                    "mediaStart" : 0,
                    "mediaDuration" : 2020,
                    "scalar" : "332/299",
                    "metadata" : {
                      "clipSpeedAttribute" : true,
                      "default-scale0" : 1.0,
                      "default-scale1" : 1.0,
                      "default-translation0" : 0.0,
                      "default-translation1" : 0.0
                    }
                  },
                  {
                    "id" : 272,
                    "_type" : "UnifiedMedia",
                    "video" : 
                        {
                          "id" : 273,
                          "_type" : "VMFile",
                          "src" : 59,
                          "trackNumber" : 0,
                          "attributes" : {
                            "ident" : "spanish kiosk"
                          },
                          "parameters" : {
                            "translation0" : 4.71800376544707e-11,
                            "translation1" : -13.3333333335526,
                            "scale0" : 1.88,
                            "scale1" : 1.88
                          },
                          "effects" : [

                          ],
                          "start" : 23285,
                          "duration" : 523,
                          "mediaStart" : 0,
                          "mediaDuration" : "98432/171",
                          "scalar" : "89433/98432",
                          "animationTracks" : {

                          }
                        },
                    "audio" : 
                        {
                          "id" : 274,
                          "_type" : "AMFile",
                          "src" : 59,
                          "trackNumber" : 1,
                          "attributes" : {
                            "ident" : "",
                            "gain" : 1.0,
                            "mixToMono" : false
                          },
                            "channelNumber" : "0,1",
                          "effects" : [

                          ],
                          "start" : 23285,
                          "duration" : 523,
                          "mediaStart" : 0,
                          "mediaDuration" : "98432/171",
                          "scalar" : "89433/98432",
                          "animationTracks" : {

                          }
                        }
,
                    "start" : 23285,
                    "duration" : 523,
                    "mediaStart" : 0,
                    "mediaDuration" : 769,
                    "scalar" : "89433/98432",
                    "metadata" : {
                      "clipSpeedAttribute" : true,
                      "default-scale0" : 1.0,
                      "default-scale1" : 1.0,
                      "default-translation0" : 0.0,
                      "default-translation1" : 0.0
                    }
                  },
                  {
                    "id" : 275,
                    "_type" : "UnifiedMedia",
                    "video" : 
                        {
                          "id" : 276,
                          "_type" : "VMFile",
                          "src" : 60,
                          "trackNumber" : 0,
                          "attributes" : {
                            "ident" : "kiosk guest mode"
                          },
                          "parameters" : {
                            "translation1" : -5.92734750171076e-11
                          },
                          "effects" : [

                          ],
                          "start" : 23810,
                          "duration" : 520,
                          "mediaStart" : 458,
                          "mediaDuration" : 312,
                          "scalar" : "5/3",
                          "animationTracks" : {

                          }
                        },
                    "audio" : 
                        {
                          "id" : 277,
                          "_type" : "AMFile",
                          "src" : 60,
                          "trackNumber" : 1,
                          "attributes" : {
                            "ident" : "",
                            "gain" : 1.0,
                            "mixToMono" : false
                          },
                            "channelNumber" : "0,1",
                          "effects" : [

                          ],
                          "start" : 23810,
                          "duration" : 520,
                          "mediaStart" : 458,
                          "mediaDuration" : 312,
                          "scalar" : "5/3",
                          "animationTracks" : {

                          }
                        }
,
                    "start" : 23810,
                    "duration" : 520,
                    "mediaStart" : 0,
                    "mediaDuration" : 3262,
                    "scalar" : "5/3",
                    "metadata" : {
                      "clipSpeedAttribute" : true,
                      "default-translation1" : 0.0
                    }
                  },
                  {
                    "id" : 278,
                    "_type" : "StitchedMedia",
                    "minMediaStart" : 0,
                    "attributes" : {
                      "ident" : "kiosk guest mode",
                      "gain" : 1.0,
                      "mixToMono" : false
                    },
                    "parameters" : {
                      "translation1" : -5.92734750171076e-11,
                      "volume" : 1.0,
                      "cursorOpacity" : 1.0,
                      "cursorScale" : 1.0
                    },
                    "medias" : [
                        {
                          "id" : 279,
                          "_type" : "UnifiedMedia",
                          "video" : 
                              {
                                "id" : 280,
                                "_type" : "VMFile",
                                "src" : 60,
                                "trackNumber" : 0,
                                "attributes" : {
                                  "ident" : "kiosk guest mode"
                                },
                                "effects" : [

                                ],
                                "start" : 0,
                                "duration" : 809,
                                "mediaStart" : 0,
                                "mediaDuration" : 809,
                                "scalar" : 1,
                                "animationTracks" : {

                                }
                              },
                          "audio" : 
                              {
                                "id" : 281,
                                "_type" : "AMFile",
                                "src" : 60,
                                "trackNumber" : 1,
                                "attributes" : {
                                  "ident" : "",
                                  "gain" : 1.0,
                                  "mixToMono" : false
                                },
                                  "channelNumber" : "0,1",
                                "effects" : [

                                ],
                                "start" : 0,
                                "duration" : 809,
                                "mediaStart" : 0,
                                "mediaDuration" : 809,
                                "scalar" : 1,
                                "animationTracks" : {

                                }
                              }
,
                          "start" : 0,
                          "duration" : 809,
                          "mediaStart" : 0,
                          "mediaDuration" : 3262,
                          "scalar" : 1,
                          "metadata" : {
                            "clipSpeedAttribute" : true,
                            "default-translation1" : 0.0
                          }
                        },
                        {
                          "id" : 282,
                          "_type" : "UnifiedMedia",
                          "video" : 
                              {
                                "id" : 283,
                                "_type" : "VMFile",
                                "src" : 60,
                                "trackNumber" : 0,
                                "attributes" : {
                                  "ident" : "kiosk guest mode"
                                },
                                "effects" : [

                                ],
                                "start" : 809,
                                "duration" : 2424,
                                "mediaStart" : 838,
                                "mediaDuration" : 2424,
                                "scalar" : 1,
                                "animationTracks" : {

                                }
                              },
                          "audio" : 
                              {
                                "id" : 284,
                                "_type" : "AMFile",
                                "src" : 60,
                                "trackNumber" : 1,
                                "attributes" : {
                                  "ident" : "",
                                  "gain" : 1.0,
                                  "mixToMono" : false
                                },
                                  "channelNumber" : "0,1",
                                "effects" : [

                                ],
                                "start" : 809,
                                "duration" : 2424,
                                "mediaStart" : 838,
                                "mediaDuration" : 2424,
                                "scalar" : 1,
                                "animationTracks" : {

                                }
                              }
,
                          "start" : 809,
                          "duration" : 2424,
                          "mediaStart" : 0,
                          "mediaDuration" : 3262,
                          "scalar" : 1,
                          "metadata" : {
                            "clipSpeedAttribute" : true,
                            "default-translation1" : 0.0
                          }
                        }
                    ],
                    "effects" : [

                    ],
                    "start" : 24330,
                    "duration" : 787,
                    "mediaStart" : "3848/5",
                    "mediaDuration" : "2752/5",
                    "scalar" : "3935/2752",
                    "metadata" : {
                      "clipSpeedAttribute" : true
                    },
                    "animationTracks" : {

                    }
                  },
                  {
                    "id" : 285,
                    "_type" : "UnifiedMedia",
                    "video" : 
                        {
                          "id" : 286,
                          "_type" : "VMFile",
                          "src" : 60,
                          "trackNumber" : 0,
                          "attributes" : {
                            "ident" : "kiosk guest mode"
                          },
                          "parameters" : {
                            "translation1" : -5.92734750171076e-11
                          },
                          "effects" : [

                          ],
                          "start" : 25117,
                          "duration" : 816,
                          "mediaStart" : "6742/5",
                          "mediaDuration" : "2602496/1595",
                          "scalar" : "4785/9568",
                          "animationTracks" : {

                          }
                        },
                    "audio" : 
                        {
                          "id" : 287,
                          "_type" : "AMFile",
                          "src" : 60,
                          "trackNumber" : 1,
                          "attributes" : {
                            "ident" : "",
                            "gain" : 1.0,
                            "mixToMono" : false
                          },
                            "channelNumber" : "0,1",
                          "effects" : [

                          ],
                          "start" : 25117,
                          "duration" : 816,
                          "mediaStart" : "6742/5",
                          "mediaDuration" : "2602496/1595",
                          "scalar" : "4785/9568",
                          "animationTracks" : {

                          }
                        }
,
                    "start" : 25117,
                    "duration" : 816,
                    "mediaStart" : 0,
                    "mediaDuration" : 3262,
                    "scalar" : "4785/9568",
                    "metadata" : {
                      "clipSpeedAttribute" : true,
                      "default-translation1" : 0.0
                    }
                  },
                  {
                    "id" : 288,
                    "_type" : "UnifiedMedia",
                    "video" : 
                        {
                          "id" : 289,
                          "_type" : "VMFile",
                          "src" : 70,
                          "trackNumber" : 0,
                          "attributes" : {
                            "ident" : "iOS-CreateAnAccount-2"
                          },
                          "parameters" : {
                            "translation0" : -1.96081373360357e-10,
                            "translation1" : -1.37418965096003e-11,
                            "scale0" : 1.25874125874106,
                            "scale1" : 1.25874125874106
                          },
                          "effects" : [

                          ],
                          "start" : 25933,
                          "duration" : 387,
                          "mediaStart" : 0,
                          "mediaDuration" : "514710/443",
                          "scalar" : "443/1330",
                          "animationTracks" : {

                          }
                        },
                    "audio" : 
                        {
                          "id" : 290,
                          "_type" : "AMFile",
                          "src" : 70,
                          "trackNumber" : 1,
                          "attributes" : {
                            "ident" : "",
                            "gain" : 1.0,
                            "mixToMono" : false
                          },
                            "channelNumber" : "0",
                          "effects" : [

                          ],
                          "start" : 25933,
                          "duration" : 387,
                          "mediaStart" : 0,
                          "mediaDuration" : "514710/443",
                          "scalar" : "443/1330",
                          "animationTracks" : {

                          }
                        }
,
                    "start" : 25933,
                    "duration" : 387,
                    "mediaStart" : 0,
                    "mediaDuration" : 1330,
                    "scalar" : "443/1330",
                    "metadata" : {
                      "clipSpeedAttribute" : true,
                      "default-scale0" : 1.0,
                      "default-scale1" : 1.0,
                      "default-translation0" : 0.0,
                      "default-translation1" : 0.0
                    }
                  },
                  {
                    "id" : 291,
                    "_type" : "Callout",
                    "def" : {
                      "kind" : "remix",
                      "shape" : "shape-rectangle",
                      "style" : "basic",
                      "fill-color-blue" : 1.0,
                      "fill-color-green" : 1.0,
                      "fill-color-opacity" : 1.0,
                      "fill-color-red" : 1.0,
                      "height" : 1080.0000000001,
                      "stroke-color-blue" : 1.0,
                      "stroke-color-green" : 1.0,
                      "stroke-color-opacity" : 1.0,
                      "stroke-color-red" : 1.0,
                      "stroke-width" : 0.0,
                      "width" : 1919.99999999987,
                      "fill-style" : "solid",
                      "stroke-style" : "solid"
                    },
                    "attributes" : {
                      "autoRotateText" : true
                    },
                    "parameters" : {
                      "translation0" : {
                        "type" : "double",
                        "defaultValue" : 9.84528014669195e-11,
                        "keyframes" : [
                          {
                            "endTime" : 188,
                            "time" : 19,
                            "value" : -813.621096460344,
                            "duration" : 169
                          }
                        ]
                      },
                      "translation1" : {
                        "type" : "double",
                        "defaultValue" : -1.4495071809506e-11,
                        "keyframes" : [
                          {
                            "endTime" : 188,
                            "time" : 19,
                            "value" : -749.424960059498,
                            "duration" : 169
                          }
                        ]
                      },
                      "scale0" : {
                        "type" : "double",
                        "defaultValue" : 1.0,
                        "keyframes" : [
                          {
                            "endTime" : 188,
                            "time" : 19,
                            "value" : 3.33102405435408,
                            "duration" : 169
                          }
                        ]
                      },
                      "scale1" : {
                        "type" : "double",
                        "defaultValue" : 1.0,
                        "keyframes" : [
                          {
                            "endTime" : 188,
                            "time" : 19,
                            "value" : 3.33102478540998,
                            "duration" : 169
                          }
                        ]
                      }
                    },
                    "effects" : [

                    ],
                    "start" : 26320,
                    "duration" : 188,
                    "mediaStart" : 0,
                    "mediaDuration" : 188,
                    "scalar" : 1,
                    "metadata" : {
                      "clipSpeedAttribute" : false,
                      "default-scale0" : 1.0,
                      "default-scale1" : 1.0,
                      "default-translation0" : 0.0,
                      "default-translation1" : 0.0
                    },
                    "animationTracks" : {
                      "visual" : [
                        {
                          "endTime" : 188,
                          "duration" : 169,
                          "range" : [ 19, 169]
                        }
                      ]
                    }
                  },
                  {
                    "id" : 292,
                    "_type" : "UnifiedMedia",
                    "video" : 
                        {
                          "id" : 293,
                          "_type" : "VMFile",
                          "src" : 70,
                          "trackNumber" : 0,
                          "attributes" : {
                            "ident" : "iOS-CreateAnAccount-2"
                          },
                          "parameters" : {
                            "translation0" : 5.8276938830204e-11,
                            "translation1" : -4.61568561149761e-11,
                            "scale0" : 1.25874125874141,
                            "scale1" : 1.25874125874141
                          },
                          "effects" : [

                          ],
                          "start" : 26508,
                          "duration" : 41,
                          "mediaStart" : 1190,
                          "mediaDuration" : "203/5",
                          "scalar" : "205/203",
                          "animationTracks" : {

                          }
                        },
                    "audio" : 
                        {
                          "id" : 294,
                          "_type" : "AMFile",
                          "src" : 70,
                          "trackNumber" : 1,
                          "attributes" : {
                            "ident" : "",
                            "gain" : 1.0,
                            "mixToMono" : false
                          },
                            "channelNumber" : "0",
                          "effects" : [

                          ],
                          "start" : 26508,
                          "duration" : 41,
                          "mediaStart" : 1190,
                          "mediaDuration" : "203/5",
                          "scalar" : "205/203",
                          "animationTracks" : {

                          }
                        }
,
                    "start" : 26508,
                    "duration" : 41,
                    "mediaStart" : 0,
                    "mediaDuration" : 1330,
                    "scalar" : "205/203",
                    "metadata" : {
                      "clipSpeedAttribute" : false,
                      "default-scale0" : 1.0,
                      "default-scale1" : 1.0,
                      "default-translation0" : 0.0,
                      "default-translation1" : 0.0
                    }
                  },
                  {
                    "id" : 295,
                    "_type" : "UnifiedMedia",
                    "video" : 
                        {
                          "id" : 296,
                          "_type" : "VMFile",
                          "src" : 70,
                          "trackNumber" : 0,
                          "attributes" : {
                            "ident" : "iOS-CreateAnAccount-2"
                          },
                          "parameters" : {
                            "translation0" : 1.60966351359093e-10,
                            "translation1" : 1.46016532198701e-11,
                            "scale0" : 1.25874125874117,
                            "scale1" : 1.25874125874117
                          },
                          "effects" : [

                          ],
                          "start" : 26549,
                          "duration" : 525,
                          "mediaStart" : "6153/5",
                          "mediaDuration" : "5845/188",
                          "scalar" : "2820/167",
                          "animationTracks" : {

                          }
                        },
                    "audio" : 
                        {
                          "id" : 297,
                          "_type" : "AMFile",
                          "src" : 70,
                          "trackNumber" : 1,
                          "attributes" : {
                            "ident" : "",
                            "gain" : 1.0,
                            "mixToMono" : false
                          },
                            "channelNumber" : "0",
                          "effects" : [

                          ],
                          "start" : 26549,
                          "duration" : 525,
                          "mediaStart" : "6153/5",
                          "mediaDuration" : "5845/188",
                          "scalar" : "2820/167",
                          "animationTracks" : {

                          }
                        }
,
                    "start" : 26549,
                    "duration" : 525,
                    "mediaStart" : 0,
                    "mediaDuration" : 1330,
                    "scalar" : "2820/167",
                    "metadata" : {
                      "clipSpeedAttribute" : true,
                      "default-scale0" : 1.0,
                      "default-scale1" : 1.0,
                      "default-translation0" : 0.0,
                      "default-translation1" : 0.0
                    }
                  },
                  {
                    "id" : 298,
                    "_type" : "UnifiedMedia",
                    "video" : 
                        {
                          "id" : 299,
                          "_type" : "VMFile",
                          "src" : 73,
                          "trackNumber" : 1,
                          "attributes" : {
                            "ident" : "iOS-Submissions-noKeyboardEdit-3"
                          },
                          "effects" : [

                          ],
                          "start" : 27074,
                          "duration" : 947,
                          "mediaStart" : 709,
                          "mediaDuration" : 947,
                          "scalar" : 1,
                          "animationTracks" : {

                          }
                        },
                    "audio" : 
                        {
                          "id" : 300,
                          "_type" : "AMFile",
                          "src" : 73,
                          "trackNumber" : 0,
                          "attributes" : {
                            "ident" : "",
                            "gain" : 1.0,
                            "mixToMono" : false
                          },
                            "channelNumber" : "0,1",
                          "effects" : [

                          ],
                          "start" : 27074,
                          "duration" : 947,
                          "mediaStart" : 709,
                          "mediaDuration" : 947,
                          "scalar" : 1,
                          "animationTracks" : {

                          }
                        }
,
                    "start" : 27074,
                    "duration" : 947,
                    "mediaStart" : 0,
                    "mediaDuration" : 2020,
                    "scalar" : 1,
                    "metadata" : {
                      "clipSpeedAttribute" : true
                    }
                  },
                  {
                    "id" : 301,
                    "_type" : "Callout",
                    "def" : {
                      "kind" : "remix",
                      "shape" : "shape-rectangle",
                      "style" : "basic",
                      "fill-color-blue" : 1.0,
                      "fill-color-green" : 1.0,
                      "fill-color-opacity" : 1.0,
                      "fill-color-red" : 1.0,
                      "height" : 1080.0000000001,
                      "stroke-color-blue" : 1.0,
                      "stroke-color-green" : 1.0,
                      "stroke-color-opacity" : 1.0,
                      "stroke-color-red" : 1.0,
                      "stroke-width" : 0.0,
                      "width" : 1919.99999999987,
                      "fill-style" : "solid",
                      "stroke-style" : "solid"
                    },
                    "attributes" : {
                      "autoRotateText" : true
                    },
                    "parameters" : {
                      "translation0" : {
                        "type" : "double",
                        "defaultValue" : 9.84528014669195e-11,
                        "keyframes" : [
                          {
                            "endTime" : 188,
                            "time" : 19,
                            "value" : -813.621096460344,
                            "duration" : 169
                          },
                          {
                            "endTime" : 244,
                            "time" : 188,
                            "value" : 8.01071978173695e-05,
                            "duration" : 56
                          },
                          {
                            "endTime" : 399,
                            "time" : 244,
                            "value" : -2611.93777181662,
                            "duration" : 155
                          },
                          {
                            "endTime" : 572,
                            "time" : 399,
                            "value" : 8.65045251430274e-06,
                            "duration" : 173
                          }
                        ]
                      },
                      "translation1" : {
                        "type" : "double",
                        "defaultValue" : -1.4495071809506e-11,
                        "keyframes" : [
                          {
                            "endTime" : 188,
                            "time" : 19,
                            "value" : -749.424960059498,
                            "duration" : 169
                          },
                          {
                            "endTime" : 244,
                            "time" : 188,
                            "value" : -1.08813718178169e-05,
                            "duration" : 56
                          },
                          {
                            "endTime" : 399,
                            "time" : 244,
                            "value" : -895.481088061916,
                            "duration" : 155
                          },
                          {
                            "endTime" : 572,
                            "time" : 399,
                            "value" : -3.57411758500348e-06,
                            "duration" : 173
                          }
                        ]
                      },
                      "scale0" : {
                        "type" : "double",
                        "defaultValue" : 1.0,
                        "keyframes" : [
                          {
                            "endTime" : 188,
                            "time" : 19,
                            "value" : 3.33102405435408,
                            "duration" : 169
                          },
                          {
                            "endTime" : 244,
                            "time" : 188,
                            "value" : 0.999999957545926,
                            "duration" : 56
                          },
                          {
                            "endTime" : 399,
                            "time" : 244,
                            "value" : 4.4996255721899,
                            "duration" : 155
                          },
                          {
                            "endTime" : 572,
                            "time" : 399,
                            "value" : 0.999999997003624,
                            "duration" : 173
                          }
                        ]
                      },
                      "scale1" : {
                        "type" : "double",
                        "defaultValue" : 1.0,
                        "keyframes" : [
                          {
                            "endTime" : 188,
                            "time" : 19,
                            "value" : 3.33102478540998,
                            "duration" : 169
                          },
                          {
                            "endTime" : 244,
                            "time" : 188,
                            "value" : 1.00000000958716,
                            "duration" : 56
                          },
                          {
                            "endTime" : 399,
                            "time" : 244,
                            "value" : 4.49963868181514,
                            "duration" : 155
                          },
                          {
                            "endTime" : 572,
                            "time" : 399,
                            "value" : 1.00000003902905,
                            "duration" : 173
                          }
                        ]
                      }
                    },
                    "effects" : [

                    ],
                    "start" : 28021,
                    "duration" : 595,
                    "mediaStart" : 0,
                    "mediaDuration" : 595,
                    "scalar" : 1,
                    "metadata" : {
                      "clipSpeedAttribute" : false,
                      "default-scale0" : 1.0,
                      "default-scale1" : 1.0,
                      "default-translation0" : 0.0,
                      "default-translation1" : 0.0
                    },
                    "animationTracks" : {
                      "visual" : [
                        {
                          "endTime" : 188,
                          "duration" : 169,
                          "range" : [ 19, 169]
                        },
                        {
                          "endTime" : 244,
                          "duration" : 56,
                          "range" : [ 188, 56]
                        },
                        {
                          "endTime" : 399,
                          "duration" : 155,
                          "range" : [ 244, 155]
                        },
                        {
                          "endTime" : 572,
                          "duration" : 173,
                          "range" : [ 399, 173]
                        }
                      ]
                    }
                  },
                  {
                    "id" : 302,
                    "_type" : "UnifiedMedia",
                    "video" : 
                        {
                          "id" : 303,
                          "_type" : "VMFile",
                          "src" : 71,
                          "trackNumber" : 0,
                          "attributes" : {
                            "ident" : "iOS-Stats-4"
                          },
                          "parameters" : {
                            "translation0" : 2.15733653163852e-10,
                            "translation1" : 2.89176682599646e-10,
                            "scale0" : 1.25874125874211,
                            "scale1" : 1.25874125874211
                          },
                          "effects" : [

                          ],
                          "start" : 28616,
                          "duration" : 997,
                          "mediaStart" : 17,
                          "mediaDuration" : 997,
                          "scalar" : 1,
                          "animationTracks" : {

                          }
                        },
                    "audio" : 
                        {
                          "id" : 304,
                          "_type" : "AMFile",
                          "src" : 71,
                          "trackNumber" : 1,
                          "attributes" : {
                            "ident" : "",
                            "gain" : 1.0,
                            "mixToMono" : false
                          },
                            "channelNumber" : "0",
                          "effects" : [

                          ],
                          "start" : 28616,
                          "duration" : 997,
                          "mediaStart" : 17,
                          "mediaDuration" : 997,
                          "scalar" : 1,
                          "animationTracks" : {

                          }
                        }
,
                    "start" : 28616,
                    "duration" : 997,
                    "mediaStart" : 0,
                    "mediaDuration" : 1671,
                    "scalar" : 1,
                    "metadata" : {
                      "clipSpeedAttribute" : false,
                      "default-scale0" : 1.0,
                      "default-scale1" : 1.0,
                      "default-translation0" : 0.0,
                      "default-translation1" : 0.0
                    }
                  },
                  {
                    "id" : 305,
                    "_type" : "Callout",
                    "def" : {
                      "kind" : "remix",
                      "shape" : "shape-rectangle",
                      "style" : "basic",
                      "fill-color-blue" : 1.0,
                      "fill-color-green" : 1.0,
                      "fill-color-opacity" : 1.0,
                      "fill-color-red" : 1.0,
                      "height" : 1080.0000000001,
                      "stroke-color-blue" : 1.0,
                      "stroke-color-green" : 1.0,
                      "stroke-color-opacity" : 1.0,
                      "stroke-color-red" : 1.0,
                      "stroke-width" : 0.0,
                      "width" : 1919.99999999987,
                      "fill-style" : "solid",
                      "stroke-style" : "solid"
                    },
                    "attributes" : {
                      "autoRotateText" : true
                    },
                    "parameters" : {
                      "translation0" : {
                        "type" : "double",
                        "defaultValue" : 9.84528014669195e-11,
                        "keyframes" : [
                          {
                            "endTime" : 77,
                            "time" : -50,
                            "value" : -901.538451498608,
                            "duration" : 127
                          },
                          {
                            "endTime" : 170,
                            "time" : 77,
                            "value" : -817.008413619564,
                            "duration" : 93
                          },
                          {
                            "endTime" : 232,
                            "time" : 171,
                            "value" : -9.17330941092587e-05,
                            "duration" : 61
                          }
                        ]
                      },
                      "translation1" : {
                        "type" : "double",
                        "defaultValue" : -1.4495071809506e-11,
                        "keyframes" : [
                          {
                            "endTime" : 77,
                            "time" : -50,
                            "value" : -836.435560606427,
                            "duration" : 127
                          },
                          {
                            "endTime" : 170,
                            "time" : 77,
                            "value" : 69.2433840118913,
                            "duration" : 93
                          },
                          {
                            "endTime" : 232,
                            "time" : 171,
                            "value" : -1.63282550147414e-06,
                            "duration" : 61
                          }
                        ]
                      },
                      "scale0" : {
                        "type" : "double",
                        "defaultValue" : 1.0,
                        "keyframes" : [
                          {
                            "endTime" : 77,
                            "time" : -50,
                            "value" : 3.96134638813346,
                            "duration" : 127
                          },
                          {
                            "endTime" : 170,
                            "time" : 77,
                            "value" : 3.96134630365185,
                            "duration" : 93
                          },
                          {
                            "endTime" : 232,
                            "time" : 171,
                            "value" : 0.99999990099512,
                            "duration" : 61
                          }
                        ]
                      },
                      "scale1" : {
                        "type" : "double",
                        "defaultValue" : 1.0,
                        "keyframes" : [
                          {
                            "endTime" : 77,
                            "time" : -50,
                            "value" : 3.96134728667409,
                            "duration" : 127
                          },
                          {
                            "endTime" : 170,
                            "time" : 77,
                            "value" : 3.9613469487476,
                            "duration" : 93
                          },
                          {
                            "endTime" : 232,
                            "time" : 171,
                            "value" : 1.0000000215872,
                            "duration" : 61
                          }
                        ]
                      }
                    },
                    "effects" : [

                    ],
                    "start" : 29613,
                    "duration" : 275,
                    "mediaStart" : 0,
                    "mediaDuration" : 275,
                    "scalar" : 1,
                    "metadata" : {
                      "clipSpeedAttribute" : false,
                      "default-scale0" : 1.0,
                      "default-scale1" : 1.0,
                      "default-translation0" : 0.0,
                      "default-translation1" : 0.0
                    },
                    "animationTracks" : {
                      "visual" : [
                        {
                          "endTime" : 77,
                          "duration" : 127,
                          "range" : [ -50, 127]
                        },
                        {
                          "endTime" : 170,
                          "duration" : 93,
                          "range" : [ 77, 93]
                        },
                        {
                          "endTime" : 232,
                          "duration" : 61,
                          "range" : [ 171, 61]
                        }
                      ]
                    }
                  },
                  {
                    "id" : 306,
                    "_type" : "UnifiedMedia",
                    "video" : 
                        {
                          "id" : 307,
                          "_type" : "VMFile",
                          "src" : 72,
                          "trackNumber" : 0,
                          "attributes" : {
                            "ident" : "iOS-RewardMessage-5"
                          },
                          "parameters" : {
                            "translation0" : -2.50768295018133e-10,
                            "translation1" : 1.03298702924803e-10,
                            "scale0" : 1.25874125874114,
                            "scale1" : 1.25874125874114
                          },
                          "effects" : [

                          ],
                          "start" : 29888,
                          "duration" : 667,
                          "mediaStart" : "48168273/404300",
                          "mediaDuration" : "161961777/404300",
                          "scalar" : "269668100/161961777",
                          "animationTracks" : {

                          }
                        },
                    "audio" : 
                        {
                          "id" : 308,
                          "_type" : "AMFile",
                          "src" : 72,
                          "trackNumber" : 1,
                          "attributes" : {
                            "ident" : "",
                            "gain" : 1.0,
                            "mixToMono" : false
                          },
                            "channelNumber" : "0",
                          "effects" : [

                          ],
                          "start" : 29888,
                          "duration" : 667,
                          "mediaStart" : "48168273/404300",
                          "mediaDuration" : "161961777/404300",
                          "scalar" : "269668100/161961777",
                          "animationTracks" : {

                          }
                        }
,
                    "start" : 29888,
                    "duration" : 667,
                    "mediaStart" : 0,
                    "mediaDuration" : 591,
                    "scalar" : "269668100/161961777",
                    "metadata" : {
                      "clipSpeedAttribute" : true,
                      "default-scale0" : 1.0,
                      "default-scale1" : 1.0,
                      "default-translation0" : 0.0,
                      "default-translation1" : 0.0
                    }
                  },
                  {
                    "id" : 309,
                    "_type" : "UnifiedMedia",
                    "video" : 
                        {
                          "id" : 310,
                          "_type" : "VMFile",
                          "src" : 74,
                          "trackNumber" : 0,
                          "attributes" : {
                            "ident" : "iOS-Notification-6"
                          },
                          "parameters" : {
                            "translation0" : -1.65531588436352e-10,
                            "translation1" : -2.1141488559806e-10,
                            "scale0" : 1.25874125874174,
                            "scale1" : 1.25874125874174
                          },
                          "effects" : [

                          ],
                          "start" : 30555,
                          "duration" : 373,
                          "mediaStart" : "42010/173",
                          "mediaDuration" : "41895/173",
                          "scalar" : "64529/41895",
                          "animationTracks" : {

                          }
                        },
                    "audio" : 
                        {
                          "id" : 311,
                          "_type" : "AMFile",
                          "src" : 74,
                          "trackNumber" : 1,
                          "attributes" : {
                            "ident" : "",
                            "gain" : 1.0,
                            "mixToMono" : false
                          },
                            "channelNumber" : "0",
                          "effects" : [

                          ],
                          "start" : 30555,
                          "duration" : 373,
                          "mediaStart" : "42010/173",
                          "mediaDuration" : "41895/173",
                          "scalar" : "64529/41895",
                          "animationTracks" : {

                          }
                        }
,
                    "start" : 30555,
                    "duration" : 373,
                    "mediaStart" : 0,
                    "mediaDuration" : 1747,
                    "scalar" : "64529/41895",
                    "metadata" : {
                      "clipSpeedAttribute" : true,
                      "default-scale0" : 1.0,
                      "default-scale1" : 1.0,
                      "default-translation0" : 0.0,
                      "default-translation1" : 0.0
                    }
                  },
                  {
                    "id" : 312,
                    "_type" : "Callout",
                    "def" : {
                      "kind" : "remix",
                      "shape" : "shape-rectangle",
                      "style" : "basic",
                      "fill-color-blue" : 1.0,
                      "fill-color-green" : 1.0,
                      "fill-color-opacity" : 1.0,
                      "fill-color-red" : 1.0,
                      "height" : 1080.0000000001,
                      "stroke-color-blue" : 1.0,
                      "stroke-color-green" : 1.0,
                      "stroke-color-opacity" : 1.0,
                      "stroke-color-red" : 1.0,
                      "stroke-width" : 0.0,
                      "width" : 1919.99999999987,
                      "fill-style" : "solid",
                      "stroke-style" : "solid"
                    },
                    "attributes" : {
                      "autoRotateText" : true
                    },
                    "parameters" : {
                      "translation0" : {
                        "type" : "double",
                        "defaultValue" : 9.84528014669195e-11,
                        "keyframes" : [
                          {
                            "endTime" : 199,
                            "time" : -56,
                            "value" : 808.587235389988,
                            "duration" : 255
                          },
                          {
                            "endTime" : 373,
                            "time" : 199,
                            "value" : 8.5265128291212e-14,
                            "duration" : 174
                          }
                        ]
                      },
                      "translation1" : {
                        "type" : "double",
                        "defaultValue" : -1.4495071809506e-11,
                        "keyframes" : [
                          {
                            "endTime" : 199,
                            "time" : -56,
                            "value" : -932.365908788373,
                            "duration" : 255
                          },
                          {
                            "endTime" : 373,
                            "time" : 199,
                            "value" : -2.27373675443232e-13,
                            "duration" : 174
                          }
                        ]
                      },
                      "scale0" : {
                        "type" : "double",
                        "defaultValue" : 1.0,
                        "keyframes" : [
                          {
                            "endTime" : 199,
                            "time" : -56,
                            "value" : 3.84421657213012,
                            "duration" : 255
                          },
                          {
                            "endTime" : 373,
                            "time" : 199,
                            "value" : 0.999999992525437,
                            "duration" : 174
                          }
                        ]
                      },
                      "scale1" : {
                        "type" : "double",
                        "defaultValue" : 1.0,
                        "keyframes" : [
                          {
                            "endTime" : 199,
                            "time" : -56,
                            "value" : 3.84421660086396,
                            "duration" : 255
                          },
                          {
                            "endTime" : 373,
                            "time" : 199,
                            "value" : 1.0,
                            "duration" : 174
                          }
                        ]
                      }
                    },
                    "effects" : [

                    ],
                    "start" : 30928,
                    "duration" : 404,
                    "mediaStart" : 0,
                    "mediaDuration" : 404,
                    "scalar" : 1,
                    "metadata" : {
                      "clipSpeedAttribute" : false,
                      "default-scale0" : 1.0,
                      "default-scale1" : 1.0,
                      "default-translation0" : 0.0,
                      "default-translation1" : 0.0
                    },
                    "animationTracks" : {
                      "visual" : [
                        {
                          "endTime" : 199,
                          "duration" : 255,
                          "range" : [ -56, 255]
                        },
                        {
                          "endTime" : 373,
                          "duration" : 174,
                          "range" : [ 199, 174]
                        }
                      ]
                    }
                  },
                  {
                    "id" : 313,
                    "_type" : "UnifiedMedia",
                    "video" : 
                        {
                          "id" : 314,
                          "_type" : "VMFile",
                          "src" : 74,
                          "trackNumber" : 0,
                          "attributes" : {
                            "ident" : "iOS-Notification-6"
                          },
                          "parameters" : {
                            "translation0" : -1.65531588436352e-10,
                            "translation1" : -2.1141488559806e-10,
                            "scale0" : 1.25874125874174,
                            "scale1" : 1.25874125874174
                          },
                          "effects" : [

                          ],
                          "start" : 31332,
                          "duration" : 852,
                          "mediaStart" : 485,
                          "mediaDuration" : 852,
                          "scalar" : 1,
                          "animationTracks" : {

                          }
                        },
                    "audio" : 
                        {
                          "id" : 315,
                          "_type" : "AMFile",
                          "src" : 74,
                          "trackNumber" : 1,
                          "attributes" : {
                            "ident" : "",
                            "gain" : 1.0,
                            "mixToMono" : false
                          },
                            "channelNumber" : "0",
                          "effects" : [

                          ],
                          "start" : 31332,
                          "duration" : 852,
                          "mediaStart" : 485,
                          "mediaDuration" : 852,
                          "scalar" : 1,
                          "animationTracks" : {

                          }
                        }
,
                    "start" : 31332,
                    "duration" : 852,
                    "mediaStart" : 0,
                    "mediaDuration" : 1747,
                    "scalar" : 1,
                    "metadata" : {
                      "clipSpeedAttribute" : false,
                      "default-scale0" : 1.0,
                      "default-scale1" : 1.0,
                      "default-translation0" : 0.0,
                      "default-translation1" : 0.0
                    }
                  },
                  {
                    "id" : 316,
                    "_type" : "StitchedMedia",
                    "minMediaStart" : 0,
                    "attributes" : {
                      "ident" : "analyticsplatofrm-overviewworkspace",
                      "gain" : 1.0,
                      "mixToMono" : false
                    },
                    "parameters" : {
                      "scale0" : 0.675,
                      "scale1" : 0.675,
                      "cursorOpacity" : 1.0,
                      "cursorScale" : 1.0
                    },
                    "medias" : [
                        {
                          "id" : 317,
                          "_type" : "VMFile",
                          "src" : 75,
                          "trackNumber" : 0,
                          "attributes" : {
                            "ident" : "analyticsplatofrm-overviewworkspace"
                          },
                          "effects" : [

                          ],
                          "start" : 0,
                          "duration" : 3225,
                          "mediaStart" : 0,
                          "mediaDuration" : 3225,
                          "scalar" : 1,
                          "metadata" : {
                            "clipSpeedAttribute" : false
                          },
                          "animationTracks" : {

                          }
                        },
                        {
                          "id" : 318,
                          "_type" : "VMFile",
                          "src" : 75,
                          "trackNumber" : 0,
                          "attributes" : {
                            "ident" : "analyticsplatofrm-overviewworkspace"
                          },
                          "effects" : [

                          ],
                          "start" : 3225,
                          "duration" : 482,
                          "mediaStart" : 3883,
                          "mediaDuration" : 482,
                          "scalar" : 1,
                          "metadata" : {
                            "clipSpeedAttribute" : false
                          },
                          "animationTracks" : {

                          }
                        },
                        {
                          "id" : 319,
                          "_type" : "VMFile",
                          "src" : 75,
                          "trackNumber" : 0,
                          "attributes" : {
                            "ident" : "analyticsplatofrm-overviewworkspace"
                          },
                          "effects" : [

                          ],
                          "start" : 3707,
                          "duration" : 3572,
                          "mediaStart" : 4696,
                          "mediaDuration" : 3572,
                          "scalar" : 1,
                          "metadata" : {
                            "clipSpeedAttribute" : false
                          },
                          "animationTracks" : {

                          }
                        }
                    ],
                    "effects" : [

                    ],
                    "start" : 32184,
                    "duration" : 5436,
                    "mediaStart" : 14,
                    "mediaDuration" : 5436,
                    "scalar" : 1,
                    "metadata" : {
                      "clipSpeedAttribute" : false
                    },
                    "animationTracks" : {

                    }
                  },
                  {
                    "id" : 320,
                    "_type" : "StitchedMedia",
                    "minMediaStart" : 0,
                    "attributes" : {
                      "ident" : "analyticsplatofrm-overviewworkspace",
                      "gain" : 1.0,
                      "mixToMono" : false
                    },
                    "parameters" : {
                      "scale0" : 0.675,
                      "scale1" : 0.675,
                      "cursorOpacity" : 1.0,
                      "cursorScale" : 1.0
                    },
                    "medias" : [
                        {
                          "id" : 321,
                          "_type" : "VMFile",
                          "src" : 75,
                          "trackNumber" : 0,
                          "attributes" : {
                            "ident" : "analyticsplatofrm-overviewworkspace"
                          },
                          "effects" : [

                          ],
                          "start" : 0,
                          "duration" : 3225,
                          "mediaStart" : 0,
                          "mediaDuration" : 3225,
                          "scalar" : 1,
                          "metadata" : {
                            "clipSpeedAttribute" : false
                          },
                          "animationTracks" : {

                          }
                        },
                        {
                          "id" : 322,
                          "_type" : "VMFile",
                          "src" : 75,
                          "trackNumber" : 0,
                          "attributes" : {
                            "ident" : "analyticsplatofrm-overviewworkspace"
                          },
                          "effects" : [

                          ],
                          "start" : 3225,
                          "duration" : 482,
                          "mediaStart" : 3883,
                          "mediaDuration" : 482,
                          "scalar" : 1,
                          "metadata" : {
                            "clipSpeedAttribute" : false
                          },
                          "animationTracks" : {

                          }
                        },
                        {
                          "id" : 323,
                          "_type" : "VMFile",
                          "src" : 75,
                          "trackNumber" : 0,
                          "attributes" : {
                            "ident" : "analyticsplatofrm-overviewworkspace"
                          },
                          "effects" : [

                          ],
                          "start" : 3707,
                          "duration" : 3572,
                          "mediaStart" : 4696,
                          "mediaDuration" : 3572,
                          "scalar" : 1,
                          "metadata" : {
                            "clipSpeedAttribute" : false
                          },
                          "animationTracks" : {

                          }
                        }
                    ],
                    "effects" : [

                    ],
                    "start" : 37620,
                    "duration" : 262,
                    "mediaStart" : "44348666/8151",
                    "mediaDuration" : "644782/8151",
                    "scalar" : "8151/2461",
                    "metadata" : {
                      "clipSpeedAttribute" : true
                    },
                    "animationTracks" : {

                    }
                  },
                  {
                    "id" : 324,
                    "_type" : "StitchedMedia",
                    "minMediaStart" : 0,
                    "attributes" : {
                      "ident" : "analyticsplatofrm-overviewworkspace",
                      "gain" : 1.0,
                      "mixToMono" : false
                    },
                    "parameters" : {
                      "scale0" : 0.675,
                      "scale1" : 0.675,
                      "cursorOpacity" : 1.0,
                      "cursorScale" : 1.0
                    },
                    "medias" : [
                        {
                          "id" : 325,
                          "_type" : "VMFile",
                          "src" : 75,
                          "trackNumber" : 0,
                          "attributes" : {
                            "ident" : "analyticsplatofrm-overviewworkspace"
                          },
                          "effects" : [

                          ],
                          "start" : 0,
                          "duration" : 3225,
                          "mediaStart" : 0,
                          "mediaDuration" : 3225,
                          "scalar" : 1,
                          "metadata" : {
                            "clipSpeedAttribute" : false
                          },
                          "animationTracks" : {

                          }
                        },
                        {
                          "id" : 326,
                          "_type" : "VMFile",
                          "src" : 75,
                          "trackNumber" : 0,
                          "attributes" : {
                            "ident" : "analyticsplatofrm-overviewworkspace"
                          },
                          "effects" : [

                          ],
                          "start" : 3225,
                          "duration" : 482,
                          "mediaStart" : 3883,
                          "mediaDuration" : 482,
                          "scalar" : 1,
                          "metadata" : {
                            "clipSpeedAttribute" : false
                          },
                          "animationTracks" : {

                          }
                        },
                        {
                          "id" : 327,
                          "_type" : "VMFile",
                          "src" : 75,
                          "trackNumber" : 0,
                          "attributes" : {
                            "ident" : "analyticsplatofrm-overviewworkspace"
                          },
                          "effects" : [

                          ],
                          "start" : 3707,
                          "duration" : 3572,
                          "mediaStart" : 4696,
                          "mediaDuration" : 3572,
                          "scalar" : 1,
                          "metadata" : {
                            "clipSpeedAttribute" : false
                          },
                          "animationTracks" : {

                          }
                        }
                    ],
                    "effects" : [

                    ],
                    "start" : 37882,
                    "duration" : 663,
                    "mediaStart" : 5512,
                    "mediaDuration" : 663,
                    "scalar" : 1,
                    "metadata" : {
                      "clipSpeedAttribute" : false
                    },
                    "animationTracks" : {

                    }
                  },
                  {
                    "id" : 328,
                    "_type" : "UnifiedMedia",
                    "video" : 
                        {
                          "id" : 329,
                          "_type" : "VMFile",
                          "src" : 15,
                          "trackNumber" : 0,
                          "attributes" : {
                            "ident" : "cozy workspaces & casual meetings"
                          },
                          "effects" : [

                          ],
                          "start" : 38545,
                          "duration" : 413,
                          "mediaStart" : 1600,
                          "mediaDuration" : 413,
                          "scalar" : 1,
                          "animationTracks" : {

                          }
                        },
                    "audio" : 
                        {
                          "id" : 330,
                          "_type" : "AMFile",
                          "src" : 15,
                          "trackNumber" : 1,
                          "attributes" : {
                            "ident" : "",
                            "gain" : 1.0,
                            "mixToMono" : false
                          },
                            "channelNumber" : "0,1",
                          "effects" : [

                          ],
                          "start" : 38545,
                          "duration" : 413,
                          "mediaStart" : 1600,
                          "mediaDuration" : 413,
                          "scalar" : 1,
                          "animationTracks" : {

                          }
                        }
,
                    "start" : 38545,
                    "duration" : 413,
                    "mediaStart" : 0,
                    "mediaDuration" : 8311,
                    "scalar" : 1,
                    "metadata" : {
                      "clipSpeedAttribute" : false
                    }
                  },
                  {
                    "id" : 331,
                    "_type" : "UnifiedMedia",
                    "video" : 
                        {
                          "id" : 332,
                          "_type" : "VMFile",
                          "src" : 14,
                          "trackNumber" : 0,
                          "attributes" : {
                            "ident" : "employees talking chatting casually"
                          },
                          "effects" : [

                          ],
                          "start" : 38958,
                          "duration" : 428,
                          "mediaStart" : 3178,
                          "mediaDuration" : 428,
                          "scalar" : 1,
                          "animationTracks" : {

                          }
                        },
                    "audio" : 
                        {
                          "id" : 333,
                          "_type" : "AMFile",
                          "src" : 14,
                          "trackNumber" : 1,
                          "attributes" : {
                            "ident" : "",
                            "gain" : 1.0,
                            "mixToMono" : false
                          },
                            "channelNumber" : "0,1",
                          "effects" : [

                          ],
                          "start" : 38958,
                          "duration" : 428,
                          "mediaStart" : 3178,
                          "mediaDuration" : 428,
                          "scalar" : 1,
                          "animationTracks" : {

                          }
                        }
,
                    "start" : 38958,
                    "duration" : 428,
                    "mediaStart" : 0,
                    "mediaDuration" : 5110,
                    "scalar" : 1,
                    "metadata" : {
                      "clipSpeedAttribute" : false
                    }
                  },
                  {
                    "id" : 334,
                    "_type" : "UnifiedMedia",
                    "video" : 
                        {
                          "id" : 335,
                          "_type" : "VMFile",
                          "src" : 9,
                          "trackNumber" : 0,
                          "attributes" : {
                            "ident" : "HM Live OS animation"
                          },
                          "effects" : [

                          ],
                          "start" : 39386,
                          "duration" : 1547,
                          "mediaStart" : 1206,
                          "mediaDuration" : 1547,
                          "scalar" : 1,
                          "animationTracks" : {

                          }
                        },
                    "audio" : 
                        {
                          "id" : 336,
                          "_type" : "AMFile",
                          "src" : 9,
                          "trackNumber" : 1,
                          "attributes" : {
                            "ident" : "",
                            "gain" : 1.0,
                            "mixToMono" : false
                          },
                            "channelNumber" : "0,1",
                          "effects" : [

                          ],
                          "start" : 39386,
                          "duration" : 1547,
                          "mediaStart" : 1206,
                          "mediaDuration" : 1547,
                          "scalar" : 1,
                          "animationTracks" : {

                          }
                        }
,
                    "start" : 39386,
                    "duration" : 1547,
                    "mediaStart" : 0,
                    "mediaDuration" : 3091,
                    "scalar" : 1,
                    "metadata" : {
                      "clipSpeedAttribute" : false
                    }
                  },
                  {
                    "id" : 337,
                    "_type" : "UnifiedMedia",
                    "video" : 
                        {
                          "id" : 338,
                          "_type" : "VMFile",
                          "src" : 15,
                          "trackNumber" : 0,
                          "attributes" : {
                            "ident" : "cozy workspaces & casual meetings"
                          },
                          "effects" : [

                          ],
                          "start" : 40933,
                          "duration" : 134,
                          "mediaStart" : 8138,
                          "mediaDuration" : 134,
                          "scalar" : 1,
                          "animationTracks" : {

                          }
                        },
                    "audio" : 
                        {
                          "id" : 339,
                          "_type" : "AMFile",
                          "src" : 15,
                          "trackNumber" : 1,
                          "attributes" : {
                            "ident" : "",
                            "gain" : 1.0,
                            "mixToMono" : false
                          },
                            "channelNumber" : "0,1",
                          "effects" : [

                          ],
                          "start" : 40933,
                          "duration" : 134,
                          "mediaStart" : 8138,
                          "mediaDuration" : 134,
                          "scalar" : 1,
                          "animationTracks" : {

                          }
                        }
,
                    "start" : 40933,
                    "duration" : 134,
                    "mediaStart" : 0,
                    "mediaDuration" : 8311,
                    "scalar" : 1,
                    "metadata" : {
                      "clipSpeedAttribute" : false
                    }
                  },
                  {
                    "id" : 340,
                    "_type" : "UnifiedMedia",
                    "video" : 
                        {
                          "id" : 341,
                          "_type" : "VMFile",
                          "src" : 15,
                          "trackNumber" : 0,
                          "attributes" : {
                            "ident" : "cozy workspaces & casual meetings"
                          },
                          "effects" : [

                          ],
                          "start" : 41067,
                          "duration" : 66,
                          "mediaStart" : 8272,
                          "mediaDuration" : 33,
                          "scalar" : 2,
                          "animationTracks" : {

                          }
                        },
                    "audio" : 
                        {
                          "id" : 342,
                          "_type" : "AMFile",
                          "src" : 15,
                          "trackNumber" : 1,
                          "attributes" : {
                            "ident" : "",
                            "gain" : 1.0,
                            "mixToMono" : false
                          },
                            "channelNumber" : "0,1",
                          "effects" : [

                          ],
                          "start" : 41067,
                          "duration" : 66,
                          "mediaStart" : 8272,
                          "mediaDuration" : 33,
                          "scalar" : 2,
                          "animationTracks" : {

                          }
                        }
,
                    "start" : 41067,
                    "duration" : 66,
                    "mediaStart" : 0,
                    "mediaDuration" : 8311,
                    "scalar" : 2,
                    "metadata" : {
                      "clipSpeedAttribute" : true
                    }
                  },
                  {
                    "id" : 343,
                    "_type" : "Callout",
                    "def" : {
                      "kind" : "remix",
                      "shape" : "shape-rectangle",
                      "style" : "basic",
                      "fill-color-blue" : 1.0,
                      "fill-color-green" : 1.0,
                      "fill-color-opacity" : 1.0,
                      "fill-color-red" : 1.0,
                      "height" : 1080.00002034494,
                      "stroke-color-blue" : 1.0,
                      "stroke-color-green" : 1.0,
                      "stroke-color-opacity" : 1.0,
                      "stroke-color-red" : 1.0,
                      "stroke-width" : 0.0,
                      "width" : 1919.99999999999,
                      "fill-style" : "solid",
                      "stroke-style" : "solid"
                    },
                    "attributes" : {
                      "autoRotateText" : true
                    },
                    "parameters" : {
                      "translation0" : 7.02016222930979e-11,
                      "translation1" : -1.01725885883752e-05
                    },
                    "effects" : [

                    ],
                    "start" : 41133,
                    "duration" : 300,
                    "mediaStart" : 0,
                    "mediaDuration" : 300,
                    "scalar" : 1,
                    "metadata" : {
                      "clipSpeedAttribute" : false,
                      "default-translation0" : 0.0,
                      "default-translation1" : 0.0
                    },
                    "animationTracks" : {

                    }
                  },
                  {
                    "id" : 344,
                    "_type" : "Callout",
                    "def" : {
                      "kind" : "remix",
                      "shape" : "shape-rectangle",
                      "style" : "basic",
                      "fill-color-blue" : 1.0,
                      "fill-color-green" : 1.0,
                      "fill-color-opacity" : 1.0,
                      "fill-color-red" : 1.0,
                      "height" : 1080.00002034494,
                      "stroke-color-blue" : 1.0,
                      "stroke-color-green" : 1.0,
                      "stroke-color-opacity" : 1.0,
                      "stroke-color-red" : 1.0,
                      "stroke-width" : 0.0,
                      "width" : 1919.99999999999,
                      "fill-style" : "solid",
                      "stroke-style" : "solid"
                    },
                    "attributes" : {
                      "autoRotateText" : true
                    },
                    "parameters" : {
                      "translation0" : 7.02016222930979e-11,
                      "translation1" : -1.01725885883752e-05
                    },
                    "effects" : [

                    ],
                    "start" : 41433,
                    "duration" : 300,
                    "mediaStart" : 0,
                    "mediaDuration" : 300,
                    "scalar" : 1,
                    "metadata" : {
                      "clipSpeedAttribute" : false,
                      "default-translation0" : 0.0,
                      "default-translation1" : 0.0
                    },
                    "animationTracks" : {

                    }
                  },
                  {
                    "id" : 345,
                    "_type" : "Callout",
                    "def" : {
                      "kind" : "remix",
                      "shape" : "shape-rectangle",
                      "style" : "basic",
                      "fill-color-blue" : 1.0,
                      "fill-color-green" : 1.0,
                      "fill-color-opacity" : 1.0,
                      "fill-color-red" : 1.0,
                      "height" : 1080.00002034494,
                      "stroke-color-blue" : 1.0,
                      "stroke-color-green" : 1.0,
                      "stroke-color-opacity" : 1.0,
                      "stroke-color-red" : 1.0,
                      "stroke-width" : 0.0,
                      "width" : 1919.99999999999,
                      "fill-style" : "solid",
                      "stroke-style" : "solid"
                    },
                    "attributes" : {
                      "autoRotateText" : true
                    },
                    "parameters" : {
                      "translation0" : 7.02016222930979e-11,
                      "translation1" : -1.01725885883752e-05
                    },
                    "effects" : [

                    ],
                    "start" : 41733,
                    "duration" : 300,
                    "mediaStart" : 0,
                    "mediaDuration" : 300,
                    "scalar" : 1,
                    "metadata" : {
                      "clipSpeedAttribute" : false,
                      "default-translation0" : 0.0,
                      "default-translation1" : 0.0
                    },
                    "animationTracks" : {

                    }
                  }
                ],
                "transitions" : [
                  {
                    "name" : "Fade",
                    "duration" : 30,
                    "trivial" : false,
                    "reverse" : false,
                    "useAudioPreRoll" : true,
                    "useVisualPreRoll" : true,
                    "leftMedia" : 110,
                    "rightMedia" : 113
                  },
                  {
                    "name" : "Fade",
                    "duration" : 30,
                    "trivial" : false,
                    "reverse" : false,
                    "useAudioPreRoll" : true,
                    "useVisualPreRoll" : true,
                    "leftMedia" : 113,
                    "rightMedia" : 116
                  },
                  {
                    "name" : "Fade",
                    "duration" : 26,
                    "trivial" : false,
                    "reverse" : false,
                    "useAudioPreRoll" : true,
                    "useVisualPreRoll" : true,
                    "leftMedia" : 238
                  },
                  {
                    "name" : "Fade",
                    "duration" : 26,
                    "trivial" : false,
                    "reverse" : false,
                    "useAudioPreRoll" : true,
                    "useVisualPreRoll" : true,
                    "rightMedia" : 239
                  },
                  {
                    "name" : "Fade",
                    "duration" : 26,
                    "trivial" : false,
                    "reverse" : false,
                    "useAudioPreRoll" : true,
                    "useVisualPreRoll" : true,
                    "leftMedia" : 239,
                    "rightMedia" : 240
                  },
                  {
                    "name" : "Fade",
                    "duration" : 26,
                    "trivial" : false,
                    "reverse" : false,
                    "useAudioPreRoll" : true,
                    "useVisualPreRoll" : true,
                    "leftMedia" : 240,
                    "rightMedia" : 241
                  },
                  {
                    "name" : "Fade",
                    "duration" : 57,
                    "trivial" : false,
                    "reverse" : false,
                    "useAudioPreRoll" : true,
                    "useVisualPreRoll" : true,
                    "leftMedia" : 246,
                    "rightMedia" : 247
                  },
                  {
                    "name" : "Fade",
                    "duration" : 20,
                    "trivial" : false,
                    "reverse" : false,
                    "useAudioPreRoll" : true,
                    "useVisualPreRoll" : true,
                    "leftMedia" : 257
                  },
                  {
                    "name" : "Fade",
                    "duration" : 18,
                    "trivial" : false,
                    "reverse" : false,
                    "useAudioPreRoll" : true,
                    "useVisualPreRoll" : true,
                    "rightMedia" : 258
                  },
                  {
                    "name" : "Fade",
                    "duration" : 15,
                    "trivial" : false,
                    "reverse" : false,
                    "useAudioPreRoll" : true,
                    "useVisualPreRoll" : true,
                    "leftMedia" : 272
                  },
                  {
                    "name" : "Fade",
                    "duration" : 14,
                    "trivial" : false,
                    "reverse" : false,
                    "useAudioPreRoll" : true,
                    "useVisualPreRoll" : true,
                    "rightMedia" : 275
                  },
                  {
                    "name" : "Fade",
                    "duration" : 43,
                    "trivial" : false,
                    "reverse" : false,
                    "useAudioPreRoll" : true,
                    "useVisualPreRoll" : true,
                    "leftMedia" : 313,
                    "rightMedia" : 316
                  },
                  {
                    "name" : "Fade",
                    "duration" : 22,
                    "trivial" : false,
                    "reverse" : false,
                    "useAudioPreRoll" : true,
                    "useVisualPreRoll" : true,
                    "leftMedia" : 324,
                    "rightMedia" : 328
                  }
                ]
              },
              {
                "trackIndex" : 2,
                "medias" : [
                  {
                    "id" : 346,
                    "_type" : "AMFile",
                    "src" : 11,
                    "trackNumber" : 0,
                    "attributes" : {
                      "ident" : "Recording edited1",
                      "gain" : 1.85,
                      "mixToMono" : false
                    },
                      "channelNumber" : "0,1",
                    "parameters" : {
                      "volume" : 1.3265306122449
                    },
                    "effects" : [

                    ],
                    "start" : 178,
                    "duration" : 43,
                    "mediaStart" : 91,
                    "mediaDuration" : 43,
                    "scalar" : 1,
                    "metadata" : {
                      "clipSpeedAttribute" : false
                    },
                    "animationTracks" : {

                    }
                  },
                  {
                    "id" : 347,
                    "_type" : "AMFile",
                    "src" : 11,
                    "trackNumber" : 0,
                    "attributes" : {
                      "ident" : "Recording edited1",
                      "gain" : 1.85,
                      "mixToMono" : false
                    },
                      "channelNumber" : "0,1",
                    "parameters" : {
                      "volume" : 1.73469387755102
                    },
                    "effects" : [

                    ],
                    "start" : 235,
                    "duration" : 157,
                    "mediaStart" : 134,
                    "mediaDuration" : 157,
                    "scalar" : 1,
                    "metadata" : {
                      "clipSpeedAttribute" : false
                    },
                    "animationTracks" : {

                    }
                  },
                  {
                    "id" : 348,
                    "_type" : "AMFile",
                    "src" : 11,
                    "trackNumber" : 0,
                    "attributes" : {
                      "ident" : "Recording edited1",
                      "gain" : 1.85,
                      "mixToMono" : false
                    },
                      "channelNumber" : "0,1",
                    "parameters" : {
                      "volume" : 1.6530612244898
                    },
                    "effects" : [

                    ],
                    "start" : 404,
                    "duration" : 65,
                    "mediaStart" : 291,
                    "mediaDuration" : 65,
                    "scalar" : 1,
                    "metadata" : {
                      "clipSpeedAttribute" : false
                    },
                    "animationTracks" : {

                    }
                  },
                  {
                    "id" : 349,
                    "_type" : "AMFile",
                    "src" : 11,
                    "trackNumber" : 0,
                    "attributes" : {
                      "ident" : "Recording edited1",
                      "gain" : 1.85,
                      "mixToMono" : false
                    },
                      "channelNumber" : "0,1",
                    "parameters" : {
                      "volume" : 1.89795918367346
                    },
                    "effects" : [

                    ],
                    "start" : 493,
                    "duration" : 113,
                    "mediaStart" : 356,
                    "mediaDuration" : 113,
                    "scalar" : 1,
                    "metadata" : {
                      "clipSpeedAttribute" : false
                    },
                    "animationTracks" : {

                    }
                  },
                  {
                    "id" : 350,
                    "_type" : "AMFile",
                    "src" : 11,
                    "trackNumber" : 0,
                    "attributes" : {
                      "ident" : "Recording edited1",
                      "gain" : 1.85,
                      "mixToMono" : false
                    },
                      "channelNumber" : "0,1",
                    "parameters" : {
                      "volume" : 2.22448979591836
                    },
                    "effects" : [

                    ],
                    "start" : 699,
                    "duration" : 219,
                    "mediaStart" : 499,
                    "mediaDuration" : 219,
                    "scalar" : 1,
                    "metadata" : {
                      "clipSpeedAttribute" : false
                    },
                    "animationTracks" : {

                    }
                  },
                  {
                    "id" : 351,
                    "_type" : "AMFile",
                    "src" : 11,
                    "trackNumber" : 0,
                    "attributes" : {
                      "ident" : "Recording edited1",
                      "gain" : 1.85,
                      "mixToMono" : false
                    },
                      "channelNumber" : "0,1",
                    "parameters" : {
                      "volume" : 1.89795918367346
                    },
                    "effects" : [

                    ],
                    "start" : 982,
                    "duration" : 61,
                    "mediaStart" : 741,
                    "mediaDuration" : 61,
                    "scalar" : 1,
                    "metadata" : {
                      "clipSpeedAttribute" : false
                    },
                    "animationTracks" : {

                    }
                  },
                  {
                    "id" : 352,
                    "_type" : "AMFile",
                    "src" : 11,
                    "trackNumber" : 0,
                    "attributes" : {
                      "ident" : "Recording edited1",
                      "gain" : 1.85,
                      "mixToMono" : false
                    },
                      "channelNumber" : "0,1",
                    "parameters" : {
                      "volume" : 2.06122448979592
                    },
                    "effects" : [

                    ],
                    "start" : 1059,
                    "duration" : 320,
                    "mediaStart" : 802,
                    "mediaDuration" : 320,
                    "scalar" : 1,
                    "metadata" : {
                      "clipSpeedAttribute" : false
                    },
                    "animationTracks" : {

                    }
                  },
                  {
                    "id" : 353,
                    "_type" : "AMFile",
                    "src" : 3,
                    "trackNumber" : 0,
                    "attributes" : {
                      "ident" : "Ryan's voiceover audio",
                      "gain" : 1.85,
                      "mixToMono" : false
                    },
                      "channelNumber" : "0,1",
                    "parameters" : {
                      "volume" : 0.945054945054944
                    },
                    "effects" : [

                    ],
                    "start" : 1486,
                    "duration" : 79,
                    "mediaStart" : 2,
                    "mediaDuration" : 79,
                    "scalar" : 1,
                    "metadata" : {
                      "clipSpeedAttribute" : false
                    },
                    "animationTracks" : {

                    }
                  },
                  {
                    "id" : 354,
                    "_type" : "AMFile",
                    "src" : 3,
                    "trackNumber" : 0,
                    "attributes" : {
                      "ident" : "Ryan's voiceover audio",
                      "gain" : 1.85,
                      "mixToMono" : false
                    },
                      "channelNumber" : "0,1",
                    "parameters" : {
                      "volume" : 0.934065934065934
                    },
                    "effects" : [

                    ],
                    "start" : 1609,
                    "duration" : 152,
                    "mediaStart" : 82,
                    "mediaDuration" : 152,
                    "scalar" : 1,
                    "metadata" : {
                      "clipSpeedAttribute" : false
                    },
                    "animationTracks" : {

                    }
                  },
                  {
                    "id" : 355,
                    "_type" : "StitchedMedia",
                    "minMediaStart" : 0,
                    "attributes" : {
                      "ident" : "Ryan's voiceover audio",
                      "gain" : 1.85,
                      "mixToMono" : false
                    },
                    "parameters" : {
                      "volume" : 0.923076923076924,
                      "cursorOpacity" : 1.0,
                      "cursorScale" : 1.0
                    },
                    "medias" : [
                        {
                          "id" : 356,
                          "_type" : "AMFile",
                          "src" : 3,
                          "trackNumber" : 0,
                          "attributes" : {
                            "ident" : "Ryan's voiceover audio",
                            "gain" : 1.0,
                            "mixToMono" : false
                          },
                            "channelNumber" : "0,1",
                          "effects" : [

                          ],
                          "start" : 0,
                          "duration" : 340,
                          "mediaStart" : 0,
                          "mediaDuration" : 340,
                          "scalar" : 1,
                          "metadata" : {
                            "clipSpeedAttribute" : false
                          },
                          "animationTracks" : {

                          }
                        },
                        {
                          "id" : 357,
                          "_type" : "AMFile",
                          "src" : 3,
                          "trackNumber" : 0,
                          "attributes" : {
                            "ident" : "Ryan's voiceover audio",
                            "gain" : 1.0,
                            "mixToMono" : false
                          },
                            "channelNumber" : "0,1",
                          "effects" : [

                          ],
                          "start" : 340,
                          "duration" : 11004,
                          "mediaStart" : 364,
                          "mediaDuration" : 11004,
                          "scalar" : 1,
                          "metadata" : {
                            "clipSpeedAttribute" : false
                          },
                          "animationTracks" : {

                          }
                        }
                    ],
                    "effects" : [

                    ],
                    "start" : 1835,
                    "duration" : 274,
                    "mediaStart" : 238,
                    "mediaDuration" : 274,
                    "scalar" : 1,
                    "metadata" : {
                      "clipSpeedAttribute" : false
                    },
                    "animationTracks" : {

                    }
                  },
                  {
                    "id" : 358,
                    "_type" : "AMFile",
                    "src" : 3,
                    "trackNumber" : 0,
                    "attributes" : {
                      "ident" : "Ryan's voiceover audio",
                      "gain" : 1.85,
                      "mixToMono" : false
                    },
                      "channelNumber" : "0,1",
                    "parameters" : {
                      "volume" : 0.934065934065934
                    },
                    "effects" : [

                    ],
                    "start" : 2143,
                    "duration" : 104,
                    "mediaStart" : 536,
                    "mediaDuration" : 104,
                    "scalar" : 1,
                    "metadata" : {
                      "clipSpeedAttribute" : false
                    },
                    "animationTracks" : {

                    }
                  },
                  {
                    "id" : 359,
                    "_type" : "StitchedMedia",
                    "minMediaStart" : 0,
                    "attributes" : {
                      "ident" : "Ryan's voiceover audio",
                      "gain" : 1.85,
                      "mixToMono" : false
                    },
                    "parameters" : {
                      "volume" : {
                        "type" : "double",
                        "keyframes" : [
                          {
                            "endTime" : 0,
                            "time" : 0,
                            "value" : 0.890109890109889,
                            "duration" : 0
                          },
                          {
                            "endTime" : 1023,
                            "time" : 1023,
                            "value" : 0.890109890109889,
                            "duration" : 0
                          },
                          {
                            "endTime" : 1024,
                            "time" : 1024,
                            "value" : 0.89010989010989,
                            "duration" : 0
                          }
                        ]
                      },
                      "cursorOpacity" : 1.0,
                      "cursorScale" : 1.0
                    },
                    "medias" : [
                        {
                          "id" : 360,
                          "_type" : "AMFile",
                          "src" : 3,
                          "trackNumber" : 0,
                          "attributes" : {
                            "ident" : "Ryan's voiceover audio",
                            "gain" : 1.0,
                            "mixToMono" : false
                          },
                            "channelNumber" : "0,1",
                          "effects" : [

                          ],
                          "start" : 0,
                          "duration" : 736,
                          "mediaStart" : 0,
                          "mediaDuration" : 736,
                          "scalar" : 1,
                          "metadata" : {
                            "clipSpeedAttribute" : false
                          },
                          "animationTracks" : {

                          }
                        },
                        {
                          "id" : 361,
                          "_type" : "AMFile",
                          "src" : 3,
                          "trackNumber" : 0,
                          "attributes" : {
                            "ident" : "Ryan's voiceover audio",
                            "gain" : 1.0,
                            "mixToMono" : false
                          },
                            "channelNumber" : "0,1",
                          "effects" : [

                          ],
                          "start" : 736,
                          "duration" : 152,
                          "mediaStart" : 750,
                          "mediaDuration" : 152,
                          "scalar" : 1,
                          "metadata" : {
                            "clipSpeedAttribute" : false
                          },
                          "animationTracks" : {

                          }
                        },
                        {
                          "id" : 362,
                          "_type" : "AMFile",
                          "src" : 3,
                          "trackNumber" : 0,
                          "attributes" : {
                            "ident" : "Ryan's voiceover audio",
                            "gain" : 1.0,
                            "mixToMono" : false
                          },
                            "channelNumber" : "0,1",
                          "effects" : [

                          ],
                          "start" : 888,
                          "duration" : 40,
                          "mediaStart" : 918,
                          "mediaDuration" : 40,
                          "scalar" : 1,
                          "metadata" : {
                            "clipSpeedAttribute" : false
                          },
                          "animationTracks" : {

                          }
                        },
                        {
                          "id" : 363,
                          "_type" : "AMFile",
                          "src" : 3,
                          "trackNumber" : 0,
                          "attributes" : {
                            "ident" : "Ryan's voiceover audio",
                            "gain" : 1.0,
                            "mixToMono" : false
                          },
                            "channelNumber" : "0,1",
                          "effects" : [

                          ],
                          "start" : 928,
                          "duration" : 96,
                          "mediaStart" : 980,
                          "mediaDuration" : 96,
                          "scalar" : 1,
                          "metadata" : {
                            "clipSpeedAttribute" : false
                          },
                          "animationTracks" : {

                          }
                        },
                        {
                          "id" : 364,
                          "_type" : "AMFile",
                          "src" : 3,
                          "trackNumber" : 0,
                          "attributes" : {
                            "ident" : "Ryan's voiceover audio",
                            "gain" : 1.0,
                            "mixToMono" : false
                          },
                            "channelNumber" : "0,1",
                          "effects" : [

                          ],
                          "start" : 1024,
                          "duration" : 10292,
                          "mediaStart" : 1076,
                          "mediaDuration" : 10292,
                          "scalar" : 1,
                          "metadata" : {
                            "clipSpeedAttribute" : false
                          },
                          "animationTracks" : {

                          }
                        }
                    ],
                    "effects" : [

                    ],
                    "start" : 2325,
                    "duration" : 564,
                    "mediaStart" : 674,
                    "mediaDuration" : 564,
                    "scalar" : 1,
                    "metadata" : {
                      "clipSpeedAttribute" : false
                    },
                    "animationTracks" : {

                    }
                  },
                  {
                    "id" : 365,
                    "_type" : "AMFile",
                    "src" : 3,
                    "trackNumber" : 0,
                    "attributes" : {
                      "ident" : "Ryan's voiceover audio",
                      "gain" : 1.85,
                      "mixToMono" : false
                    },
                      "channelNumber" : "0,1",
                    "parameters" : {
                      "volume" : 0.901098901098897
                    },
                    "effects" : [

                    ],
                    "start" : 2963,
                    "duration" : 242,
                    "mediaStart" : 1308,
                    "mediaDuration" : 242,
                    "scalar" : 1,
                    "metadata" : {
                      "clipSpeedAttribute" : false
                    },
                    "animationTracks" : {

                    }
                  },
                  {
                    "id" : 366,
                    "_type" : "AMFile",
                    "src" : 3,
                    "trackNumber" : 0,
                    "attributes" : {
                      "ident" : "Ryan's voiceover audio",
                      "gain" : 1.85957386183872,
                      "mixToMono" : false
                    },
                      "channelNumber" : "0,1",
                    "parameters" : {
                      "volume" : 0.9010989010989
                    },
                    "effects" : [

                    ],
                    "start" : 3224,
                    "duration" : 490,
                    "mediaStart" : 1580,
                    "mediaDuration" : 490,
                    "scalar" : 1,
                    "metadata" : {
                      "clipSpeedAttribute" : false
                    },
                    "animationTracks" : {

                    }
                  },
                  {
                    "id" : 367,
                    "_type" : "AMFile",
                    "src" : 3,
                    "trackNumber" : 0,
                    "attributes" : {
                      "ident" : "Ryan's voiceover audio",
                      "gain" : 1.85,
                      "mixToMono" : false
                    },
                      "channelNumber" : "0,1",
                    "parameters" : {
                      "volume" : 0.89010989010989
                    },
                    "effects" : [

                    ],
                    "start" : 3740,
                    "duration" : 340,
                    "mediaStart" : 2090,
                    "mediaDuration" : 340,
                    "scalar" : 1,
                    "metadata" : {
                      "clipSpeedAttribute" : false
                    },
                    "animationTracks" : {

                    }
                  },
                  {
                    "id" : 368,
                    "_type" : "AMFile",
                    "src" : 3,
                    "trackNumber" : 0,
                    "attributes" : {
                      "ident" : "Ryan's voiceover audio",
                      "gain" : 1.85,
                      "mixToMono" : false
                    },
                      "channelNumber" : "0,1",
                    "parameters" : {
                      "volume" : 0.89010989010989
                    },
                    "effects" : [

                    ],
                    "start" : 4126,
                    "duration" : 136,
                    "mediaStart" : 2456,
                    "mediaDuration" : 136,
                    "scalar" : 1,
                    "metadata" : {
                      "clipSpeedAttribute" : false
                    },
                    "animationTracks" : {

                    }
                  },
                  {
                    "id" : 369,
                    "_type" : "AMFile",
                    "src" : 3,
                    "trackNumber" : 0,
                    "attributes" : {
                      "ident" : "Ryan's voiceover audio",
                      "gain" : 1.85,
                      "mixToMono" : false
                    },
                      "channelNumber" : "0,1",
                    "parameters" : {
                      "volume" : 0.879120879120879
                    },
                    "effects" : [

                    ],
                    "start" : 4273,
                    "duration" : 224,
                    "mediaStart" : 2614,
                    "mediaDuration" : 224,
                    "scalar" : 1,
                    "metadata" : {
                      "clipSpeedAttribute" : false
                    },
                    "animationTracks" : {

                    }
                  },
                  {
                    "id" : 370,
                    "_type" : "AMFile",
                    "src" : 3,
                    "trackNumber" : 0,
                    "attributes" : {
                      "ident" : "Ryan's voiceover audio",
                      "gain" : 1.85,
                      "mixToMono" : false
                    },
                      "channelNumber" : "0,1",
                    "parameters" : {
                      "volume" : 0.879120879120879
                    },
                    "effects" : [

                    ],
                    "start" : 4536,
                    "duration" : 236,
                    "mediaStart" : 2884,
                    "mediaDuration" : 236,
                    "scalar" : 1,
                    "metadata" : {
                      "clipSpeedAttribute" : false
                    },
                    "animationTracks" : {

                    }
                  },
                  {
                    "id" : 371,
                    "_type" : "StitchedMedia",
                    "minMediaStart" : 0,
                    "attributes" : {
                      "ident" : "Ryan's voiceover audio",
                      "gain" : 1.85,
                      "mixToMono" : false
                    },
                    "parameters" : {
                      "volume" : 0.89010989010989,
                      "cursorOpacity" : 1.0,
                      "cursorScale" : 1.0
                    },
                    "medias" : [
                        {
                          "id" : 372,
                          "_type" : "AMFile",
                          "src" : 3,
                          "trackNumber" : 0,
                          "attributes" : {
                            "ident" : "Ryan's voiceover audio",
                            "gain" : 1.0,
                            "mixToMono" : false
                          },
                            "channelNumber" : "0,1",
                          "effects" : [

                          ],
                          "start" : 0,
                          "duration" : 3390,
                          "mediaStart" : 0,
                          "mediaDuration" : 3390,
                          "scalar" : 1,
                          "metadata" : {
                            "clipSpeedAttribute" : false
                          },
                          "animationTracks" : {

                          }
                        },
                        {
                          "id" : 373,
                          "_type" : "AMFile",
                          "src" : 3,
                          "trackNumber" : 0,
                          "attributes" : {
                            "ident" : "Ryan's voiceover audio",
                            "gain" : 1.0,
                            "mixToMono" : false
                          },
                            "channelNumber" : "0,1",
                          "effects" : [

                          ],
                          "start" : 3390,
                          "duration" : 220,
                          "mediaStart" : 3410,
                          "mediaDuration" : 220,
                          "scalar" : 1,
                          "metadata" : {
                            "clipSpeedAttribute" : false
                          },
                          "animationTracks" : {

                          }
                        },
                        {
                          "id" : 374,
                          "_type" : "AMFile",
                          "src" : 3,
                          "trackNumber" : 0,
                          "attributes" : {
                            "ident" : "Ryan's voiceover audio",
                            "gain" : 1.0,
                            "mixToMono" : false
                          },
                            "channelNumber" : "0,1",
                          "effects" : [

                          ],
                          "start" : 3610,
                          "duration" : 116,
                          "mediaStart" : 3650,
                          "mediaDuration" : 116,
                          "scalar" : 1,
                          "metadata" : {
                            "clipSpeedAttribute" : false
                          },
                          "animationTracks" : {

                          }
                        },
                        {
                          "id" : 375,
                          "_type" : "AMFile",
                          "src" : 3,
                          "trackNumber" : 0,
                          "attributes" : {
                            "ident" : "Ryan's voiceover audio",
                            "gain" : 1.0,
                            "mixToMono" : false
                          },
                            "channelNumber" : "0,1",
                          "effects" : [

                          ],
                          "start" : 3726,
                          "duration" : 96,
                          "mediaStart" : 3782,
                          "mediaDuration" : 96,
                          "scalar" : 1,
                          "metadata" : {
                            "clipSpeedAttribute" : false
                          },
                          "animationTracks" : {

                          }
                        },
                        {
                          "id" : 376,
                          "_type" : "AMFile",
                          "src" : 3,
                          "trackNumber" : 0,
                          "attributes" : {
                            "ident" : "Ryan's voiceover audio",
                            "gain" : 1.0,
                            "mixToMono" : false
                          },
                            "channelNumber" : "0,1",
                          "effects" : [

                          ],
                          "start" : 3822,
                          "duration" : 506,
                          "mediaStart" : 3894,
                          "mediaDuration" : 506,
                          "scalar" : 1,
                          "metadata" : {
                            "clipSpeedAttribute" : false
                          },
                          "animationTracks" : {

                          }
                        },
                        {
                          "id" : 377,
                          "_type" : "AMFile",
                          "src" : 3,
                          "trackNumber" : 0,
                          "attributes" : {
                            "ident" : "Ryan's voiceover audio",
                            "gain" : 1.0,
                            "mixToMono" : false
                          },
                            "channelNumber" : "0,1",
                          "effects" : [

                          ],
                          "start" : 4328,
                          "duration" : 250,
                          "mediaStart" : 4434,
                          "mediaDuration" : 250,
                          "scalar" : 1,
                          "metadata" : {
                            "clipSpeedAttribute" : false
                          },
                          "animationTracks" : {

                          }
                        },
                        {
                          "id" : 378,
                          "_type" : "AMFile",
                          "src" : 3,
                          "trackNumber" : 0,
                          "attributes" : {
                            "ident" : "Ryan's voiceover audio",
                            "gain" : 1.0,
                            "mixToMono" : false
                          },
                            "channelNumber" : "0,1",
                          "effects" : [

                          ],
                          "start" : 4578,
                          "duration" : 160,
                          "mediaStart" : 4710,
                          "mediaDuration" : 160,
                          "scalar" : 1,
                          "metadata" : {
                            "clipSpeedAttribute" : false
                          },
                          "animationTracks" : {

                          }
                        },
                        {
                          "id" : 379,
                          "_type" : "AMFile",
                          "src" : 3,
                          "trackNumber" : 0,
                          "attributes" : {
                            "ident" : "Ryan's voiceover audio",
                            "gain" : 1.0,
                            "mixToMono" : false
                          },
                            "channelNumber" : "0,1",
                          "effects" : [

                          ],
                          "start" : 4738,
                          "duration" : 232,
                          "mediaStart" : 4886,
                          "mediaDuration" : 232,
                          "scalar" : 1,
                          "metadata" : {
                            "clipSpeedAttribute" : false
                          },
                          "animationTracks" : {

                          }
                        },
                        {
                          "id" : 380,
                          "_type" : "AMFile",
                          "src" : 3,
                          "trackNumber" : 0,
                          "attributes" : {
                            "ident" : "Ryan's voiceover audio",
                            "gain" : 1.0,
                            "mixToMono" : false
                          },
                            "channelNumber" : "0,1",
                          "effects" : [

                          ],
                          "start" : 4970,
                          "duration" : 34,
                          "mediaStart" : 5150,
                          "mediaDuration" : 34,
                          "scalar" : 1,
                          "metadata" : {
                            "clipSpeedAttribute" : false
                          },
                          "animationTracks" : {

                          }
                        },
                        {
                          "id" : 381,
                          "_type" : "AMFile",
                          "src" : 3,
                          "trackNumber" : 0,
                          "attributes" : {
                            "ident" : "Ryan's voiceover audio",
                            "gain" : 1.0,
                            "mixToMono" : false
                          },
                            "channelNumber" : "0,1",
                          "effects" : [

                          ],
                          "start" : 5004,
                          "duration" : 326,
                          "mediaStart" : 5198,
                          "mediaDuration" : 326,
                          "scalar" : 1,
                          "metadata" : {
                            "clipSpeedAttribute" : false
                          },
                          "animationTracks" : {

                          }
                        },
                        {
                          "id" : 382,
                          "_type" : "AMFile",
                          "src" : 3,
                          "trackNumber" : 0,
                          "attributes" : {
                            "ident" : "Ryan's voiceover audio",
                            "gain" : 1.0,
                            "mixToMono" : false
                          },
                            "channelNumber" : "0,1",
                          "effects" : [

                          ],
                          "start" : 5330,
                          "duration" : 5832,
                          "mediaStart" : 5536,
                          "mediaDuration" : 5832,
                          "scalar" : 1,
                          "metadata" : {
                            "clipSpeedAttribute" : false
                          },
                          "animationTracks" : {

                          }
                        }
                    ],
                    "effects" : [

                    ],
                    "start" : 4817,
                    "duration" : 2290,
                    "mediaStart" : 3142,
                    "mediaDuration" : 2290,
                    "scalar" : 1,
                    "metadata" : {
                      "clipSpeedAttribute" : false
                    },
                    "animationTracks" : {

                    }
                  },
                  {
                    "id" : 383,
                    "_type" : "StitchedMedia",
                    "minMediaStart" : 0,
                    "attributes" : {
                      "ident" : "Ryan's voiceover audio",
                      "gain" : 1.85,
                      "mixToMono" : false
                    },
                    "parameters" : {
                      "volume" : 0.934065934065934,
                      "cursorOpacity" : 1.0,
                      "cursorScale" : 1.0
                    },
                    "medias" : [
                        {
                          "id" : 384,
                          "_type" : "AMFile",
                          "src" : 3,
                          "trackNumber" : 0,
                          "attributes" : {
                            "ident" : "Ryan's voiceover audio",
                            "gain" : 1.0,
                            "mixToMono" : false
                          },
                            "channelNumber" : "0,1",
                          "effects" : [

                          ],
                          "start" : 0,
                          "duration" : 5890,
                          "mediaStart" : 0,
                          "mediaDuration" : 5890,
                          "scalar" : 1,
                          "metadata" : {
                            "clipSpeedAttribute" : false
                          },
                          "animationTracks" : {

                          }
                        },
                        {
                          "id" : 385,
                          "_type" : "AMFile",
                          "src" : 3,
                          "trackNumber" : 0,
                          "attributes" : {
                            "ident" : "Ryan's voiceover audio",
                            "gain" : 1.0,
                            "mixToMono" : false
                          },
                            "channelNumber" : "0,1",
                          "effects" : [

                          ],
                          "start" : 5890,
                          "duration" : 5464,
                          "mediaStart" : 5904,
                          "mediaDuration" : 5464,
                          "scalar" : 1,
                          "metadata" : {
                            "clipSpeedAttribute" : false
                          },
                          "animationTracks" : {

                          }
                        }
                    ],
                    "effects" : [

                    ],
                    "start" : 7107,
                    "duration" : 258,
                    "mediaStart" : 5772,
                    "mediaDuration" : 258,
                    "scalar" : 1,
                    "metadata" : {
                      "clipSpeedAttribute" : false
                    },
                    "animationTracks" : {

                    }
                  },
                  {
                    "id" : 386,
                    "_type" : "AMFile",
                    "src" : 3,
                    "trackNumber" : 0,
                    "attributes" : {
                      "ident" : "Ryan's voiceover audio",
                      "gain" : 1.85,
                      "mixToMono" : false
                    },
                      "channelNumber" : "0,1",
                    "parameters" : {
                      "volume" : 0.89010989010989
                    },
                    "effects" : [

                    ],
                    "start" : 7382,
                    "duration" : 62,
                    "mediaStart" : 6054,
                    "mediaDuration" : 62,
                    "scalar" : 1,
                    "metadata" : {
                      "clipSpeedAttribute" : false
                    },
                    "animationTracks" : {

                    }
                  },
                  {
                    "id" : 387,
                    "_type" : "AMFile",
                    "src" : 3,
                    "trackNumber" : 0,
                    "attributes" : {
                      "ident" : "Ryan's voiceover audio",
                      "gain" : 1.85,
                      "mixToMono" : false
                    },
                      "channelNumber" : "0,1",
                    "parameters" : {
                      "volume" : 0.956043956043955
                    },
                    "effects" : [

                    ],
                    "start" : 7490,
                    "duration" : 466,
                    "mediaStart" : 6129,
                    "mediaDuration" : 466,
                    "scalar" : 1,
                    "metadata" : {
                      "clipSpeedAttribute" : false
                    },
                    "animationTracks" : {

                    }
                  },
                  {
                    "id" : 388,
                    "_type" : "StitchedMedia",
                    "minMediaStart" : 0,
                    "attributes" : {
                      "ident" : "Ryan's voiceover audio",
                      "gain" : 1.85957386183872,
                      "mixToMono" : false
                    },
                    "parameters" : {
                      "volume" : 0.956043956043955,
                      "cursorOpacity" : 1.0,
                      "cursorScale" : 1.0
                    },
                    "medias" : [
                        {
                          "id" : 389,
                          "_type" : "AMFile",
                          "src" : 3,
                          "trackNumber" : 0,
                          "attributes" : {
                            "ident" : "Ryan's voiceover audio",
                            "gain" : 1.0,
                            "mixToMono" : false
                          },
                            "channelNumber" : "0,1",
                          "effects" : [

                          ],
                          "start" : 0,
                          "duration" : 7226,
                          "mediaStart" : 0,
                          "mediaDuration" : 7226,
                          "scalar" : 1,
                          "metadata" : {
                            "clipSpeedAttribute" : false
                          },
                          "animationTracks" : {

                          }
                        },
                        {
                          "id" : 390,
                          "_type" : "AMFile",
                          "src" : 3,
                          "trackNumber" : 0,
                          "attributes" : {
                            "ident" : "Ryan's voiceover audio",
                            "gain" : 1.0,
                            "mixToMono" : false
                          },
                            "channelNumber" : "0,1",
                          "effects" : [

                          ],
                          "start" : 7226,
                          "duration" : 140,
                          "mediaStart" : 7244,
                          "mediaDuration" : 140,
                          "scalar" : 1,
                          "metadata" : {
                            "clipSpeedAttribute" : false
                          },
                          "animationTracks" : {

                          }
                        },
                        {
                          "id" : 391,
                          "_type" : "AMFile",
                          "src" : 3,
                          "trackNumber" : 0,
                          "attributes" : {
                            "ident" : "Ryan's voiceover audio",
                            "gain" : 1.0,
                            "mixToMono" : false
                          },
                            "channelNumber" : "0,1",
                          "effects" : [

                          ],
                          "start" : 7366,
                          "duration" : 370,
                          "mediaStart" : 7416,
                          "mediaDuration" : 370,
                          "scalar" : 1,
                          "metadata" : {
                            "clipSpeedAttribute" : false
                          },
                          "animationTracks" : {

                          }
                        },
                        {
                          "id" : 392,
                          "_type" : "AMFile",
                          "src" : 3,
                          "trackNumber" : 0,
                          "attributes" : {
                            "ident" : "Ryan's voiceover audio",
                            "gain" : 1.0,
                            "mixToMono" : false
                          },
                            "channelNumber" : "0,1",
                          "effects" : [

                          ],
                          "start" : 7736,
                          "duration" : 102,
                          "mediaStart" : 7802,
                          "mediaDuration" : 102,
                          "scalar" : 1,
                          "metadata" : {
                            "clipSpeedAttribute" : false
                          },
                          "animationTracks" : {

                          }
                        },
                        {
                          "id" : 393,
                          "_type" : "AMFile",
                          "src" : 3,
                          "trackNumber" : 0,
                          "attributes" : {
                            "ident" : "Ryan's voiceover audio",
                            "gain" : 1.0,
                            "mixToMono" : false
                          },
                            "channelNumber" : "0,1",
                          "effects" : [

                          ],
                          "start" : 7838,
                          "duration" : 140,
                          "mediaStart" : 7920,
                          "mediaDuration" : 140,
                          "scalar" : 1,
                          "metadata" : {
                            "clipSpeedAttribute" : false
                          },
                          "animationTracks" : {

                          }
                        },
                        {
                          "id" : 394,
                          "_type" : "AMFile",
                          "src" : 3,
                          "trackNumber" : 0,
                          "attributes" : {
                            "ident" : "Ryan's voiceover audio",
                            "gain" : 1.0,
                            "mixToMono" : false
                          },
                            "channelNumber" : "0,1",
                          "effects" : [

                          ],
                          "start" : 7978,
                          "duration" : 516,
                          "mediaStart" : 8072,
                          "mediaDuration" : 516,
                          "scalar" : 1,
                          "metadata" : {
                            "clipSpeedAttribute" : false
                          },
                          "animationTracks" : {

                          }
                        },
                        {
                          "id" : 395,
                          "_type" : "AMFile",
                          "src" : 3,
                          "trackNumber" : 0,
                          "attributes" : {
                            "ident" : "Ryan's voiceover audio",
                            "gain" : 1.0,
                            "mixToMono" : false
                          },
                            "channelNumber" : "0,1",
                          "effects" : [

                          ],
                          "start" : 8494,
                          "duration" : 358,
                          "mediaStart" : 8602,
                          "mediaDuration" : 358,
                          "scalar" : 1,
                          "metadata" : {
                            "clipSpeedAttribute" : false
                          },
                          "animationTracks" : {

                          }
                        },
                        {
                          "id" : 396,
                          "_type" : "AMFile",
                          "src" : 3,
                          "trackNumber" : 0,
                          "attributes" : {
                            "ident" : "Ryan's voiceover audio",
                            "gain" : 1.0,
                            "mixToMono" : false
                          },
                            "channelNumber" : "0,1",
                          "effects" : [

                          ],
                          "start" : 8852,
                          "duration" : 2398,
                          "mediaStart" : 8970,
                          "mediaDuration" : 2398,
                          "scalar" : 1,
                          "metadata" : {
                            "clipSpeedAttribute" : false
                          },
                          "animationTracks" : {

                          }
                        }
                    ],
                    "effects" : [

                    ],
                    "start" : 8049,
                    "duration" : 1219,
                    "mediaStart" : 6618,
                    "mediaDuration" : 1219,
                    "scalar" : 1,
                    "metadata" : {
                      "clipSpeedAttribute" : false
                    },
                    "animationTracks" : {

                    }
                  },
                  {
                    "id" : 397,
                    "_type" : "StitchedMedia",
                    "minMediaStart" : 0,
                    "attributes" : {
                      "ident" : "Ryan's voiceover audio",
                      "gain" : 1.85,
                      "mixToMono" : false
                    },
                    "parameters" : {
                      "volume" : 0.967032967032965,
                      "cursorOpacity" : 1.0,
                      "cursorScale" : 1.0
                    },
                    "medias" : [
                        {
                          "id" : 398,
                          "_type" : "AMFile",
                          "src" : 3,
                          "trackNumber" : 0,
                          "attributes" : {
                            "ident" : "Ryan's voiceover audio",
                            "gain" : 1.0,
                            "mixToMono" : false
                          },
                            "channelNumber" : "0,1",
                          "effects" : [

                          ],
                          "start" : 0,
                          "duration" : 7226,
                          "mediaStart" : 0,
                          "mediaDuration" : 7226,
                          "scalar" : 1,
                          "metadata" : {
                            "clipSpeedAttribute" : false
                          },
                          "animationTracks" : {

                          }
                        },
                        {
                          "id" : 399,
                          "_type" : "AMFile",
                          "src" : 3,
                          "trackNumber" : 0,
                          "attributes" : {
                            "ident" : "Ryan's voiceover audio",
                            "gain" : 1.0,
                            "mixToMono" : false
                          },
                            "channelNumber" : "0,1",
                          "effects" : [

                          ],
                          "start" : 7226,
                          "duration" : 140,
                          "mediaStart" : 7244,
                          "mediaDuration" : 140,
                          "scalar" : 1,
                          "metadata" : {
                            "clipSpeedAttribute" : false
                          },
                          "animationTracks" : {

                          }
                        },
                        {
                          "id" : 400,
                          "_type" : "AMFile",
                          "src" : 3,
                          "trackNumber" : 0,
                          "attributes" : {
                            "ident" : "Ryan's voiceover audio",
                            "gain" : 1.0,
                            "mixToMono" : false
                          },
                            "channelNumber" : "0,1",
                          "effects" : [

                          ],
                          "start" : 7366,
                          "duration" : 370,
                          "mediaStart" : 7416,
                          "mediaDuration" : 370,
                          "scalar" : 1,
                          "metadata" : {
                            "clipSpeedAttribute" : false
                          },
                          "animationTracks" : {

                          }
                        },
                        {
                          "id" : 401,
                          "_type" : "AMFile",
                          "src" : 3,
                          "trackNumber" : 0,
                          "attributes" : {
                            "ident" : "Ryan's voiceover audio",
                            "gain" : 1.0,
                            "mixToMono" : false
                          },
                            "channelNumber" : "0,1",
                          "effects" : [

                          ],
                          "start" : 7736,
                          "duration" : 102,
                          "mediaStart" : 7802,
                          "mediaDuration" : 102,
                          "scalar" : 1,
                          "metadata" : {
                            "clipSpeedAttribute" : false
                          },
                          "animationTracks" : {

                          }
                        },
                        {
                          "id" : 402,
                          "_type" : "AMFile",
                          "src" : 3,
                          "trackNumber" : 0,
                          "attributes" : {
                            "ident" : "Ryan's voiceover audio",
                            "gain" : 1.0,
                            "mixToMono" : false
                          },
                            "channelNumber" : "0,1",
                          "effects" : [

                          ],
                          "start" : 7838,
                          "duration" : 140,
                          "mediaStart" : 7920,
                          "mediaDuration" : 140,
                          "scalar" : 1,
                          "metadata" : {
                            "clipSpeedAttribute" : false
                          },
                          "animationTracks" : {

                          }
                        },
                        {
                          "id" : 403,
                          "_type" : "AMFile",
                          "src" : 3,
                          "trackNumber" : 0,
                          "attributes" : {
                            "ident" : "Ryan's voiceover audio",
                            "gain" : 1.0,
                            "mixToMono" : false
                          },
                            "channelNumber" : "0,1",
                          "effects" : [

                          ],
                          "start" : 7978,
                          "duration" : 516,
                          "mediaStart" : 8072,
                          "mediaDuration" : 516,
                          "scalar" : 1,
                          "metadata" : {
                            "clipSpeedAttribute" : false
                          },
                          "animationTracks" : {

                          }
                        },
                        {
                          "id" : 404,
                          "_type" : "AMFile",
                          "src" : 3,
                          "trackNumber" : 0,
                          "attributes" : {
                            "ident" : "Ryan's voiceover audio",
                            "gain" : 1.0,
                            "mixToMono" : false
                          },
                            "channelNumber" : "0,1",
                          "effects" : [

                          ],
                          "start" : 8494,
                          "duration" : 358,
                          "mediaStart" : 8602,
                          "mediaDuration" : 358,
                          "scalar" : 1,
                          "metadata" : {
                            "clipSpeedAttribute" : false
                          },
                          "animationTracks" : {

                          }
                        },
                        {
                          "id" : 405,
                          "_type" : "AMFile",
                          "src" : 3,
                          "trackNumber" : 0,
                          "attributes" : {
                            "ident" : "Ryan's voiceover audio",
                            "gain" : 1.0,
                            "mixToMono" : false
                          },
                            "channelNumber" : "0,1",
                          "effects" : [

                          ],
                          "start" : 8852,
                          "duration" : 2398,
                          "mediaStart" : 8970,
                          "mediaDuration" : 2398,
                          "scalar" : 1,
                          "metadata" : {
                            "clipSpeedAttribute" : false
                          },
                          "animationTracks" : {

                          }
                        }
                    ],
                    "effects" : [

                    ],
                    "start" : 9302,
                    "duration" : 1014,
                    "mediaStart" : 7837,
                    "mediaDuration" : 1014,
                    "scalar" : 1,
                    "metadata" : {
                      "clipSpeedAttribute" : false
                    },
                    "animationTracks" : {

                    }
                  },
                  {
                    "id" : 406,
                    "_type" : "StitchedMedia",
                    "minMediaStart" : 0,
                    "attributes" : {
                      "ident" : "Ryan's voiceover audio",
                      "gain" : 1.85,
                      "mixToMono" : false
                    },
                    "parameters" : {
                      "volume" : 0.923076923076924,
                      "cursorOpacity" : 1.0,
                      "cursorScale" : 1.0
                    },
                    "medias" : [
                        {
                          "id" : 407,
                          "_type" : "AMFile",
                          "src" : 3,
                          "trackNumber" : 0,
                          "attributes" : {
                            "ident" : "Ryan's voiceover audio",
                            "gain" : 1.0,
                            "mixToMono" : false
                          },
                            "channelNumber" : "0,1",
                          "effects" : [

                          ],
                          "start" : 0,
                          "duration" : 7226,
                          "mediaStart" : 0,
                          "mediaDuration" : 7226,
                          "scalar" : 1,
                          "metadata" : {
                            "clipSpeedAttribute" : false
                          },
                          "animationTracks" : {

                          }
                        },
                        {
                          "id" : 408,
                          "_type" : "AMFile",
                          "src" : 3,
                          "trackNumber" : 0,
                          "attributes" : {
                            "ident" : "Ryan's voiceover audio",
                            "gain" : 1.0,
                            "mixToMono" : false
                          },
                            "channelNumber" : "0,1",
                          "effects" : [

                          ],
                          "start" : 7226,
                          "duration" : 140,
                          "mediaStart" : 7244,
                          "mediaDuration" : 140,
                          "scalar" : 1,
                          "metadata" : {
                            "clipSpeedAttribute" : false
                          },
                          "animationTracks" : {

                          }
                        },
                        {
                          "id" : 409,
                          "_type" : "AMFile",
                          "src" : 3,
                          "trackNumber" : 0,
                          "attributes" : {
                            "ident" : "Ryan's voiceover audio",
                            "gain" : 1.0,
                            "mixToMono" : false
                          },
                            "channelNumber" : "0,1",
                          "effects" : [

                          ],
                          "start" : 7366,
                          "duration" : 370,
                          "mediaStart" : 7416,
                          "mediaDuration" : 370,
                          "scalar" : 1,
                          "metadata" : {
                            "clipSpeedAttribute" : false
                          },
                          "animationTracks" : {

                          }
                        },
                        {
                          "id" : 410,
                          "_type" : "AMFile",
                          "src" : 3,
                          "trackNumber" : 0,
                          "attributes" : {
                            "ident" : "Ryan's voiceover audio",
                            "gain" : 1.0,
                            "mixToMono" : false
                          },
                            "channelNumber" : "0,1",
                          "effects" : [

                          ],
                          "start" : 7736,
                          "duration" : 102,
                          "mediaStart" : 7802,
                          "mediaDuration" : 102,
                          "scalar" : 1,
                          "metadata" : {
                            "clipSpeedAttribute" : false
                          },
                          "animationTracks" : {

                          }
                        },
                        {
                          "id" : 411,
                          "_type" : "AMFile",
                          "src" : 3,
                          "trackNumber" : 0,
                          "attributes" : {
                            "ident" : "Ryan's voiceover audio",
                            "gain" : 1.0,
                            "mixToMono" : false
                          },
                            "channelNumber" : "0,1",
                          "effects" : [

                          ],
                          "start" : 7838,
                          "duration" : 140,
                          "mediaStart" : 7920,
                          "mediaDuration" : 140,
                          "scalar" : 1,
                          "metadata" : {
                            "clipSpeedAttribute" : false
                          },
                          "animationTracks" : {

                          }
                        },
                        {
                          "id" : 412,
                          "_type" : "AMFile",
                          "src" : 3,
                          "trackNumber" : 0,
                          "attributes" : {
                            "ident" : "Ryan's voiceover audio",
                            "gain" : 1.0,
                            "mixToMono" : false
                          },
                            "channelNumber" : "0,1",
                          "effects" : [

                          ],
                          "start" : 7978,
                          "duration" : 516,
                          "mediaStart" : 8072,
                          "mediaDuration" : 516,
                          "scalar" : 1,
                          "metadata" : {
                            "clipSpeedAttribute" : false
                          },
                          "animationTracks" : {

                          }
                        },
                        {
                          "id" : 413,
                          "_type" : "AMFile",
                          "src" : 3,
                          "trackNumber" : 0,
                          "attributes" : {
                            "ident" : "Ryan's voiceover audio",
                            "gain" : 1.0,
                            "mixToMono" : false
                          },
                            "channelNumber" : "0,1",
                          "effects" : [

                          ],
                          "start" : 8494,
                          "duration" : 358,
                          "mediaStart" : 8602,
                          "mediaDuration" : 358,
                          "scalar" : 1,
                          "metadata" : {
                            "clipSpeedAttribute" : false
                          },
                          "animationTracks" : {

                          }
                        },
                        {
                          "id" : 414,
                          "_type" : "AMFile",
                          "src" : 3,
                          "trackNumber" : 0,
                          "attributes" : {
                            "ident" : "Ryan's voiceover audio",
                            "gain" : 1.0,
                            "mixToMono" : false
                          },
                            "channelNumber" : "0,1",
                          "effects" : [

                          ],
                          "start" : 8852,
                          "duration" : 2398,
                          "mediaStart" : 8970,
                          "mediaDuration" : 2398,
                          "scalar" : 1,
                          "metadata" : {
                            "clipSpeedAttribute" : false
                          },
                          "animationTracks" : {

                          }
                        }
                    ],
                    "effects" : [

                    ],
                    "start" : 10336,
                    "duration" : 115,
                    "mediaStart" : 8851,
                    "mediaDuration" : 115,
                    "scalar" : 1,
                    "metadata" : {
                      "clipSpeedAttribute" : false
                    },
                    "animationTracks" : {

                    }
                  },
                  {
                    "id" : 415,
                    "_type" : "StitchedMedia",
                    "minMediaStart" : 0,
                    "attributes" : {
                      "ident" : "Recording edited(2)",
                      "gain" : 1.85,
                      "mixToMono" : false
                    },
                    "parameters" : {
                      "volume" : 1.57142857142856,
                      "cursorOpacity" : 1.0,
                      "cursorScale" : 1.0
                    },
                    "medias" : [
                        {
                          "id" : 416,
                          "_type" : "AMFile",
                          "src" : 25,
                          "trackNumber" : 0,
                          "attributes" : {
                            "ident" : "Recording edited(2)",
                            "gain" : 1.0,
                            "mixToMono" : false
                          },
                            "channelNumber" : "0,1",
                          "effects" : [

                          ],
                          "start" : 0,
                          "duration" : 1128,
                          "mediaStart" : 0,
                          "mediaDuration" : 1128,
                          "scalar" : 1,
                          "metadata" : {
                            "clipSpeedAttribute" : false
                          },
                          "animationTracks" : {

                          }
                        },
                        {
                          "id" : 417,
                          "_type" : "AMFile",
                          "src" : 25,
                          "trackNumber" : 0,
                          "attributes" : {
                            "ident" : "Recording edited(2)",
                            "gain" : 1.0,
                            "mixToMono" : false
                          },
                            "channelNumber" : "0,1",
                          "effects" : [

                          ],
                          "start" : 1128,
                          "duration" : 45,
                          "mediaStart" : 1159,
                          "mediaDuration" : 45,
                          "scalar" : 1,
                          "metadata" : {
                            "clipSpeedAttribute" : false
                          },
                          "animationTracks" : {

                          }
                        },
                        {
                          "id" : 418,
                          "_type" : "AMFile",
                          "src" : 25,
                          "trackNumber" : 0,
                          "attributes" : {
                            "ident" : "Recording edited(2)",
                            "gain" : 1.0,
                            "mixToMono" : false
                          },
                            "channelNumber" : "0,1",
                          "effects" : [

                          ],
                          "start" : 1173,
                          "duration" : 436,
                          "mediaStart" : 1212,
                          "mediaDuration" : 436,
                          "scalar" : 1,
                          "metadata" : {
                            "clipSpeedAttribute" : false
                          },
                          "animationTracks" : {

                          }
                        }
                    ],
                    "effects" : [

                    ],
                    "start" : 12836,
                    "duration" : 1609,
                    "mediaStart" : 0,
                    "mediaDuration" : 1609,
                    "scalar" : 1,
                    "metadata" : {
                      "clipSpeedAttribute" : false
                    },
                    "animationTracks" : {

                    }
                  },
                  {
                    "id" : 419,
                    "_type" : "AMFile",
                    "src" : 32,
                    "trackNumber" : 0,
                    "attributes" : {
                      "ident" : "Recording (3) edited",
                      "gain" : 1.85,
                      "mixToMono" : false
                    },
                      "channelNumber" : "0,1",
                    "parameters" : {
                      "volume" : 1.57142857142856
                    },
                    "effects" : [

                    ],
                    "start" : 14507,
                    "duration" : 556,
                    "mediaStart" : 0,
                    "mediaDuration" : 556,
                    "scalar" : 1,
                    "metadata" : {
                      "clipSpeedAttribute" : false
                    },
                    "animationTracks" : {

                    }
                  },
                  {
                    "id" : 420,
                    "_type" : "AMFile",
                    "src" : 51,
                    "trackNumber" : 0,
                    "attributes" : {
                      "ident" : "Recording (4) edited",
                      "gain" : 1.85,
                      "mixToMono" : false
                    },
                      "channelNumber" : "0,1",
                    "parameters" : {
                      "volume" : 1.40816326530612
                    },
                    "effects" : [

                    ],
                    "start" : 15118,
                    "duration" : 228,
                    "mediaStart" : 0,
                    "mediaDuration" : 228,
                    "scalar" : 1,
                    "metadata" : {
                      "clipSpeedAttribute" : false
                    },
                    "animationTracks" : {

                    }
                  },
                  {
                    "id" : 421,
                    "_type" : "AMFile",
                    "src" : 51,
                    "trackNumber" : 0,
                    "attributes" : {
                      "ident" : "Recording (4) edited",
                      "gain" : 1.85,
                      "mixToMono" : false
                    },
                      "channelNumber" : "0,1",
                    "parameters" : {
                      "volume" : 1.40816326530612
                    },
                    "effects" : [

                    ],
                    "start" : 15400,
                    "duration" : 370,
                    "mediaStart" : 252,
                    "mediaDuration" : 370,
                    "scalar" : 1,
                    "metadata" : {
                      "clipSpeedAttribute" : false
                    },
                    "animationTracks" : {

                    }
                  },
                  {
                    "id" : 422,
                    "_type" : "AMFile",
                    "src" : 50,
                    "trackNumber" : 0,
                    "attributes" : {
                      "ident" : "Recording (5) edited",
                      "gain" : 1.85,
                      "mixToMono" : false
                    },
                      "channelNumber" : "0,1",
                    "parameters" : {
                      "volume" : 1.40816326530612
                    },
                    "effects" : [

                    ],
                    "start" : 16001,
                    "duration" : 424,
                    "mediaStart" : 0,
                    "mediaDuration" : 424,
                    "scalar" : 1,
                    "metadata" : {
                      "clipSpeedAttribute" : false
                    },
                    "animationTracks" : {

                    }
                  },
                  {
                    "id" : 423,
                    "_type" : "AMFile",
                    "src" : 50,
                    "trackNumber" : 0,
                    "attributes" : {
                      "ident" : "Recording (5) edited",
                      "gain" : 1.85,
                      "mixToMono" : false
                    },
                      "channelNumber" : "0,1",
                    "parameters" : {
                      "volume" : 1.40816326530612
                    },
                    "effects" : [

                    ],
                    "start" : 16484,
                    "duration" : 220,
                    "mediaStart" : 456,
                    "mediaDuration" : 220,
                    "scalar" : 1,
                    "metadata" : {
                      "clipSpeedAttribute" : false
                    },
                    "animationTracks" : {

                    }
                  },
                  {
                    "id" : 424,
                    "_type" : "AMFile",
                    "src" : 49,
                    "trackNumber" : 0,
                    "attributes" : {
                      "ident" : "Recording (6) edited",
                      "gain" : 1.85,
                      "mixToMono" : false
                    },
                      "channelNumber" : "0,1",
                    "parameters" : {
                      "volume" : 1.40816326530612
                    },
                    "effects" : [

                    ],
                    "start" : 16790,
                    "duration" : 739,
                    "mediaStart" : 0,
                    "mediaDuration" : 739,
                    "scalar" : 1,
                    "metadata" : {
                      "clipSpeedAttribute" : false
                    },
                    "animationTracks" : {

                    }
                  },
                  {
                    "id" : 425,
                    "_type" : "AMFile",
                    "src" : 49,
                    "trackNumber" : 0,
                    "attributes" : {
                      "ident" : "Recording (6) edited",
                      "gain" : 1.85,
                      "mixToMono" : false
                    },
                      "channelNumber" : "0,1",
                    "parameters" : {
                      "volume" : 1.40816326530612
                    },
                    "effects" : [

                    ],
                    "start" : 17539,
                    "duration" : 207,
                    "mediaStart" : 780,
                    "mediaDuration" : 207,
                    "scalar" : 1,
                    "metadata" : {
                      "clipSpeedAttribute" : false
                    },
                    "animationTracks" : {

                    }
                  },
                  {
                    "id" : 426,
                    "_type" : "StitchedMedia",
                    "minMediaStart" : 0,
                    "attributes" : {
                      "ident" : "Recording (7) edited",
                      "gain" : 1.85,
                      "mixToMono" : false
                    },
                    "parameters" : {
                      "volume" : 1.08163265306121,
                      "cursorOpacity" : 1.0,
                      "cursorScale" : 1.0
                    },
                    "medias" : [
                        {
                          "id" : 427,
                          "_type" : "AMFile",
                          "src" : 48,
                          "trackNumber" : 0,
                          "attributes" : {
                            "ident" : "Recording (7) edited",
                            "gain" : 1.0,
                            "mixToMono" : false
                          },
                            "channelNumber" : "0,1",
                          "effects" : [

                          ],
                          "start" : 0,
                          "duration" : 70,
                          "mediaStart" : 0,
                          "mediaDuration" : 70,
                          "scalar" : 1,
                          "metadata" : {
                            "clipSpeedAttribute" : false
                          },
                          "animationTracks" : {

                          }
                        },
                        {
                          "id" : 428,
                          "_type" : "AMFile",
                          "src" : 48,
                          "trackNumber" : 0,
                          "attributes" : {
                            "ident" : "Recording (7) edited",
                            "gain" : 1.0,
                            "mixToMono" : false
                          },
                            "channelNumber" : "0,1",
                          "effects" : [

                          ],
                          "start" : 70,
                          "duration" : 785,
                          "mediaStart" : 83,
                          "mediaDuration" : 785,
                          "scalar" : 1,
                          "metadata" : {
                            "clipSpeedAttribute" : false
                          },
                          "animationTracks" : {

                          }
                        }
                    ],
                    "effects" : [

                    ],
                    "start" : 17760,
                    "duration" : 855,
                    "mediaStart" : 0,
                    "mediaDuration" : 855,
                    "scalar" : 1,
                    "metadata" : {
                      "clipSpeedAttribute" : false
                    },
                    "animationTracks" : {

                    }
                  },
                  {
                    "id" : 429,
                    "_type" : "AMFile",
                    "src" : 47,
                    "trackNumber" : 0,
                    "attributes" : {
                      "ident" : "Recording (8) edited",
                      "gain" : 1.85,
                      "mixToMono" : false
                    },
                      "channelNumber" : "0,1",
                    "parameters" : {
                      "volume" : 1.3265306122449
                    },
                    "effects" : [

                    ],
                    "start" : 19639,
                    "duration" : 931,
                    "mediaStart" : 0,
                    "mediaDuration" : 931,
                    "scalar" : 1,
                    "metadata" : {
                      "clipSpeedAttribute" : false
                    },
                    "animationTracks" : {

                    }
                  },
                  {
                    "id" : 430,
                    "_type" : "AMFile",
                    "src" : 46,
                    "trackNumber" : 0,
                    "attributes" : {
                      "ident" : "Recording (9) edited",
                      "gain" : 1.85,
                      "mixToMono" : false
                    },
                      "channelNumber" : "0,1",
                    "effects" : [

                    ],
                    "start" : 20814,
                    "duration" : 487,
                    "mediaStart" : 0,
                    "mediaDuration" : 487,
                    "scalar" : 1,
                    "metadata" : {
                      "clipSpeedAttribute" : false
                    },
                    "animationTracks" : {

                    }
                  },
                  {
                    "id" : 431,
                    "_type" : "StitchedMedia",
                    "minMediaStart" : 0,
                    "attributes" : {
                      "ident" : "Recording (9) edited",
                      "gain" : 1.85,
                      "mixToMono" : false
                    },
                    "parameters" : {
                      "volume" : 1.0,
                      "cursorOpacity" : 1.0,
                      "cursorScale" : 1.0
                    },
                    "medias" : [
                        {
                          "id" : 432,
                          "_type" : "AMFile",
                          "src" : 46,
                          "trackNumber" : 0,
                          "attributes" : {
                            "ident" : "Recording (9) edited",
                            "gain" : 1.0,
                            "mixToMono" : false
                          },
                            "channelNumber" : "0,1",
                          "effects" : [

                          ],
                          "start" : 0,
                          "duration" : 602,
                          "mediaStart" : 0,
                          "mediaDuration" : 602,
                          "scalar" : 1,
                          "metadata" : {
                            "clipSpeedAttribute" : false
                          },
                          "animationTracks" : {

                          }
                        },
                        {
                          "id" : 433,
                          "_type" : "AMFile",
                          "src" : 46,
                          "trackNumber" : 0,
                          "attributes" : {
                            "ident" : "Recording (9) edited",
                            "gain" : 1.0,
                            "mixToMono" : false
                          },
                            "channelNumber" : "0,1",
                          "effects" : [

                          ],
                          "start" : 602,
                          "duration" : 327,
                          "mediaStart" : 637,
                          "mediaDuration" : 327,
                          "scalar" : 1,
                          "metadata" : {
                            "clipSpeedAttribute" : false
                          },
                          "animationTracks" : {

                          }
                        }
                    ],
                    "effects" : [

                    ],
                    "start" : 21774,
                    "duration" : 442,
                    "mediaStart" : 487,
                    "mediaDuration" : 442,
                    "scalar" : 1,
                    "metadata" : {
                      "clipSpeedAttribute" : false
                    },
                    "animationTracks" : {

                    }
                  },
                  {
                    "id" : 434,
                    "_type" : "StitchedMedia",
                    "minMediaStart" : 0,
                    "attributes" : {
                      "ident" : "Recording (10) edited",
                      "gain" : 1.85,
                      "mixToMono" : false
                    },
                    "parameters" : {
                      "volume" : 1.0,
                      "cursorOpacity" : 1.0,
                      "cursorScale" : 1.0
                    },
                    "medias" : [
                        {
                          "id" : 435,
                          "_type" : "AMFile",
                          "src" : 45,
                          "trackNumber" : 0,
                          "attributes" : {
                            "ident" : "Recording (10) edited",
                            "gain" : 1.0,
                            "mixToMono" : false
                          },
                            "channelNumber" : "0,1",
                          "effects" : [

                          ],
                          "start" : 0,
                          "duration" : 194,
                          "mediaStart" : 0,
                          "mediaDuration" : 194,
                          "scalar" : 1,
                          "metadata" : {
                            "clipSpeedAttribute" : false
                          },
                          "animationTracks" : {

                          }
                        },
                        {
                          "id" : 436,
                          "_type" : "AMFile",
                          "src" : 45,
                          "trackNumber" : 0,
                          "attributes" : {
                            "ident" : "Recording (10) edited",
                            "gain" : 1.0,
                            "mixToMono" : false
                          },
                            "channelNumber" : "0,1",
                          "effects" : [

                          ],
                          "start" : 194,
                          "duration" : 694,
                          "mediaStart" : 201,
                          "mediaDuration" : 694,
                          "scalar" : 1,
                          "metadata" : {
                            "clipSpeedAttribute" : false
                          },
                          "animationTracks" : {

                          }
                        }
                    ],
                    "effects" : [

                    ],
                    "start" : 22279,
                    "duration" : 619,
                    "mediaStart" : 0,
                    "mediaDuration" : 619,
                    "scalar" : 1,
                    "metadata" : {
                      "clipSpeedAttribute" : false
                    },
                    "animationTracks" : {

                    }
                  },
                  {
                    "id" : 437,
                    "_type" : "StitchedMedia",
                    "minMediaStart" : 0,
                    "attributes" : {
                      "ident" : "Recording (10) edited",
                      "gain" : 1.85,
                      "mixToMono" : false
                    },
                    "parameters" : {
                      "volume" : 0.978021978021979,
                      "cursorOpacity" : 1.0,
                      "cursorScale" : 1.0
                    },
                    "medias" : [
                        {
                          "id" : 438,
                          "_type" : "AMFile",
                          "src" : 45,
                          "trackNumber" : 0,
                          "attributes" : {
                            "ident" : "Recording (10) edited",
                            "gain" : 1.0,
                            "mixToMono" : false
                          },
                            "channelNumber" : "0,1",
                          "effects" : [

                          ],
                          "start" : 0,
                          "duration" : 194,
                          "mediaStart" : 0,
                          "mediaDuration" : 194,
                          "scalar" : 1,
                          "metadata" : {
                            "clipSpeedAttribute" : false
                          },
                          "animationTracks" : {

                          }
                        },
                        {
                          "id" : 439,
                          "_type" : "AMFile",
                          "src" : 45,
                          "trackNumber" : 0,
                          "attributes" : {
                            "ident" : "Recording (10) edited",
                            "gain" : 1.0,
                            "mixToMono" : false
                          },
                            "channelNumber" : "0,1",
                          "effects" : [

                          ],
                          "start" : 194,
                          "duration" : 694,
                          "mediaStart" : 201,
                          "mediaDuration" : 694,
                          "scalar" : 1,
                          "metadata" : {
                            "clipSpeedAttribute" : false
                          },
                          "animationTracks" : {

                          }
                        }
                    ],
                    "effects" : [

                    ],
                    "start" : 22946,
                    "duration" : 269,
                    "mediaStart" : 619,
                    "mediaDuration" : 269,
                    "scalar" : 1,
                    "metadata" : {
                      "clipSpeedAttribute" : false
                    },
                    "animationTracks" : {

                    }
                  },
                  {
                    "id" : 440,
                    "_type" : "AMFile",
                    "src" : 44,
                    "trackNumber" : 0,
                    "attributes" : {
                      "ident" : "Recording (11) edited",
                      "gain" : 1.85,
                      "mixToMono" : false
                    },
                      "channelNumber" : "0,1",
                    "parameters" : {
                      "volume" : 0.967032967032965
                    },
                    "effects" : [

                    ],
                    "start" : 23299,
                    "duration" : 298,
                    "mediaStart" : 0,
                    "mediaDuration" : 298,
                    "scalar" : 1,
                    "metadata" : {
                      "clipSpeedAttribute" : false
                    },
                    "animationTracks" : {

                    }
                  },
                  {
                    "id" : 441,
                    "_type" : "AMFile",
                    "src" : 43,
                    "trackNumber" : 0,
                    "attributes" : {
                      "ident" : "Recording (12) edited",
                      "gain" : 1.85,
                      "mixToMono" : false
                    },
                      "channelNumber" : "0,1",
                    "effects" : [

                    ],
                    "start" : 23824,
                    "duration" : 390,
                    "mediaStart" : 11,
                    "mediaDuration" : 390,
                    "scalar" : 1,
                    "metadata" : {
                      "clipSpeedAttribute" : false
                    },
                    "animationTracks" : {

                    }
                  },
                  {
                    "id" : 442,
                    "_type" : "StitchedMedia",
                    "minMediaStart" : 0,
                    "attributes" : {
                      "ident" : "Recording (12) edited",
                      "gain" : 1.85,
                      "mixToMono" : false
                    },
                    "parameters" : {
                      "volume" : 0.989010989010989,
                      "cursorOpacity" : 1.0,
                      "cursorScale" : 1.0
                    },
                    "medias" : [
                        {
                          "id" : 443,
                          "_type" : "AMFile",
                          "src" : 43,
                          "trackNumber" : 0,
                          "attributes" : {
                            "ident" : "Recording (12) edited",
                            "gain" : 1.0,
                            "mixToMono" : false
                          },
                            "channelNumber" : "0,1",
                          "effects" : [

                          ],
                          "start" : 0,
                          "duration" : 870,
                          "mediaStart" : 0,
                          "mediaDuration" : 870,
                          "scalar" : 1,
                          "metadata" : {
                            "clipSpeedAttribute" : false
                          },
                          "animationTracks" : {

                          }
                        },
                        {
                          "id" : 444,
                          "_type" : "AMFile",
                          "src" : 43,
                          "trackNumber" : 0,
                          "attributes" : {
                            "ident" : "Recording (12) edited",
                            "gain" : 1.0,
                            "mixToMono" : false
                          },
                            "channelNumber" : "0,1",
                          "effects" : [

                          ],
                          "start" : 870,
                          "duration" : 454,
                          "mediaStart" : 881,
                          "mediaDuration" : 454,
                          "scalar" : 1,
                          "metadata" : {
                            "clipSpeedAttribute" : false
                          },
                          "animationTracks" : {

                          }
                        }
                    ],
                    "effects" : [

                    ],
                    "start" : 24404,
                    "duration" : 342,
                    "mediaStart" : 426,
                    "mediaDuration" : 342,
                    "scalar" : 1,
                    "metadata" : {
                      "clipSpeedAttribute" : false
                    },
                    "animationTracks" : {

                    }
                  },
                  {
                    "id" : 445,
                    "_type" : "StitchedMedia",
                    "minMediaStart" : 0,
                    "attributes" : {
                      "ident" : "Recording (12) edited",
                      "gain" : 1.85,
                      "mixToMono" : false
                    },
                    "parameters" : {
                      "volume" : 1.0,
                      "cursorOpacity" : 1.0,
                      "cursorScale" : 1.0
                    },
                    "medias" : [
                        {
                          "id" : 446,
                          "_type" : "AMFile",
                          "src" : 43,
                          "trackNumber" : 0,
                          "attributes" : {
                            "ident" : "Recording (12) edited",
                            "gain" : 1.0,
                            "mixToMono" : false
                          },
                            "channelNumber" : "0,1",
                          "effects" : [

                          ],
                          "start" : 0,
                          "duration" : 870,
                          "mediaStart" : 0,
                          "mediaDuration" : 870,
                          "scalar" : 1,
                          "metadata" : {
                            "clipSpeedAttribute" : false
                          },
                          "animationTracks" : {

                          }
                        },
                        {
                          "id" : 447,
                          "_type" : "AMFile",
                          "src" : 43,
                          "trackNumber" : 0,
                          "attributes" : {
                            "ident" : "Recording (12) edited",
                            "gain" : 1.0,
                            "mixToMono" : false
                          },
                            "channelNumber" : "0,1",
                          "effects" : [

                          ],
                          "start" : 870,
                          "duration" : 454,
                          "mediaStart" : 881,
                          "mediaDuration" : 454,
                          "scalar" : 1,
                          "metadata" : {
                            "clipSpeedAttribute" : false
                          },
                          "animationTracks" : {

                          }
                        }
                    ],
                    "effects" : [

                    ],
                    "start" : 24775,
                    "duration" : 556,
                    "mediaStart" : 768,
                    "mediaDuration" : 556,
                    "scalar" : 1,
                    "metadata" : {
                      "clipSpeedAttribute" : false
                    },
                    "animationTracks" : {

                    }
                  },
                  {
                    "id" : 448,
                    "_type" : "AMFile",
                    "src" : 42,
                    "trackNumber" : 0,
                    "attributes" : {
                      "ident" : "Recording (13) edited",
                      "gain" : 1.85,
                      "mixToMono" : false
                    },
                      "channelNumber" : "0,1",
                    "parameters" : {
                      "volume" : 1.24489795918368
                    },
                    "effects" : [

                    ],
                    "start" : 26076,
                    "duration" : 89,
                    "mediaStart" : 0,
                    "mediaDuration" : 89,
                    "scalar" : 1,
                    "metadata" : {
                      "clipSpeedAttribute" : false
                    },
                    "animationTracks" : {

                    }
                  },
                  {
                    "id" : 449,
                    "_type" : "AMFile",
                    "src" : 42,
                    "trackNumber" : 0,
                    "attributes" : {
                      "ident" : "Recording (13) edited",
                      "gain" : 1.85,
                      "mixToMono" : false
                    },
                      "channelNumber" : "0,1",
                    "parameters" : {
                      "volume" : 1.24489795918368
                    },
                    "effects" : [

                    ],
                    "start" : 26213,
                    "duration" : 888,
                    "mediaStart" : 89,
                    "mediaDuration" : 888,
                    "scalar" : 1,
                    "metadata" : {
                      "clipSpeedAttribute" : false
                    },
                    "animationTracks" : {

                    }
                  },
                  {
                    "id" : 450,
                    "_type" : "AMFile",
                    "src" : 42,
                    "trackNumber" : 0,
                    "attributes" : {
                      "ident" : "Recording (13) edited",
                      "gain" : 1.85,
                      "mixToMono" : false
                    },
                      "channelNumber" : "0,1",
                    "parameters" : {
                      "volume" : 1.24489795918368
                    },
                    "effects" : [

                    ],
                    "start" : 27129,
                    "duration" : 274,
                    "mediaStart" : 977,
                    "mediaDuration" : 274,
                    "scalar" : 1,
                    "metadata" : {
                      "clipSpeedAttribute" : false
                    },
                    "animationTracks" : {

                    }
                  },
                  {
                    "id" : 451,
                    "_type" : "AMFile",
                    "src" : 42,
                    "trackNumber" : 0,
                    "attributes" : {
                      "ident" : "Recording (13) edited",
                      "gain" : 1.85,
                      "mixToMono" : false
                    },
                      "channelNumber" : "0,1",
                    "parameters" : {
                      "volume" : 1.24489795918368
                    },
                    "effects" : [

                    ],
                    "start" : 27511,
                    "duration" : 296,
                    "mediaStart" : 1251,
                    "mediaDuration" : 296,
                    "scalar" : 1,
                    "metadata" : {
                      "clipSpeedAttribute" : false
                    },
                    "animationTracks" : {

                    }
                  },
                  {
                    "id" : 452,
                    "_type" : "AMFile",
                    "src" : 42,
                    "trackNumber" : 0,
                    "attributes" : {
                      "ident" : "Recording (13) edited",
                      "gain" : 1.85,
                      "mixToMono" : false
                    },
                      "channelNumber" : "0,1",
                    "parameters" : {
                      "volume" : 1.24489795918368
                    },
                    "effects" : [

                    ],
                    "start" : 27992,
                    "duration" : 638,
                    "mediaStart" : 1547,
                    "mediaDuration" : 638,
                    "scalar" : 1,
                    "metadata" : {
                      "clipSpeedAttribute" : false
                    },
                    "animationTracks" : {

                    }
                  },
                  {
                    "id" : 453,
                    "_type" : "StitchedMedia",
                    "minMediaStart" : 0,
                    "attributes" : {
                      "ident" : "Recording (14) edited",
                      "gain" : 1.85,
                      "mixToMono" : false
                    },
                    "parameters" : {
                      "volume" : 1.0,
                      "cursorOpacity" : 1.0,
                      "cursorScale" : 1.0
                    },
                    "medias" : [
                        {
                          "id" : 454,
                          "_type" : "AMFile",
                          "src" : 41,
                          "trackNumber" : 0,
                          "attributes" : {
                            "ident" : "Recording (14) edited",
                            "gain" : 1.0,
                            "mixToMono" : false
                          },
                            "channelNumber" : "0,1",
                          "effects" : [

                          ],
                          "start" : 0,
                          "duration" : 411,
                          "mediaStart" : 0,
                          "mediaDuration" : 411,
                          "scalar" : 1,
                          "metadata" : {
                            "clipSpeedAttribute" : false
                          },
                          "animationTracks" : {

                          }
                        },
                        {
                          "id" : 455,
                          "_type" : "AMFile",
                          "src" : 41,
                          "trackNumber" : 0,
                          "attributes" : {
                            "ident" : "Recording (14) edited",
                            "gain" : 1.0,
                            "mixToMono" : false
                          },
                            "channelNumber" : "0,1",
                          "effects" : [

                          ],
                          "start" : 411,
                          "duration" : 635,
                          "mediaStart" : 421,
                          "mediaDuration" : 635,
                          "scalar" : 1,
                          "metadata" : {
                            "clipSpeedAttribute" : false
                          },
                          "animationTracks" : {

                          }
                        }
                    ],
                    "effects" : [

                    ],
                    "start" : 28741,
                    "duration" : 1046,
                    "mediaStart" : 0,
                    "mediaDuration" : 1046,
                    "scalar" : 1,
                    "metadata" : {
                      "clipSpeedAttribute" : false
                    },
                    "animationTracks" : {

                    }
                  },
                  {
                    "id" : 456,
                    "_type" : "StitchedMedia",
                    "minMediaStart" : 0,
                    "attributes" : {
                      "ident" : "Recording (15) edited",
                      "gain" : 1.85,
                      "mixToMono" : false
                    },
                    "parameters" : {
                      "volume" : 1.0,
                      "cursorOpacity" : 1.0,
                      "cursorScale" : 1.0
                    },
                    "medias" : [
                        {
                          "id" : 457,
                          "_type" : "AMFile",
                          "src" : 40,
                          "trackNumber" : 0,
                          "attributes" : {
                            "ident" : "Recording (15) edited",
                            "gain" : 1.0,
                            "mixToMono" : false
                          },
                            "channelNumber" : "0,1",
                          "effects" : [

                          ],
                          "start" : 0,
                          "duration" : 521,
                          "mediaStart" : 0,
                          "mediaDuration" : 521,
                          "scalar" : 1,
                          "metadata" : {
                            "clipSpeedAttribute" : false
                          },
                          "animationTracks" : {

                          }
                        },
                        {
                          "id" : 458,
                          "_type" : "AMFile",
                          "src" : 40,
                          "trackNumber" : 0,
                          "attributes" : {
                            "ident" : "Recording (15) edited",
                            "gain" : 1.0,
                            "mixToMono" : false
                          },
                            "channelNumber" : "0,1",
                          "effects" : [

                          ],
                          "start" : 521,
                          "duration" : 86,
                          "mediaStart" : 547,
                          "mediaDuration" : 86,
                          "scalar" : 1,
                          "metadata" : {
                            "clipSpeedAttribute" : false
                          },
                          "animationTracks" : {

                          }
                        }
                    ],
                    "effects" : [

                    ],
                    "start" : 29892,
                    "duration" : 607,
                    "mediaStart" : 0,
                    "mediaDuration" : 607,
                    "scalar" : 1,
                    "metadata" : {
                      "clipSpeedAttribute" : false
                    },
                    "animationTracks" : {

                    }
                  },
                  {
                    "id" : 459,
                    "_type" : "AMFile",
                    "src" : 39,
                    "trackNumber" : 0,
                    "attributes" : {
                      "ident" : "Recording (16) edited",
                      "gain" : 1.85,
                      "mixToMono" : false
                    },
                      "channelNumber" : "0,1",
                    "effects" : [

                    ],
                    "start" : 30559,
                    "duration" : 1639,
                    "mediaStart" : 0,
                    "mediaDuration" : 1639,
                    "scalar" : 1,
                    "metadata" : {
                      "clipSpeedAttribute" : false
                    },
                    "animationTracks" : {

                    }
                  },
                  {
                    "id" : 460,
                    "_type" : "AMFile",
                    "src" : 38,
                    "trackNumber" : 0,
                    "attributes" : {
                      "ident" : "Recording (17) edited",
                      "gain" : 1.85,
                      "mixToMono" : false
                    },
                      "channelNumber" : "0,1",
                    "effects" : [

                    ],
                    "start" : 32279,
                    "duration" : 649,
                    "mediaStart" : 0,
                    "mediaDuration" : 649,
                    "scalar" : 1,
                    "metadata" : {
                      "clipSpeedAttribute" : false
                    },
                    "animationTracks" : {

                    }
                  },
                  {
                    "id" : 461,
                    "_type" : "AMFile",
                    "src" : 37,
                    "trackNumber" : 0,
                    "attributes" : {
                      "ident" : "Recording (18) edited",
                      "gain" : 1.85,
                      "mixToMono" : false
                    },
                      "channelNumber" : "0,1",
                    "effects" : [

                    ],
                    "start" : 33055,
                    "duration" : 964,
                    "mediaStart" : 0,
                    "mediaDuration" : 964,
                    "scalar" : 1,
                    "metadata" : {
                      "clipSpeedAttribute" : false
                    },
                    "animationTracks" : {

                    }
                  },
                  {
                    "id" : 462,
                    "_type" : "AMFile",
                    "src" : 36,
                    "trackNumber" : 0,
                    "attributes" : {
                      "ident" : "Recording (19) edited",
                      "gain" : 1.85,
                      "mixToMono" : false
                    },
                      "channelNumber" : "0,1",
                    "effects" : [

                    ],
                    "start" : 34061,
                    "duration" : 729,
                    "mediaStart" : 0,
                    "mediaDuration" : 729,
                    "scalar" : 1,
                    "metadata" : {
                      "clipSpeedAttribute" : false
                    },
                    "animationTracks" : {

                    }
                  },
                  {
                    "id" : 463,
                    "_type" : "AMFile",
                    "src" : 35,
                    "trackNumber" : 0,
                    "attributes" : {
                      "ident" : "Recording (20) edited",
                      "gain" : 1.85,
                      "mixToMono" : false
                    },
                      "channelNumber" : "0,1",
                    "effects" : [

                    ],
                    "start" : 34836,
                    "duration" : 635,
                    "mediaStart" : 0,
                    "mediaDuration" : 635,
                    "scalar" : 1,
                    "metadata" : {
                      "clipSpeedAttribute" : false
                    },
                    "animationTracks" : {

                    }
                  },
                  {
                    "id" : 464,
                    "_type" : "AMFile",
                    "src" : 35,
                    "trackNumber" : 0,
                    "attributes" : {
                      "ident" : "Recording (20) edited",
                      "gain" : 1.85,
                      "mixToMono" : false
                    },
                      "channelNumber" : "0,1",
                    "effects" : [

                    ],
                    "start" : 35603,
                    "duration" : 1160,
                    "mediaStart" : 635,
                    "mediaDuration" : 1160,
                    "scalar" : 1,
                    "metadata" : {
                      "clipSpeedAttribute" : false
                    },
                    "animationTracks" : {

                    }
                  },
                  {
                    "id" : 465,
                    "_type" : "AMFile",
                    "src" : 52,
                    "trackNumber" : 0,
                    "attributes" : {
                      "ident" : "Recording (21) edited",
                      "gain" : 1.85,
                      "mixToMono" : false
                    },
                      "channelNumber" : "0,1",
                    "effects" : [

                    ],
                    "start" : 36780,
                    "duration" : 1116,
                    "mediaStart" : 0,
                    "mediaDuration" : 1116,
                    "scalar" : 1,
                    "metadata" : {
                      "clipSpeedAttribute" : false
                    },
                    "animationTracks" : {

                    }
                  },
                  {
                    "id" : 466,
                    "_type" : "AMFile",
                    "src" : 34,
                    "trackNumber" : 0,
                    "attributes" : {
                      "ident" : "Recording (22) edited",
                      "gain" : 1.85,
                      "mixToMono" : false
                    },
                      "channelNumber" : "0,1",
                    "parameters" : {
                      "volume" : 0.978021978021979
                    },
                    "effects" : [

                    ],
                    "start" : 37947,
                    "duration" : 519,
                    "mediaStart" : 0,
                    "mediaDuration" : 519,
                    "scalar" : 1,
                    "metadata" : {
                      "clipSpeedAttribute" : false
                    },
                    "animationTracks" : {

                    }
                  },
                  {
                    "id" : 467,
                    "_type" : "AMFile",
                    "src" : 3,
                    "trackNumber" : 0,
                    "attributes" : {
                      "ident" : "Ryan's voiceover audio",
                      "gain" : 1.85,
                      "mixToMono" : false
                    },
                      "channelNumber" : "0,1",
                    "effects" : [

                    ],
                    "start" : 38559,
                    "duration" : 350,
                    "mediaStart" : 9101,
                    "mediaDuration" : 350,
                    "scalar" : 1,
                    "metadata" : {
                      "clipSpeedAttribute" : false
                    },
                    "animationTracks" : {

                    }
                  },
                  {
                    "id" : 468,
                    "_type" : "AMFile",
                    "src" : 3,
                    "trackNumber" : 0,
                    "attributes" : {
                      "ident" : "Ryan's voiceover audio",
                      "gain" : 1.85,
                      "mixToMono" : false
                    },
                      "channelNumber" : "0,1",
                    "effects" : [

                    ],
                    "start" : 38958,
                    "duration" : 374,
                    "mediaStart" : 9492,
                    "mediaDuration" : 374,
                    "scalar" : 1,
                    "metadata" : {
                      "clipSpeedAttribute" : false
                    },
                    "animationTracks" : {

                    }
                  },
                  {
                    "id" : 469,
                    "_type" : "AMFile",
                    "src" : 3,
                    "trackNumber" : 0,
                    "attributes" : {
                      "ident" : "Ryan's voiceover audio",
                      "gain" : 1.85,
                      "mixToMono" : false
                    },
                      "channelNumber" : "0,1",
                    "effects" : [

                    ],
                    "start" : 39420,
                    "duration" : 293,
                    "mediaStart" : 9894,
                    "mediaDuration" : 293,
                    "scalar" : 1,
                    "metadata" : {
                      "clipSpeedAttribute" : false
                    },
                    "animationTracks" : {

                    }
                  },
                  {
                    "id" : 470,
                    "_type" : "AMFile",
                    "src" : 3,
                    "trackNumber" : 0,
                    "attributes" : {
                      "ident" : "Ryan's voiceover audio",
                      "gain" : 1.85,
                      "mixToMono" : false
                    },
                      "channelNumber" : "0,1",
                    "effects" : [

                    ],
                    "start" : 39729,
                    "duration" : 178,
                    "mediaStart" : 10200,
                    "mediaDuration" : 178,
                    "scalar" : 1,
                    "metadata" : {
                      "clipSpeedAttribute" : false
                    },
                    "animationTracks" : {

                    }
                  },
                  {
                    "id" : 471,
                    "_type" : "AMFile",
                    "src" : 3,
                    "trackNumber" : 0,
                    "attributes" : {
                      "ident" : "Ryan's voiceover audio",
                      "gain" : 1.85,
                      "mixToMono" : false
                    },
                      "channelNumber" : "0,1",
                    "effects" : [

                    ],
                    "start" : 39929,
                    "duration" : 304,
                    "mediaStart" : 10390,
                    "mediaDuration" : 304,
                    "scalar" : 1,
                    "metadata" : {
                      "clipSpeedAttribute" : false
                    },
                    "animationTracks" : {

                    }
                  },
                  {
                    "id" : 472,
                    "_type" : "AMFile",
                    "src" : 3,
                    "trackNumber" : 0,
                    "attributes" : {
                      "ident" : "Ryan's voiceover audio",
                      "gain" : 1.85,
                      "mixToMono" : false
                    },
                      "channelNumber" : "0,1",
                    "effects" : [

                    ],
                    "start" : 40253,
                    "duration" : 451,
                    "mediaStart" : 10715,
                    "mediaDuration" : 451,
                    "scalar" : 1,
                    "metadata" : {
                      "clipSpeedAttribute" : false
                    },
                    "animationTracks" : {

                    }
                  },
                  {
                    "id" : 473,
                    "_type" : "AMFile",
                    "src" : 3,
                    "trackNumber" : 0,
                    "attributes" : {
                      "ident" : "Ryan's voiceover audio",
                      "gain" : 1.85,
                      "mixToMono" : false
                    },
                      "channelNumber" : "0,1",
                    "effects" : [

                    ],
                    "start" : 40739,
                    "duration" : 192,
                    "mediaStart" : 11176,
                    "mediaDuration" : 192,
                    "scalar" : 1,
                    "metadata" : {
                      "clipSpeedAttribute" : false
                    },
                    "animationTracks" : {

                    }
                  }
                ]
              },
              {
                "trackIndex" : 3,
                "medias" : [
                  {
                    "id" : 474,
                    "_type" : "Callout",
                    "def" : {
                      "kind" : "TypeWinBlur",
                      "shape" : "",
                      "style" : "",
                      "blur-invert" : 0.0,
                      "height" : 270.0,
                      "intensity" : 1.0,
                      "width" : 480.0,
                      "filename" : "C:\\Users\\Lynn Dai\\AppData\\Local\\TechSmith\\Camtasia Studio\\19.0\\Features\\Tools\\Annotations\\Defaults\\blur_100x100.xml",
                      "name" : "Blur",
                      "xmlContent" : "﻿<?xml version=\"1.0\"?>\n\n<Overlay version=\"1.0.1\">\n\n<Overlay_Filename>blur_100x100.png</Overlay_Filename>\n<Overlay_Name>Blur</Overlay_Name>\n<Text_Top>0</Text_Top>\n<Text_Left>0</Text_Left>\n<Text_Bottom>0</Text_Bottom>\n<Text_Right>0</Text_Right>\n<Fill_Color>0</Fill_Color>\n<Border_Color>0</Border_Color>\n</Overlay>"
                    },
                    "attributes" : {
                      "autoRotateText" : true
                    },
                    "parameters" : {
                      "translation0" : 65.1372549023762,
                      "translation1" : 457.058823529478,
                      "scale0" : 3.13349673202804,
                      "scale1" : 0.151488743646906
                    },
                    "effects" : [

                    ],
                    "start" : 14445,
                    "duration" : 7292,
                    "mediaStart" : 34,
                    "mediaDuration" : 7292,
                    "scalar" : 1,
                    "metadata" : {
                      "clipSpeedAttribute" : false,
                      "default-scale0" : 1.0,
                      "default-scale1" : 1.0,
                      "default-translation0" : 0.0,
                      "default-translation1" : 0.0
                    },
                    "animationTracks" : {

                    }
                  },
                  {
                    "id" : 475,
                    "_type" : "Callout",
                    "def" : {
                      "kind" : "TypeWinBlur",
                      "shape" : "",
                      "style" : "",
                      "blur-invert" : 0.0,
                      "height" : 270.0,
                      "intensity" : 1.0,
                      "width" : 480.0,
                      "filename" : "C:\\Users\\Lynn Dai\\AppData\\Local\\TechSmith\\Camtasia Studio\\19.0\\Features\\Tools\\Annotations\\Defaults\\blur_100x100.xml",
                      "name" : "Blur",
                      "xmlContent" : "﻿<?xml version=\"1.0\"?>\n\n<Overlay version=\"1.0.1\">\n\n<Overlay_Filename>blur_100x100.png</Overlay_Filename>\n<Overlay_Name>Blur</Overlay_Name>\n<Text_Top>0</Text_Top>\n<Text_Left>0</Text_Left>\n<Text_Bottom>0</Text_Bottom>\n<Text_Right>0</Text_Right>\n<Fill_Color>0</Fill_Color>\n<Border_Color>0</Border_Color>\n</Overlay>"
                    },
                    "attributes" : {
                      "autoRotateText" : true
                    },
                    "parameters" : {
                      "translation0" : -13.3333333336376,
                      "translation1" : -38.6666666669688,
                      "scale0" : 0.369444444443742,
                      "scale1" : 0.130864197530781
                    },
                    "effects" : [

                    ],
                    "start" : 25899,
                    "duration" : 239,
                    "mediaStart" : 0,
                    "mediaDuration" : 239,
                    "scalar" : 1,
                    "metadata" : {
                      "clipSpeedAttribute" : false,
                      "default-scale0" : 1.0,
                      "default-scale1" : 1.0,
                      "default-translation0" : 0.0,
                      "default-translation1" : 0.0
                    },
                    "animationTracks" : {

                    }
                  },
                  {
                    "id" : 476,
                    "_type" : "IMFile",
                    "src" : 69,
                    "trackNumber" : 0,
                    "trimStartSum" : 0,
                    "attributes" : {
                      "ident" : "systen-architecture-v2"
                    },
                    "parameters" : {
                      "translation0" : {
                        "type" : "double",
                        "defaultValue" : 2.08686401492741e-10,
                        "keyframes" : [
                          {
                            "endTime" : 77,
                            "time" : -50,
                            "value" : -901.538451498171,
                            "duration" : 127
                          },
                          {
                            "endTime" : 170,
                            "time" : 77,
                            "value" : -817.008413619126,
                            "duration" : 93
                          },
                          {
                            "endTime" : 232,
                            "time" : 171,
                            "value" : -9.17329836047642e-05,
                            "duration" : 61
                          }
                        ]
                      },
                      "translation1" : {
                        "type" : "double",
                        "defaultValue" : -42.1000752445666,
                        "keyframes" : [
                          {
                            "endTime" : 77,
                            "time" : -50,
                            "value" : -1003.20857944521,
                            "duration" : 127
                          },
                          {
                            "endTime" : 170,
                            "time" : 77,
                            "value" : -97.5296206001595,
                            "duration" : 93
                          },
                          {
                            "endTime" : 232,
                            "time" : 171,
                            "value" : -42.1000777862004,
                            "duration" : 61
                          }
                        ]
                      },
                      "scale0" : {
                        "type" : "double",
                        "defaultValue" : 0.883370955605679,
                        "keyframes" : [
                          {
                            "endTime" : 77,
                            "time" : -50,
                            "value" : 3.49933834437056,
                            "duration" : 127
                          },
                          {
                            "endTime" : 170,
                            "time" : 77,
                            "value" : 3.49933826974196,
                            "duration" : 93
                          },
                          {
                            "endTime" : 232,
                            "time" : 171,
                            "value" : 0.883370868147644,
                            "duration" : 61
                          }
                        ]
                      },
                      "scale1" : {
                        "type" : "double",
                        "defaultValue" : 0.883370955605679,
                        "keyframes" : [
                          {
                            "endTime" : 77,
                            "time" : -50,
                            "value" : 3.49933913811525,
                            "duration" : 127
                          },
                          {
                            "endTime" : 170,
                            "time" : 77,
                            "value" : 3.49933883960081,
                            "duration" : 93
                          },
                          {
                            "endTime" : 232,
                            "time" : 171,
                            "value" : 0.883370974675184,
                            "duration" : 61
                          }
                        ]
                      }
                    },
                    "effects" : [

                    ],
                    "start" : 29579,
                    "duration" : 275,
                    "mediaStart" : 0,
                    "mediaDuration" : 1,
                    "scalar" : 1,
                    "metadata" : {
                      "clipSpeedAttribute" : false,
                      "default-scale0" : 1.0,
                      "default-scale1" : 1.0,
                      "default-translation0" : 0.0,
                      "default-translation1" : 0.0
                    },
                    "animationTracks" : {
                      "visual" : [
                        {
                          "endTime" : 77,
                          "duration" : 127,
                          "range" : [ -50, 127]
                        },
                        {
                          "endTime" : 170,
                          "duration" : 93,
                          "range" : [ 77, 93]
                        },
                        {
                          "endTime" : 232,
                          "duration" : 61,
                          "range" : [ 171, 61]
                        }
                      ]
                    }
                  },
                  {
                    "id" : 477,
                    "_type" : "IMFile",
                    "src" : 69,
                    "trackNumber" : 0,
                    "trimStartSum" : 0,
                    "attributes" : {
                      "ident" : "systen-architecture-v2"
                    },
                    "parameters" : {
                      "translation0" : {
                        "type" : "double",
                        "defaultValue" : 2.08686401492741e-10,
                        "keyframes" : [
                          {
                            "endTime" : 199,
                            "time" : -56,
                            "value" : 808.587235390412,
                            "duration" : 255
                          },
                          {
                            "endTime" : 373,
                            "time" : 199,
                            "value" : 1.10503606265411e-10,
                            "duration" : 174
                          }
                        ]
                      },
                      "translation1" : {
                        "type" : "double",
                        "defaultValue" : -42.1000752445666,
                        "keyframes" : [
                          {
                            "endTime" : 199,
                            "time" : -56,
                            "value" : -1094.2077169411,
                            "duration" : 255
                          },
                          {
                            "endTime" : 373,
                            "time" : 199,
                            "value" : -42.1000752445526,
                            "duration" : 174
                          }
                        ]
                      },
                      "scale0" : {
                        "type" : "double",
                        "defaultValue" : 0.883370955605679,
                        "keyframes" : [
                          {
                            "endTime" : 199,
                            "time" : -56,
                            "value" : 3.39586926687777,
                            "duration" : 255
                          },
                          {
                            "endTime" : 373,
                            "time" : 199,
                            "value" : 0.883370949002867,
                            "duration" : 174
                          }
                        ]
                      },
                      "scale1" : {
                        "type" : "double",
                        "defaultValue" : 0.883370955605679,
                        "keyframes" : [
                          {
                            "endTime" : 199,
                            "time" : -56,
                            "value" : 3.39586929226041,
                            "duration" : 255
                          },
                          {
                            "endTime" : 373,
                            "time" : 199,
                            "value" : 0.883370955605679,
                            "duration" : 174
                          }
                        ]
                      }
                    },
                    "effects" : [

                    ],
                    "start" : 30894,
                    "duration" : 404,
                    "mediaStart" : 0,
                    "mediaDuration" : 1,
                    "scalar" : 1,
                    "metadata" : {
                      "clipSpeedAttribute" : false,
                      "default-scale0" : 1.0,
                      "default-scale1" : 1.0,
                      "default-translation0" : 0.0,
                      "default-translation1" : 0.0
                    },
                    "animationTracks" : {
                      "visual" : [
                        {
                          "endTime" : 199,
                          "duration" : 255,
                          "range" : [ -56, 255]
                        },
                        {
                          "endTime" : 373,
                          "duration" : 174,
                          "range" : [ 199, 174]
                        }
                      ]
                    }
                  },
                  {
                    "id" : 478,
                    "_type" : "Callout",
                    "def" : {
                      "kind" : "TypeWinBlur",
                      "shape" : "",
                      "style" : "",
                      "blur-invert" : 0.0,
                      "height" : 270.0,
                      "intensity" : 1.0,
                      "width" : 480.0,
                      "filename" : "C:\\Users\\Lynn Dai\\AppData\\Local\\TechSmith\\Camtasia Studio\\19.0\\Features\\Tools\\Annotations\\Defaults\\blur_100x100.xml",
                      "name" : "Blur",
                      "xmlContent" : "﻿<?xml version=\"1.0\"?>\n\n<Overlay version=\"1.0.1\">\n\n<Overlay_Filename>blur_100x100.png</Overlay_Filename>\n<Overlay_Name>Blur</Overlay_Name>\n<Text_Top>0</Text_Top>\n<Text_Left>0</Text_Left>\n<Text_Bottom>0</Text_Bottom>\n<Text_Right>0</Text_Right>\n<Fill_Color>0</Fill_Color>\n<Border_Color>0</Border_Color>\n</Overlay>"
                    },
                    "attributes" : {
                      "autoRotateText" : true
                    },
                    "parameters" : {
                      "translation0" : 71.333333333934,
                      "translation1" : 458.666666666593,
                      "scale0" : 3.16944444444612,
                      "scale1" : 0.140740740741546
                    },
                    "effects" : [

                    ],
                    "start" : 32150,
                    "duration" : 6361,
                    "mediaStart" : 0,
                    "mediaDuration" : 6361,
                    "scalar" : 1,
                    "metadata" : {
                      "clipSpeedAttribute" : false,
                      "default-scale0" : 1.0,
                      "default-scale1" : 1.0,
                      "default-translation0" : 0.0,
                      "default-translation1" : 0.0
                    },
                    "animationTracks" : {

                    }
                  }
                ]
              },
              {
                "trackIndex" : 4,
                "medias" : [
                  {
                    "id" : 479,
                    "_type" : "IMFile",
                    "src" : 69,
                    "trackNumber" : 0,
                    "trimStartSum" : 0,
                    "attributes" : {
                      "ident" : "systen-architecture-v2"
                    },
                    "parameters" : {
                      "translation0" : {
                        "type" : "double",
                        "defaultValue" : 2.08686401492741e-10,
                        "keyframes" : [
                          {
                            "endTime" : 188,
                            "time" : 19,
                            "value" : -813.621096459976,
                            "duration" : 169
                          }
                        ]
                      },
                      "translation1" : {
                        "type" : "double",
                        "defaultValue" : -42.1000752445666,
                        "keyframes" : [
                          {
                            "endTime" : 188,
                            "time" : 19,
                            "value" : -889.661354166727,
                            "duration" : 169
                          }
                        ]
                      },
                      "scale0" : {
                        "type" : "double",
                        "defaultValue" : 0.883370955605679,
                        "keyframes" : [
                          {
                            "endTime" : 188,
                            "time" : 19,
                            "value" : 2.94252990204027,
                            "duration" : 169
                          }
                        ]
                      },
                      "scale1" : {
                        "type" : "double",
                        "defaultValue" : 0.883370955605679,
                        "keyframes" : [
                          {
                            "endTime" : 188,
                            "time" : 19,
                            "value" : 2.94253054783381,
                            "duration" : 169
                          }
                        ]
                      }
                    },
                    "effects" : [

                    ],
                    "start" : 26286,
                    "duration" : 188,
                    "mediaStart" : 0,
                    "mediaDuration" : 1,
                    "scalar" : 1,
                    "metadata" : {
                      "clipSpeedAttribute" : false,
                      "default-scale0" : 1.0,
                      "default-scale1" : 1.0,
                      "default-translation0" : 0.0,
                      "default-translation1" : 0.0
                    },
                    "animationTracks" : {
                      "visual" : [
                        {
                          "endTime" : 188,
                          "duration" : 169,
                          "range" : [ 19, 169]
                        }
                      ]
                    }
                  },
                  {
                    "id" : 480,
                    "_type" : "IMFile",
                    "src" : 69,
                    "trackNumber" : 0,
                    "trimStartSum" : 0,
                    "attributes" : {
                      "ident" : "systen-architecture-v2"
                    },
                    "parameters" : {
                      "translation0" : {
                        "type" : "double",
                        "defaultValue" : 2.08686401492741e-10,
                        "keyframes" : [
                          {
                            "endTime" : 188,
                            "time" : 19,
                            "value" : -813.621096459976,
                            "duration" : 169
                          },
                          {
                            "endTime" : 244,
                            "time" : 188,
                            "value" : 8.01073084062409e-05,
                            "duration" : 56
                          },
                          {
                            "endTime" : 399,
                            "time" : 244,
                            "value" : -2611.93777181612,
                            "duration" : 155
                          },
                          {
                            "endTime" : 572,
                            "time" : 399,
                            "value" : 8.65056404109055e-06,
                            "duration" : 173
                          }
                        ]
                      },
                      "translation1" : {
                        "type" : "double",
                        "defaultValue" : -42.1000752445666,
                        "keyframes" : [
                          {
                            "endTime" : 188,
                            "time" : 19,
                            "value" : -889.661354166727,
                            "duration" : 169
                          },
                          {
                            "endTime" : 244,
                            "time" : 188,
                            "value" : -42.1000865295445,
                            "duration" : 56
                          },
                          {
                            "endTime" : 399,
                            "time" : 244,
                            "value" : -1084.91621698511,
                            "duration" : 155
                          },
                          {
                            "endTime" : 572,
                            "time" : 399,
                            "value" : -42.1000808719358,
                            "duration" : 173
                          }
                        ]
                      },
                      "scale0" : {
                        "type" : "double",
                        "defaultValue" : 0.883370955605679,
                        "keyframes" : [
                          {
                            "endTime" : 188,
                            "time" : 19,
                            "value" : 2.94252990204027,
                            "duration" : 169
                          },
                          {
                            "endTime" : 244,
                            "time" : 188,
                            "value" : 0.883370918102982,
                            "duration" : 56
                          },
                          {
                            "endTime" : 399,
                            "time" : 244,
                            "value" : 3.97483854157314,
                            "duration" : 155
                          },
                          {
                            "endTime" : 572,
                            "time" : 399,
                            "value" : 0.883370952958767,
                            "duration" : 173
                          }
                        ]
                      },
                      "scale1" : {
                        "type" : "double",
                        "defaultValue" : 0.883370955605679,
                        "keyframes" : [
                          {
                            "endTime" : 188,
                            "time" : 19,
                            "value" : 2.94253054783381,
                            "duration" : 169
                          },
                          {
                            "endTime" : 244,
                            "time" : 188,
                            "value" : 0.8833709640747,
                            "duration" : 56
                          },
                          {
                            "endTime" : 399,
                            "time" : 244,
                            "value" : 3.97485012223532,
                            "duration" : 155
                          },
                          {
                            "endTime" : 572,
                            "time" : 399,
                            "value" : 0.883370990082807,
                            "duration" : 173
                          }
                        ]
                      }
                    },
                    "effects" : [

                    ],
                    "start" : 27987,
                    "duration" : 595,
                    "mediaStart" : 0,
                    "mediaDuration" : 1,
                    "scalar" : 1,
                    "metadata" : {
                      "clipSpeedAttribute" : false,
                      "default-scale0" : 1.0,
                      "default-scale1" : 1.0,
                      "default-translation0" : 0.0,
                      "default-translation1" : 0.0
                    },
                    "animationTracks" : {
                      "visual" : [
                        {
                          "endTime" : 188,
                          "duration" : 169,
                          "range" : [ 19, 169]
                        },
                        {
                          "endTime" : 244,
                          "duration" : 56,
                          "range" : [ 188, 56]
                        },
                        {
                          "endTime" : 399,
                          "duration" : 155,
                          "range" : [ 244, 155]
                        },
                        {
                          "endTime" : 572,
                          "duration" : 173,
                          "range" : [ 399, 173]
                        }
                      ]
                    }
                  },
                  {
                    "id" : 481,
                    "_type" : "IMFile",
                    "src" : 79,
                    "trackNumber" : 0,
                    "trimStartSum" : 0,
                    "attributes" : {
                      "ident" : "sponsor-logo"
                    },
                    "parameters" : {
                      "translation0" : -582.66666666653,
                      "translation1" : 438.157565584789,
                      "scale0" : 0.38787878787898,
                      "scale1" : 0.38787878787898
                    },
                    "effects" : [

                    ],
                    "start" : 41099,
                    "duration" : 300,
                    "mediaStart" : 0,
                    "mediaDuration" : 1,
                    "scalar" : 1,
                    "metadata" : {
                      "clipSpeedAttribute" : false,
                      "default-scale0" : 1.0,
                      "default-scale1" : 1.0,
                      "default-translation0" : 0.0,
                      "default-translation1" : 0.0
                    },
                    "animationTracks" : {

                    }
                  },
                  {
                    "id" : 482,
                    "_type" : "IMFile",
                    "src" : 80,
                    "trackNumber" : 0,
                    "trimStartSum" : 0,
                    "attributes" : {
                      "ident" : "Michigan_State_Athletics_logo.svg"
                    },
                    "parameters" : {
                      "translation0" : -805.836587129583,
                      "translation1" : 384.000000000145,
                      "scale0" : 0.188961195468634,
                      "scale1" : 0.188961195468634
                    },
                    "effects" : [

                    ],
                    "start" : 41399,
                    "duration" : 300,
                    "mediaStart" : 0,
                    "mediaDuration" : 1,
                    "scalar" : 1,
                    "metadata" : {
                      "clipSpeedAttribute" : false,
                      "default-scale0" : 0.780911062906725,
                      "default-scale1" : 0.780911062906725,
                      "default-translation0" : 0.0,
                      "default-translation1" : 0.0
                    },
                    "animationTracks" : {

                    }
                  },
                  {
                    "id" : 483,
                    "_type" : "IMFile",
                    "src" : 80,
                    "trackNumber" : 0,
                    "trimStartSum" : 0,
                    "attributes" : {
                      "ident" : "Michigan_State_Athletics_logo.svg"
                    },
                    "parameters" : {
                      "translation0" : -805.836587129583,
                      "translation1" : 384.000000000145,
                      "scale0" : 0.188961195468634,
                      "scale1" : 0.188961195468634
                    },
                    "effects" : [

                    ],
                    "start" : 41699,
                    "duration" : 300,
                    "mediaStart" : 0,
                    "mediaDuration" : 1,
                    "scalar" : 1,
                    "metadata" : {
                      "clipSpeedAttribute" : false,
                      "default-scale0" : 0.780911062906725,
                      "default-scale1" : 0.780911062906725,
                      "default-translation0" : 0.0,
                      "default-translation1" : 0.0
                    },
                    "animationTracks" : {

                    }
                  }
                ]
              },
              {
                "trackIndex" : 5,
                "medias" : [
                  {
                    "id" : 484,
                    "_type" : "Callout",
                    "def" : {
                      "kind" : "remix",
                      "shape" : "text",
                      "style" : "basic",
                      "height" : 586.000000000017,
                      "line-spacing" : 0.03,
                      "width" : 868.490175614908,
                      "word-wrap" : 1.0,
                      "horizontal-alignment" : "left",
                      "resize-behavior" : "resizeText",
                      "text" : "Special Thanks to:\rTom Holcomb\rRyan Anderson\rMissy Groothuis\rMark Buikema\r",
                      "vertical-alignment" : "center",
                      "font" : {
                        "color-blue" : 1.0,
                        "color-green" : 1.0,
                        "color-red" : 1.0,
                        "size" : 96.0,
                        "tracking" : 0.0,
                        "name" : "Montserrat",
                        "weight" : "Regular"
                      },
                      "textAttributes" : {
                        "type" : "textAttributeList",
                        "keyframes" : [
                          {
                            "endTime" : 0,
                            "time" : 0,
                            "value" : [{"name":"strikethrough","rangeEnd":74,"rangeStart":0,"value":0,"valueType":"int"},{"name":"fontWeight","rangeEnd":74,"rangeStart":0,"value":400,"valueType":"int"},{"name":"underline","rangeEnd":74,"rangeStart":0,"value":0,"valueType":"int"},{"name":"fontItalic","rangeEnd":74,"rangeStart":0,"value":0,"valueType":"int"},{"name":"fontSize","rangeEnd":74,"rangeStart":0,"value":80,"valueType":"double"},{"name":"fgColor","rangeEnd":74,"rangeStart":0,"value":"(35,40,47,255)","valueType":"color"},{"name":"kerning","rangeEnd":74,"rangeStart":0,"value":0,"valueType":"double"},{"name":"fontName","rangeEnd":74,"rangeStart":0,"value":"Montserrat","valueType":"string"}],
                            "duration" : 0
                          }
                        ]
                      }
                    },
                    "attributes" : {
                      "autoRotateText" : true
                    },
                    "parameters" : {
                      "translation0" : 82.4999999999382,
                      "translation1" : -96.5000025435751
                    },
                    "effects" : [

                    ],
                    "start" : 41099,
                    "duration" : 300,
                    "mediaStart" : 0,
                    "mediaDuration" : 300,
                    "scalar" : 1,
                    "metadata" : {
                      "clipSpeedAttribute" : false,
                      "default-HAlign" : "center",
                      "default-LineSpace" : 0.0,
                      "default-VAlign" : "center",
                      "default-translation0" : 0.0,
                      "default-translation1" : 0.0
                    },
                    "animationTracks" : {

                    }
                  },
                  {
                    "id" : 485,
                    "_type" : "Callout",
                    "def" : {
                      "kind" : "remix",
                      "shape" : "text",
                      "style" : "basic",
                      "height" : 612.0,
                      "line-spacing" : 0.03,
                      "width" : 733.350766994741,
                      "word-wrap" : 1.0,
                      "horizontal-alignment" : "left",
                      "resize-behavior" : "resizeText",
                      "text" : "Special Thanks to:\rDr. Wayne Dyksen\rRyan Johnson\rJames Mariani",
                      "vertical-alignment" : "center",
                      "font" : {
                        "color-blue" : 1.0,
                        "color-green" : 1.0,
                        "color-red" : 1.0,
                        "size" : 96.0,
                        "tracking" : 0.0,
                        "name" : "Montserrat",
                        "weight" : "Regular"
                      },
                      "textAttributes" : {
                        "type" : "textAttributeList",
                        "keyframes" : [
                          {
                            "endTime" : 0,
                            "time" : 0,
                            "value" : [{"name":"fgColor","rangeEnd":62,"rangeStart":0,"value":"(35,40,47,255)","valueType":"color"},{"name":"fontName","rangeEnd":62,"rangeStart":0,"value":"Montserrat","valueType":"string"},{"name":"fontItalic","rangeEnd":62,"rangeStart":0,"value":0,"valueType":"int"},{"name":"fontWeight","rangeEnd":62,"rangeStart":0,"value":400,"valueType":"int"},{"name":"kerning","rangeEnd":62,"rangeStart":0,"value":0,"valueType":"double"},{"name":"underline","rangeEnd":62,"rangeStart":0,"value":0,"valueType":"int"},{"name":"strikethrough","rangeEnd":62,"rangeStart":0,"value":0,"valueType":"int"},{"name":"fontSize","rangeEnd":62,"rangeStart":0,"value":76,"valueType":"double"}],
                            "duration" : 0
                          }
                        ]
                      }
                    },
                    "attributes" : {
                      "autoRotateText" : true
                    },
                    "parameters" : {
                      "translation0" : 0.324616502727449,
                      "translation1" : -37.8333333337884
                    },
                    "effects" : [

                    ],
                    "start" : 41399,
                    "duration" : 300,
                    "mediaStart" : 0,
                    "mediaDuration" : 300,
                    "scalar" : 1,
                    "metadata" : {
                      "clipSpeedAttribute" : false,
                      "default-HAlign" : "center",
                      "default-LineSpace" : 0.0,
                      "default-VAlign" : "center",
                      "default-translation0" : 40.0,
                      "default-translation1" : -40.0
                    },
                    "animationTracks" : {

                    }
                  },
                  {
                    "id" : 486,
                    "_type" : "IMFile",
                    "src" : 81,
                    "trackNumber" : 0,
                    "trimStartSum" : 0,
                    "attributes" : {
                      "ident" : "hm team photo"
                    },
                    "parameters" : {
                      "translation0" : 280.491283169665,
                      "translation1" : -1.11627374010936e-10,
                      "scale0" : 0.956639566395938,
                      "scale1" : 0.956639566395938
                    },
                    "effects" : [

                    ],
                    "start" : 41699,
                    "duration" : 300,
                    "mediaStart" : 0,
                    "mediaDuration" : 1,
                    "scalar" : 1,
                    "metadata" : {
                      "clipSpeedAttribute" : false,
                      "default-scale0" : 1.0,
                      "default-scale1" : 1.0,
                      "default-translation0" : -0.5,
                      "default-translation1" : 0.0
                    },
                    "animationTracks" : {

                    }
                  }
                ]
              },
              {
                "trackIndex" : 6,
                "medias" : [
                  {
                    "id" : 487,
                    "_type" : "Callout",
                    "def" : {
                      "kind" : "remix",
                      "shape" : "text",
                      "style" : "basic",
                      "height" : 540.333333333416,
                      "line-spacing" : 0.57,
                      "width" : 788.333353678308,
                      "word-wrap" : 1.0,
                      "horizontal-alignment" : "left",
                      "resize-behavior" : "resizeText",
                      "text" : "Sophia Frankel\rJake Baum\rLynn Dai\rJohn Nguyen-Tran\rMarla Mae Defensor",
                      "vertical-alignment" : "center",
                      "font" : {
                        "color-blue" : 1.0,
                        "color-green" : 1.0,
                        "color-red" : 1.0,
                        "size" : 96.0,
                        "tracking" : 0.0,
                        "name" : "Montserrat",
                        "weight" : "Regular"
                      },
                      "textAttributes" : {
                        "type" : "textAttributeList",
                        "keyframes" : [
                          {
                            "endTime" : 0,
                            "time" : 0,
                            "value" : [{"name":"kerning","rangeEnd":69,"rangeStart":0,"value":0,"valueType":"double"},{"name":"fontSize","rangeEnd":69,"rangeStart":0,"value":53,"valueType":"double"},{"name":"strikethrough","rangeEnd":69,"rangeStart":0,"value":0,"valueType":"int"},{"name":"fgColor","rangeEnd":69,"rangeStart":0,"value":"(35,40,47,255)","valueType":"color"},{"name":"fontItalic","rangeEnd":69,"rangeStart":0,"value":0,"valueType":"int"},{"name":"underline","rangeEnd":69,"rangeStart":0,"value":0,"valueType":"int"},{"name":"fontWeight","rangeEnd":69,"rangeStart":0,"value":400,"valueType":"int"},{"name":"fontName","rangeEnd":69,"rangeStart":0,"value":"Montserrat","valueType":"string"}],
                            "duration" : 0
                          }
                        ]
                      }
                    },
                    "attributes" : {
                      "autoRotateText" : true
                    },
                    "parameters" : {
                      "translation0" : -543.379960904749,
                      "translation1" : -37.500000000599
                    },
                    "effects" : [

                    ],
                    "start" : 41699,
                    "duration" : 300,
                    "mediaStart" : 0,
                    "mediaDuration" : 300,
                    "scalar" : 1,
                    "metadata" : {
                      "clipSpeedAttribute" : false,
                      "default-HAlign" : "center",
                      "default-LineSpace" : 0.0,
                      "default-VAlign" : "center",
                      "default-translation0" : 0.0,
                      "default-translation1" : 0.0
                    },
                    "animationTracks" : {

                    }
                  }
                ]
              },
              {
                "trackIndex" : 7,
                "medias" : [
                ]
              },
              {
                "trackIndex" : 8,
                "medias" : [
                ]
              },
              {
                "trackIndex" : 9,
                "medias" : [
                ]
              },
              {
                "trackIndex" : 10,
                "medias" : [
                ]
              },
              {
                "trackIndex" : 11,
                "medias" : [
                ]
              }
            ]
          }
        }
      ]
    },
    "trackAttributes" : [
      {
        "ident" : "music",
        "audioMuted" : false,
        "videoHidden" : false,
        "magnetic" : false,
        "matte" : 0,
        "metadata" : {
          "IsLocked" : "True",
          "WinTrackHeight" : "56"
        }
      },
      {
        "ident" : "broll",
        "audioMuted" : false,
        "videoHidden" : false,
        "magnetic" : false,
        "matte" : 0,
        "metadata" : {
          "IsLocked" : "False",
          "WinTrackHeight" : "56"
        }
      },
      {
        "ident" : "audio",
        "audioMuted" : false,
        "videoHidden" : false,
        "magnetic" : false,
        "matte" : 0,
        "metadata" : {
          "IsLocked" : "True",
          "WinTrackHeight" : "56"
        }
      },
      {
        "ident" : "",
        "audioMuted" : false,
        "videoHidden" : false,
        "magnetic" : false,
        "matte" : 0,
        "metadata" : {
          "IsLocked" : "False",
          "WinTrackHeight" : "56"
        }
      },
      {
        "ident" : "",
        "audioMuted" : false,
        "videoHidden" : false,
        "magnetic" : false,
        "matte" : 0,
        "metadata" : {
          "IsLocked" : "False",
          "WinTrackHeight" : "56"
        }
      },
      {
        "ident" : "",
        "audioMuted" : false,
        "videoHidden" : false,
        "magnetic" : false,
        "matte" : 0,
        "metadata" : {
          "IsLocked" : "False",
          "WinTrackHeight" : "56"
        }
      },
      {
        "ident" : "",
        "audioMuted" : false,
        "videoHidden" : false,
        "magnetic" : false,
        "matte" : 0,
        "metadata" : {
          "IsLocked" : "False",
          "WinTrackHeight" : "56"
        }
      },
      {
        "ident" : "",
        "audioMuted" : false,
        "videoHidden" : false,
        "magnetic" : false,
        "matte" : 0,
        "metadata" : {
          "IsLocked" : "False",
          "WinTrackHeight" : "56"
        }
      },
      {
        "ident" : "",
        "audioMuted" : false,
        "videoHidden" : false,
        "magnetic" : false,
        "matte" : 0,
        "metadata" : {
          "IsLocked" : "False",
          "WinTrackHeight" : "56"
        }
      },
      {
        "ident" : "",
        "audioMuted" : false,
        "videoHidden" : false,
        "magnetic" : false,
        "matte" : 0,
        "metadata" : {
          "IsLocked" : "False",
          "WinTrackHeight" : "56"
        }
      },
      {
        "ident" : "",
        "audioMuted" : false,
        "videoHidden" : false,
        "magnetic" : false,
        "matte" : 0,
        "metadata" : {
          "IsLocked" : "False",
          "WinTrackHeight" : "56"
        }
      },
      {
        "ident" : "",
        "audioMuted" : false,
        "videoHidden" : false,
        "magnetic" : false,
        "matte" : 0,
        "metadata" : {
          "IsLocked" : "False",
          "WinTrackHeight" : "56"
        }
      }
    ],
    "captionAttributes" : {
      "enabled" : true,
      "fontName" : "Arial",
      "fontSize" : 64,
      "backgroundColor" : [ 0, 0, 0, 191],
      "foregroundColor" : [ 255, 255, 255, 255],
      "lang" : "en",
      "alignment" : 0,
      "defaultFontSize" : true,
      "opacity" : 0.5,
      "backgroundEnabled" : true,
      "backgroundOnlyAroundText" : true
    },
    "backgroundColor" : [ 0, 0, 0, 255]
  },
  "metadata" : {
    "AutoSaveFile" : "C:\\Users\\Lynn Dai\\AppData\\Local\\TechSmith\\Camtasia Studio\\19.0\\Auto-Saves\\Herman Miller Project Video11fd8e27.autosave12464ef9.autosave.tscproj",
    "CanvasZoom" : 75,
    "Date" : "2020-04-13 12:12:52 PM",
    "Fit" : 0,
    "IsAutoSave" : "0",
    "Language" : "ENU",
    "ProfileName" : "MP4 only (up to 1080p)",
    "ProjectDimensionsChanged" : "1",
    "Title" : "Herman Miller Project Video",
    "audioNarrationNotes" : "",
    "calloutStyle" : "Basic",
    "canvasDetached" : "False",
    "canvasPositionHeight" : "0",
    "canvasPositionLeft" : "0",
    "canvasPositionTop" : "0",
    "canvasPositionWidth" : "0"
  }
}
